G75*
%MOIN*%
%OFA0B0*%
%FSLAX25Y25*%
%IPPOS*%
%LPD*%
%AMOC8*
5,1,8,0,0,1.08239X$1,22.5*
%
%ADD10C,0.07677*%
%ADD11C,0.05850*%
%ADD12C,0.05250*%
%ADD13C,0.06450*%
%ADD14C,0.05906*%
%ADD15C,0.03962*%
%ADD16C,0.01600*%
D10*
X0016000Y0036000D03*
X0016000Y0056000D03*
X0016000Y0291000D03*
X0016000Y0311000D03*
X0211000Y0311000D03*
X0211000Y0321000D03*
X0211000Y0301000D03*
X0211000Y0291000D03*
X0211000Y0281000D03*
X0211000Y0271000D03*
X0211000Y0261000D03*
X0211000Y0251000D03*
X0211000Y0241000D03*
X0211000Y0231000D03*
X0216000Y0056000D03*
X0216000Y0036000D03*
D11*
X0171000Y0321000D03*
X0161000Y0321000D03*
X0131000Y0321000D03*
X0121000Y0321000D03*
X0091000Y0321000D03*
X0081000Y0321000D03*
D12*
X0081000Y0236000D03*
X0091000Y0236000D03*
X0091000Y0196000D03*
D13*
X0051000Y0196000D03*
X0021000Y0196000D03*
D14*
X0051000Y0146000D03*
X0081000Y0146000D03*
X0051000Y0036000D03*
X0111000Y0036000D03*
D15*
X0056000Y0053500D03*
X0056000Y0058500D03*
X0056000Y0063500D03*
X0051000Y0063500D03*
X0051000Y0058500D03*
X0051000Y0053500D03*
X0046000Y0053500D03*
X0046000Y0058500D03*
X0046000Y0063500D03*
X0033500Y0071000D03*
X0033500Y0076000D03*
X0028500Y0071000D03*
X0023500Y0071000D03*
X0018500Y0071000D03*
X0013500Y0071000D03*
X0008500Y0071000D03*
X0008500Y0076000D03*
X0008500Y0081000D03*
X0008500Y0086000D03*
X0008500Y0096000D03*
X0008500Y0101000D03*
X0008500Y0106000D03*
X0008500Y0111000D03*
X0013500Y0111000D03*
X0018500Y0111000D03*
X0023500Y0111000D03*
X0028500Y0111000D03*
X0033500Y0111000D03*
X0033500Y0106000D03*
X0033500Y0101000D03*
X0033500Y0096000D03*
X0091000Y0146000D03*
X0091000Y0151000D03*
X0091000Y0156000D03*
X0091000Y0161000D03*
X0091000Y0166000D03*
X0091000Y0171000D03*
X0091000Y0176000D03*
X0091000Y0181000D03*
X0096000Y0181000D03*
X0096000Y0176000D03*
X0096000Y0171000D03*
X0096000Y0166000D03*
X0096000Y0161000D03*
X0096000Y0156000D03*
X0096000Y0151000D03*
X0096000Y0146000D03*
X0128500Y0201000D03*
X0128500Y0211000D03*
X0128500Y0221000D03*
X0138500Y0236000D03*
X0138500Y0251000D03*
X0138500Y0263500D03*
X0153500Y0241000D03*
X0172250Y0226000D03*
X0179750Y0226000D03*
X0181000Y0237250D03*
X0197250Y0227250D03*
X0191000Y0206000D03*
X0211000Y0176000D03*
X0201000Y0157250D03*
X0211000Y0151000D03*
X0211000Y0128500D03*
X0189750Y0143500D03*
X0186000Y0126000D03*
X0188500Y0113500D03*
X0188500Y0098500D03*
X0211000Y0094750D03*
X0153500Y0141000D03*
X0161000Y0186000D03*
X0156000Y0211000D03*
X0171000Y0211000D03*
X0181000Y0266000D03*
X0158500Y0281000D03*
X0141000Y0304750D03*
X0141000Y0326000D03*
X0153500Y0326000D03*
X0156000Y0311000D03*
X0181000Y0304750D03*
X0181000Y0326000D03*
X0116000Y0311000D03*
X0101000Y0304750D03*
X0101000Y0326000D03*
X0076000Y0311000D03*
X0061000Y0296000D03*
X0056000Y0296000D03*
X0071000Y0281000D03*
X0061000Y0271000D03*
X0083500Y0279750D03*
X0104750Y0271000D03*
X0066000Y0226000D03*
X0066000Y0221000D03*
X0066000Y0216000D03*
X0061000Y0216000D03*
X0061000Y0221000D03*
X0061000Y0226000D03*
X0056000Y0226000D03*
X0056000Y0221000D03*
X0056000Y0216000D03*
X0051000Y0216000D03*
X0051000Y0221000D03*
X0051000Y0226000D03*
X0046000Y0226000D03*
X0046000Y0221000D03*
X0046000Y0216000D03*
X0041000Y0306000D03*
D16*
X0006000Y0046000D02*
X0006000Y0021000D01*
X0007954Y0021000D01*
X0008274Y0021321D01*
X0011665Y0022725D01*
X0015335Y0022725D01*
X0018726Y0021321D01*
X0019046Y0021000D01*
X0210454Y0021000D01*
X0210774Y0021321D01*
X0214165Y0022725D01*
X0217835Y0022725D01*
X0221226Y0021321D01*
X0221546Y0021000D01*
X0226000Y0021000D01*
X0226000Y0046000D01*
X0006000Y0046000D01*
X0006000Y0045758D02*
X0226000Y0045758D01*
X0226000Y0044160D02*
X0006000Y0044160D01*
X0006000Y0042561D02*
X0226000Y0042561D01*
X0226000Y0040963D02*
X0218680Y0040963D01*
X0218955Y0040823D02*
X0218164Y0041225D01*
X0217320Y0041500D01*
X0216480Y0041633D01*
X0216480Y0036480D01*
X0221633Y0036480D01*
X0221500Y0037320D01*
X0221225Y0038164D01*
X0220823Y0038955D01*
X0220301Y0039673D01*
X0219673Y0040301D01*
X0218955Y0040823D01*
X0220525Y0039364D02*
X0226000Y0039364D01*
X0226000Y0037766D02*
X0221355Y0037766D01*
X0221633Y0035520D02*
X0216480Y0035520D01*
X0216480Y0036480D01*
X0215520Y0036480D01*
X0215520Y0041633D01*
X0214680Y0041500D01*
X0213836Y0041225D01*
X0213045Y0040823D01*
X0212327Y0040301D01*
X0211699Y0039673D01*
X0211177Y0038955D01*
X0210775Y0038164D01*
X0210500Y0037320D01*
X0210367Y0036480D01*
X0215520Y0036480D01*
X0215520Y0035520D01*
X0216480Y0035520D01*
X0216480Y0030367D01*
X0217320Y0030500D01*
X0218164Y0030775D01*
X0218955Y0031177D01*
X0219673Y0031699D01*
X0220301Y0032327D01*
X0220823Y0033045D01*
X0221225Y0033836D01*
X0221500Y0034680D01*
X0221633Y0035520D01*
X0221464Y0034569D02*
X0226000Y0034569D01*
X0226000Y0036167D02*
X0216480Y0036167D01*
X0215520Y0036167D02*
X0111184Y0036167D01*
X0111184Y0036184D02*
X0115753Y0036184D01*
X0115753Y0036374D01*
X0115636Y0037113D01*
X0115405Y0037824D01*
X0115065Y0038491D01*
X0114625Y0039096D01*
X0114096Y0039625D01*
X0113491Y0040065D01*
X0112824Y0040405D01*
X0112113Y0040636D01*
X0111374Y0040753D01*
X0111184Y0040753D01*
X0111184Y0036184D01*
X0110816Y0036184D01*
X0110816Y0035816D01*
X0106247Y0035816D01*
X0106247Y0035626D01*
X0106364Y0034887D01*
X0106595Y0034176D01*
X0106935Y0033509D01*
X0107375Y0032904D01*
X0107904Y0032375D01*
X0108509Y0031935D01*
X0109176Y0031595D01*
X0109887Y0031364D01*
X0110626Y0031247D01*
X0110816Y0031247D01*
X0110816Y0035816D01*
X0111184Y0035816D01*
X0111184Y0031247D01*
X0111374Y0031247D01*
X0112113Y0031364D01*
X0112824Y0031595D01*
X0113491Y0031935D01*
X0114096Y0032375D01*
X0114625Y0032904D01*
X0115065Y0033509D01*
X0115405Y0034176D01*
X0115636Y0034887D01*
X0115753Y0035626D01*
X0115753Y0035816D01*
X0111184Y0035816D01*
X0111184Y0036184D01*
X0110816Y0036184D02*
X0110816Y0040753D01*
X0110626Y0040753D01*
X0109887Y0040636D01*
X0109176Y0040405D01*
X0108509Y0040065D01*
X0107904Y0039625D01*
X0107375Y0039096D01*
X0106935Y0038491D01*
X0106595Y0037824D01*
X0106364Y0037113D01*
X0106247Y0036374D01*
X0106247Y0036184D01*
X0110816Y0036184D01*
X0110816Y0036167D02*
X0055353Y0036167D01*
X0055353Y0036866D02*
X0054690Y0038466D01*
X0053466Y0039690D01*
X0051866Y0040353D01*
X0050134Y0040353D01*
X0048534Y0039690D01*
X0047310Y0038466D01*
X0046647Y0036866D01*
X0046647Y0035134D01*
X0047310Y0033534D01*
X0048534Y0032310D01*
X0050134Y0031647D01*
X0051866Y0031647D01*
X0053466Y0032310D01*
X0054690Y0033534D01*
X0055353Y0035134D01*
X0055353Y0036866D01*
X0054980Y0037766D02*
X0106576Y0037766D01*
X0107643Y0039364D02*
X0053791Y0039364D01*
X0055119Y0034569D02*
X0106468Y0034569D01*
X0107327Y0032970D02*
X0054126Y0032970D01*
X0047874Y0032970D02*
X0020768Y0032970D01*
X0020823Y0033045D02*
X0021225Y0033836D01*
X0021500Y0034680D01*
X0021633Y0035520D01*
X0016480Y0035520D01*
X0016480Y0036480D01*
X0021633Y0036480D01*
X0021500Y0037320D01*
X0021225Y0038164D01*
X0020823Y0038955D01*
X0020301Y0039673D01*
X0019673Y0040301D01*
X0018955Y0040823D01*
X0018164Y0041225D01*
X0017320Y0041500D01*
X0016480Y0041633D01*
X0016480Y0036480D01*
X0015520Y0036480D01*
X0015520Y0041633D01*
X0014680Y0041500D01*
X0013836Y0041225D01*
X0013045Y0040823D01*
X0012327Y0040301D01*
X0011699Y0039673D01*
X0011177Y0038955D01*
X0010775Y0038164D01*
X0010500Y0037320D01*
X0010367Y0036480D01*
X0015520Y0036480D01*
X0015520Y0035520D01*
X0016480Y0035520D01*
X0016480Y0030367D01*
X0017320Y0030500D01*
X0018164Y0030775D01*
X0018955Y0031177D01*
X0019673Y0031699D01*
X0020301Y0032327D01*
X0020823Y0033045D01*
X0021464Y0034569D02*
X0046881Y0034569D01*
X0046647Y0036167D02*
X0016480Y0036167D01*
X0015520Y0036167D02*
X0006000Y0036167D01*
X0006000Y0034569D02*
X0010536Y0034569D01*
X0010500Y0034680D02*
X0010775Y0033836D01*
X0011177Y0033045D01*
X0011699Y0032327D01*
X0012327Y0031699D01*
X0013045Y0031177D01*
X0013836Y0030775D01*
X0014680Y0030500D01*
X0015520Y0030367D01*
X0015520Y0035520D01*
X0010367Y0035520D01*
X0010500Y0034680D01*
X0011232Y0032970D02*
X0006000Y0032970D01*
X0006000Y0031372D02*
X0012777Y0031372D01*
X0015520Y0031372D02*
X0016480Y0031372D01*
X0016480Y0032970D02*
X0015520Y0032970D01*
X0015520Y0034569D02*
X0016480Y0034569D01*
X0016480Y0037766D02*
X0015520Y0037766D01*
X0015520Y0039364D02*
X0016480Y0039364D01*
X0016480Y0040963D02*
X0015520Y0040963D01*
X0013320Y0040963D02*
X0006000Y0040963D01*
X0006000Y0039364D02*
X0011475Y0039364D01*
X0010645Y0037766D02*
X0006000Y0037766D01*
X0006000Y0029773D02*
X0226000Y0029773D01*
X0226000Y0028175D02*
X0006000Y0028175D01*
X0006000Y0026576D02*
X0226000Y0026576D01*
X0226000Y0024978D02*
X0006000Y0024978D01*
X0006000Y0023379D02*
X0226000Y0023379D01*
X0226000Y0021781D02*
X0220115Y0021781D01*
X0219223Y0031372D02*
X0226000Y0031372D01*
X0226000Y0032970D02*
X0220768Y0032970D01*
X0216480Y0032970D02*
X0215520Y0032970D01*
X0215520Y0031372D02*
X0216480Y0031372D01*
X0215520Y0030367D02*
X0215520Y0035520D01*
X0210367Y0035520D01*
X0210500Y0034680D01*
X0210775Y0033836D01*
X0211177Y0033045D01*
X0211699Y0032327D01*
X0212327Y0031699D01*
X0213045Y0031177D01*
X0213836Y0030775D01*
X0214680Y0030500D01*
X0215520Y0030367D01*
X0212777Y0031372D02*
X0112136Y0031372D01*
X0111184Y0031372D02*
X0110816Y0031372D01*
X0109864Y0031372D02*
X0019223Y0031372D01*
X0021355Y0037766D02*
X0047020Y0037766D01*
X0048209Y0039364D02*
X0020525Y0039364D01*
X0018680Y0040963D02*
X0213320Y0040963D01*
X0215520Y0040963D02*
X0216480Y0040963D01*
X0216480Y0039364D02*
X0215520Y0039364D01*
X0215520Y0037766D02*
X0216480Y0037766D01*
X0216480Y0034569D02*
X0215520Y0034569D01*
X0211232Y0032970D02*
X0114673Y0032970D01*
X0115532Y0034569D02*
X0210536Y0034569D01*
X0210645Y0037766D02*
X0115424Y0037766D01*
X0114357Y0039364D02*
X0211475Y0039364D01*
X0214680Y0050500D02*
X0215520Y0050367D01*
X0215520Y0055520D01*
X0216480Y0055520D01*
X0216480Y0056480D01*
X0221633Y0056480D01*
X0221500Y0057320D01*
X0221225Y0058164D01*
X0220823Y0058955D01*
X0220301Y0059673D01*
X0219673Y0060301D01*
X0218955Y0060823D01*
X0218164Y0061225D01*
X0217320Y0061500D01*
X0216480Y0061633D01*
X0216480Y0056480D01*
X0215520Y0056480D01*
X0215520Y0061633D01*
X0214680Y0061500D01*
X0213836Y0061225D01*
X0213045Y0060823D01*
X0212327Y0060301D01*
X0211699Y0059673D01*
X0211177Y0058955D01*
X0210775Y0058164D01*
X0210500Y0057320D01*
X0210367Y0056480D01*
X0215520Y0056480D01*
X0215520Y0055520D01*
X0210367Y0055520D01*
X0210500Y0054680D01*
X0210775Y0053836D01*
X0211177Y0053045D01*
X0211699Y0052327D01*
X0212327Y0051699D01*
X0213045Y0051177D01*
X0213836Y0050775D01*
X0214680Y0050500D01*
X0214515Y0050554D02*
X0041000Y0050554D01*
X0041000Y0049750D02*
X0226000Y0049750D01*
X0226000Y0071000D01*
X0074750Y0071000D01*
X0066000Y0079750D01*
X0066000Y0206000D01*
X0041000Y0206000D01*
X0041000Y0049750D01*
X0041000Y0052152D02*
X0211873Y0052152D01*
X0210818Y0053751D02*
X0041000Y0053751D01*
X0041000Y0055349D02*
X0210394Y0055349D01*
X0210441Y0056948D02*
X0041000Y0056948D01*
X0041000Y0058546D02*
X0210969Y0058546D01*
X0212171Y0060145D02*
X0041000Y0060145D01*
X0041000Y0061743D02*
X0226000Y0061743D01*
X0226000Y0060145D02*
X0219829Y0060145D01*
X0221031Y0058546D02*
X0226000Y0058546D01*
X0226000Y0056948D02*
X0221559Y0056948D01*
X0221633Y0055520D02*
X0216480Y0055520D01*
X0216480Y0050367D01*
X0217320Y0050500D01*
X0218164Y0050775D01*
X0218955Y0051177D01*
X0219673Y0051699D01*
X0220301Y0052327D01*
X0220823Y0053045D01*
X0221225Y0053836D01*
X0221500Y0054680D01*
X0221633Y0055520D01*
X0221606Y0055349D02*
X0226000Y0055349D01*
X0226000Y0053751D02*
X0221182Y0053751D01*
X0220127Y0052152D02*
X0226000Y0052152D01*
X0226000Y0050554D02*
X0217485Y0050554D01*
X0216480Y0050554D02*
X0215520Y0050554D01*
X0215520Y0052152D02*
X0216480Y0052152D01*
X0216480Y0053751D02*
X0215520Y0053751D01*
X0215520Y0055349D02*
X0216480Y0055349D01*
X0216480Y0056948D02*
X0215520Y0056948D01*
X0215520Y0058546D02*
X0216480Y0058546D01*
X0216480Y0060145D02*
X0215520Y0060145D01*
X0226000Y0063342D02*
X0041000Y0063342D01*
X0041000Y0064940D02*
X0226000Y0064940D01*
X0226000Y0066539D02*
X0041000Y0066539D01*
X0041000Y0068137D02*
X0226000Y0068137D01*
X0226000Y0069736D02*
X0041000Y0069736D01*
X0041000Y0071334D02*
X0074416Y0071334D01*
X0072817Y0072933D02*
X0041000Y0072933D01*
X0041000Y0074532D02*
X0071218Y0074532D01*
X0069620Y0076130D02*
X0041000Y0076130D01*
X0041000Y0077729D02*
X0068021Y0077729D01*
X0066423Y0079327D02*
X0041000Y0079327D01*
X0041000Y0080926D02*
X0066000Y0080926D01*
X0066000Y0082524D02*
X0041000Y0082524D01*
X0041000Y0084123D02*
X0066000Y0084123D01*
X0066000Y0085721D02*
X0041000Y0085721D01*
X0041000Y0087320D02*
X0066000Y0087320D01*
X0066000Y0088918D02*
X0041000Y0088918D01*
X0041000Y0090517D02*
X0066000Y0090517D01*
X0066000Y0092115D02*
X0041000Y0092115D01*
X0041000Y0093714D02*
X0066000Y0093714D01*
X0066000Y0095312D02*
X0041000Y0095312D01*
X0041000Y0096911D02*
X0066000Y0096911D01*
X0066000Y0098509D02*
X0041000Y0098509D01*
X0041000Y0100108D02*
X0066000Y0100108D01*
X0066000Y0101706D02*
X0041000Y0101706D01*
X0041000Y0103305D02*
X0066000Y0103305D01*
X0066000Y0104903D02*
X0041000Y0104903D01*
X0041000Y0106502D02*
X0066000Y0106502D01*
X0066000Y0108100D02*
X0041000Y0108100D01*
X0041000Y0109699D02*
X0066000Y0109699D01*
X0066000Y0111297D02*
X0041000Y0111297D01*
X0041000Y0112896D02*
X0066000Y0112896D01*
X0066000Y0114494D02*
X0041000Y0114494D01*
X0041000Y0116093D02*
X0066000Y0116093D01*
X0066000Y0117691D02*
X0041000Y0117691D01*
X0041000Y0119290D02*
X0066000Y0119290D01*
X0066000Y0120888D02*
X0041000Y0120888D01*
X0041000Y0122487D02*
X0066000Y0122487D01*
X0066000Y0124085D02*
X0041000Y0124085D01*
X0041000Y0125684D02*
X0066000Y0125684D01*
X0066000Y0127282D02*
X0041000Y0127282D01*
X0041000Y0128881D02*
X0066000Y0128881D01*
X0066000Y0130479D02*
X0041000Y0130479D01*
X0041000Y0132078D02*
X0066000Y0132078D01*
X0066000Y0133676D02*
X0041000Y0133676D01*
X0041000Y0135275D02*
X0066000Y0135275D01*
X0066000Y0136873D02*
X0041000Y0136873D01*
X0041000Y0138472D02*
X0066000Y0138472D01*
X0066000Y0140070D02*
X0041000Y0140070D01*
X0041000Y0141669D02*
X0050082Y0141669D01*
X0050134Y0141647D02*
X0051866Y0141647D01*
X0053466Y0142310D01*
X0054690Y0143534D01*
X0055353Y0145134D01*
X0055353Y0146866D01*
X0054690Y0148466D01*
X0053466Y0149690D01*
X0051866Y0150353D01*
X0050134Y0150353D01*
X0048534Y0149690D01*
X0047310Y0148466D01*
X0046647Y0146866D01*
X0046647Y0145134D01*
X0047310Y0143534D01*
X0048534Y0142310D01*
X0050134Y0141647D01*
X0051918Y0141669D02*
X0066000Y0141669D01*
X0066000Y0143268D02*
X0054423Y0143268D01*
X0055242Y0144866D02*
X0066000Y0144866D01*
X0066000Y0146465D02*
X0055353Y0146465D01*
X0054857Y0148063D02*
X0066000Y0148063D01*
X0066000Y0149662D02*
X0053494Y0149662D01*
X0048506Y0149662D02*
X0041000Y0149662D01*
X0041000Y0151260D02*
X0066000Y0151260D01*
X0066000Y0152859D02*
X0041000Y0152859D01*
X0041000Y0154457D02*
X0066000Y0154457D01*
X0066000Y0156056D02*
X0041000Y0156056D01*
X0041000Y0157654D02*
X0066000Y0157654D01*
X0066000Y0159253D02*
X0041000Y0159253D01*
X0041000Y0160851D02*
X0066000Y0160851D01*
X0066000Y0162450D02*
X0041000Y0162450D01*
X0041000Y0164048D02*
X0066000Y0164048D01*
X0066000Y0165647D02*
X0041000Y0165647D01*
X0041000Y0167245D02*
X0066000Y0167245D01*
X0066000Y0168844D02*
X0041000Y0168844D01*
X0041000Y0170442D02*
X0066000Y0170442D01*
X0066000Y0172041D02*
X0041000Y0172041D01*
X0041000Y0173639D02*
X0066000Y0173639D01*
X0066000Y0175238D02*
X0041000Y0175238D01*
X0041000Y0176836D02*
X0066000Y0176836D01*
X0066000Y0178435D02*
X0041000Y0178435D01*
X0041000Y0180033D02*
X0066000Y0180033D01*
X0066000Y0181632D02*
X0041000Y0181632D01*
X0041000Y0183230D02*
X0066000Y0183230D01*
X0066000Y0184829D02*
X0041000Y0184829D01*
X0041000Y0186427D02*
X0066000Y0186427D01*
X0066000Y0188026D02*
X0041000Y0188026D01*
X0041000Y0189624D02*
X0066000Y0189624D01*
X0066000Y0191223D02*
X0052559Y0191223D01*
X0052929Y0191343D02*
X0053634Y0191702D01*
X0054274Y0192167D01*
X0054833Y0192726D01*
X0055298Y0193366D01*
X0055657Y0194071D01*
X0055901Y0194823D01*
X0056025Y0195605D01*
X0056025Y0195725D01*
X0051275Y0195725D01*
X0051275Y0196275D01*
X0056025Y0196275D01*
X0056025Y0196395D01*
X0055901Y0197177D01*
X0055657Y0197929D01*
X0055298Y0198634D01*
X0054833Y0199274D01*
X0054274Y0199833D01*
X0053634Y0200298D01*
X0052929Y0200657D01*
X0052177Y0200901D01*
X0051395Y0201025D01*
X0051275Y0201025D01*
X0051275Y0196275D01*
X0050725Y0196275D01*
X0050725Y0201025D01*
X0050605Y0201025D01*
X0049823Y0200901D01*
X0049071Y0200657D01*
X0048366Y0200298D01*
X0047726Y0199833D01*
X0047167Y0199274D01*
X0046702Y0198634D01*
X0046343Y0197929D01*
X0046099Y0197177D01*
X0045975Y0196395D01*
X0045975Y0196275D01*
X0050725Y0196275D01*
X0050725Y0195725D01*
X0051275Y0195725D01*
X0051275Y0190975D01*
X0051395Y0190975D01*
X0052177Y0191099D01*
X0052929Y0191343D01*
X0051275Y0191223D02*
X0050725Y0191223D01*
X0050725Y0190975D02*
X0050725Y0195725D01*
X0045975Y0195725D01*
X0045975Y0195605D01*
X0046099Y0194823D01*
X0046343Y0194071D01*
X0046702Y0193366D01*
X0047167Y0192726D01*
X0047726Y0192167D01*
X0048366Y0191702D01*
X0049071Y0191343D01*
X0049823Y0191099D01*
X0050605Y0190975D01*
X0050725Y0190975D01*
X0049441Y0191223D02*
X0041000Y0191223D01*
X0041000Y0192821D02*
X0047098Y0192821D01*
X0046230Y0194420D02*
X0041000Y0194420D01*
X0041000Y0196018D02*
X0050725Y0196018D01*
X0051275Y0196018D02*
X0066000Y0196018D01*
X0066000Y0194420D02*
X0055770Y0194420D01*
X0054902Y0192821D02*
X0066000Y0192821D01*
X0066000Y0197617D02*
X0055758Y0197617D01*
X0054875Y0199215D02*
X0066000Y0199215D01*
X0066000Y0200814D02*
X0052445Y0200814D01*
X0051275Y0200814D02*
X0050725Y0200814D01*
X0049555Y0200814D02*
X0041000Y0200814D01*
X0041000Y0202412D02*
X0066000Y0202412D01*
X0066000Y0204011D02*
X0041000Y0204011D01*
X0041000Y0205609D02*
X0066000Y0205609D01*
X0071000Y0205609D02*
X0116000Y0205609D01*
X0116000Y0204011D02*
X0071000Y0204011D01*
X0071000Y0202412D02*
X0116000Y0202412D01*
X0116000Y0200814D02*
X0071000Y0200814D01*
X0071000Y0199215D02*
X0087958Y0199215D01*
X0088117Y0199375D02*
X0087625Y0198883D01*
X0087215Y0198319D01*
X0086899Y0197699D01*
X0086684Y0197036D01*
X0086575Y0196348D01*
X0086575Y0196075D01*
X0090925Y0196075D01*
X0090925Y0200425D01*
X0090652Y0200425D01*
X0089964Y0200316D01*
X0089301Y0200101D01*
X0088681Y0199785D01*
X0088117Y0199375D01*
X0086873Y0197617D02*
X0071000Y0197617D01*
X0071000Y0196018D02*
X0090925Y0196018D01*
X0090925Y0196075D02*
X0090925Y0195925D01*
X0091075Y0195925D01*
X0091075Y0196075D01*
X0095425Y0196075D01*
X0095425Y0196348D01*
X0095316Y0197036D01*
X0095101Y0197699D01*
X0094785Y0198319D01*
X0094375Y0198883D01*
X0093883Y0199375D01*
X0093319Y0199785D01*
X0092699Y0200101D01*
X0092036Y0200316D01*
X0091348Y0200425D01*
X0091075Y0200425D01*
X0091075Y0196075D01*
X0090925Y0196075D01*
X0090925Y0195925D02*
X0086575Y0195925D01*
X0086575Y0195652D01*
X0086684Y0194964D01*
X0086899Y0194301D01*
X0087215Y0193681D01*
X0087625Y0193117D01*
X0088117Y0192625D01*
X0088681Y0192215D01*
X0089301Y0191899D01*
X0089964Y0191684D01*
X0090652Y0191575D01*
X0090925Y0191575D01*
X0090925Y0195925D01*
X0091075Y0195925D02*
X0091075Y0191575D01*
X0091348Y0191575D01*
X0092036Y0191684D01*
X0092699Y0191899D01*
X0093319Y0192215D01*
X0093883Y0192625D01*
X0094375Y0193117D01*
X0094785Y0193681D01*
X0095101Y0194301D01*
X0095316Y0194964D01*
X0095425Y0195652D01*
X0095425Y0195925D01*
X0091075Y0195925D01*
X0091075Y0196018D02*
X0116000Y0196018D01*
X0116000Y0196000D02*
X0111000Y0191000D01*
X0071000Y0191000D01*
X0071000Y0211000D01*
X0006000Y0211000D01*
X0006000Y0337954D01*
X0008274Y0335679D01*
X0011665Y0334275D01*
X0015335Y0334275D01*
X0018726Y0335679D01*
X0021321Y0338274D01*
X0022725Y0341665D01*
X0022725Y0345335D01*
X0021321Y0348726D01*
X0019046Y0351000D01*
X0212954Y0351000D01*
X0210679Y0348726D01*
X0209275Y0345335D01*
X0209275Y0341665D01*
X0210679Y0338274D01*
X0213274Y0335679D01*
X0216665Y0334275D01*
X0220335Y0334275D01*
X0223726Y0335679D01*
X0226000Y0337954D01*
X0226000Y0139750D01*
X0204750Y0139750D01*
X0194250Y0129250D01*
X0194250Y0125750D01*
X0190250Y0121750D01*
X0182250Y0121750D01*
X0178000Y0126000D01*
X0178500Y0227250D01*
X0182250Y0231000D01*
X0186000Y0231000D01*
X0191000Y0236000D01*
X0191000Y0254750D01*
X0178500Y0266000D01*
X0178500Y0311000D01*
X0187250Y0319750D01*
X0187250Y0331000D01*
X0168500Y0331000D01*
X0162542Y0325042D01*
X0161860Y0325325D01*
X0160140Y0325325D01*
X0158550Y0324667D01*
X0157333Y0323450D01*
X0156675Y0321860D01*
X0156675Y0320140D01*
X0156958Y0319458D01*
X0146000Y0308500D01*
X0146000Y0299750D01*
X0137250Y0299750D01*
X0134750Y0302250D01*
X0134750Y0304750D01*
X0149750Y0319750D01*
X0149750Y0337250D01*
X0043500Y0337250D01*
X0033500Y0327250D01*
X0033500Y0304750D01*
X0038500Y0299750D01*
X0062250Y0299750D01*
X0066000Y0296000D01*
X0066000Y0291000D01*
X0061000Y0286000D01*
X0061000Y0278500D01*
X0068500Y0271000D01*
X0091000Y0271000D01*
X0096000Y0276000D01*
X0096000Y0308500D01*
X0098500Y0311000D01*
X0103500Y0311000D01*
X0106000Y0308500D01*
X0106000Y0286000D01*
X0114750Y0277250D01*
X0139750Y0277250D01*
X0147250Y0269750D01*
X0147250Y0238500D01*
X0138500Y0229750D01*
X0122250Y0229750D01*
X0116000Y0223500D01*
X0116000Y0196000D01*
X0116000Y0197617D02*
X0095127Y0197617D01*
X0094042Y0199215D02*
X0116000Y0199215D01*
X0114420Y0194420D02*
X0095139Y0194420D01*
X0094079Y0192821D02*
X0112821Y0192821D01*
X0111223Y0191223D02*
X0071000Y0191223D01*
X0071000Y0192821D02*
X0087921Y0192821D01*
X0086861Y0194420D02*
X0071000Y0194420D01*
X0071000Y0187250D02*
X0112250Y0187250D01*
X0119750Y0194750D01*
X0119750Y0222250D01*
X0123500Y0226000D01*
X0141000Y0226000D01*
X0151000Y0236000D01*
X0151000Y0271000D01*
X0141000Y0281000D01*
X0117250Y0281000D01*
X0109750Y0288500D01*
X0109750Y0309750D01*
X0104750Y0314750D01*
X0097250Y0314750D01*
X0092250Y0309750D01*
X0092250Y0277250D01*
X0089750Y0274750D01*
X0069750Y0274750D01*
X0064750Y0279750D01*
X0064750Y0284750D01*
X0069750Y0289750D01*
X0069750Y0297250D01*
X0063500Y0303500D01*
X0041000Y0303500D01*
X0037250Y0307250D01*
X0037250Y0326000D01*
X0044750Y0333500D01*
X0146000Y0333500D01*
X0146000Y0321000D01*
X0131000Y0306000D01*
X0131000Y0301000D01*
X0136000Y0296000D01*
X0149750Y0296000D01*
X0149750Y0307250D01*
X0159458Y0316958D01*
X0160140Y0316675D01*
X0161860Y0316675D01*
X0163450Y0317333D01*
X0164667Y0318550D01*
X0165325Y0320140D01*
X0165325Y0321860D01*
X0165042Y0322542D01*
X0171000Y0328500D01*
X0183500Y0328500D01*
X0183500Y0321000D01*
X0174750Y0312250D01*
X0174750Y0264750D01*
X0187250Y0253500D01*
X0187250Y0237250D01*
X0184750Y0234750D01*
X0181000Y0234750D01*
X0174750Y0228500D01*
X0174750Y0124000D01*
X0181000Y0118000D01*
X0191000Y0118000D01*
X0198000Y0124500D01*
X0198000Y0128000D01*
X0206000Y0136000D01*
X0226000Y0136000D01*
X0226000Y0076000D01*
X0121000Y0076000D01*
X0121000Y0141000D01*
X0071000Y0141000D01*
X0071000Y0187250D01*
X0071000Y0186427D02*
X0174750Y0186427D01*
X0174750Y0184829D02*
X0071000Y0184829D01*
X0071000Y0183230D02*
X0174750Y0183230D01*
X0174750Y0181632D02*
X0071000Y0181632D01*
X0071000Y0180033D02*
X0174750Y0180033D01*
X0174750Y0178435D02*
X0071000Y0178435D01*
X0071000Y0176836D02*
X0174750Y0176836D01*
X0174750Y0175238D02*
X0071000Y0175238D01*
X0071000Y0173639D02*
X0174750Y0173639D01*
X0174750Y0172041D02*
X0071000Y0172041D01*
X0071000Y0170442D02*
X0174750Y0170442D01*
X0174750Y0168844D02*
X0071000Y0168844D01*
X0071000Y0167245D02*
X0174750Y0167245D01*
X0174750Y0165647D02*
X0071000Y0165647D01*
X0071000Y0164048D02*
X0174750Y0164048D01*
X0174750Y0162450D02*
X0071000Y0162450D01*
X0071000Y0160851D02*
X0174750Y0160851D01*
X0174750Y0159253D02*
X0071000Y0159253D01*
X0071000Y0157654D02*
X0174750Y0157654D01*
X0174750Y0156056D02*
X0071000Y0156056D01*
X0071000Y0154457D02*
X0174750Y0154457D01*
X0174750Y0152859D02*
X0071000Y0152859D01*
X0071000Y0151260D02*
X0174750Y0151260D01*
X0174750Y0149662D02*
X0084046Y0149662D01*
X0084096Y0149625D02*
X0083491Y0150065D01*
X0082824Y0150405D01*
X0082113Y0150636D01*
X0081374Y0150753D01*
X0081184Y0150753D01*
X0081184Y0146184D01*
X0080816Y0146184D01*
X0080816Y0145816D01*
X0076247Y0145816D01*
X0076247Y0145626D01*
X0076364Y0144887D01*
X0076595Y0144176D01*
X0076935Y0143509D01*
X0077375Y0142904D01*
X0077904Y0142375D01*
X0078509Y0141935D01*
X0079176Y0141595D01*
X0079887Y0141364D01*
X0080626Y0141247D01*
X0080816Y0141247D01*
X0080816Y0145816D01*
X0081184Y0145816D01*
X0081184Y0141247D01*
X0081374Y0141247D01*
X0082113Y0141364D01*
X0082824Y0141595D01*
X0083491Y0141935D01*
X0084096Y0142375D01*
X0084625Y0142904D01*
X0085065Y0143509D01*
X0085405Y0144176D01*
X0085636Y0144887D01*
X0085753Y0145626D01*
X0085753Y0145816D01*
X0081184Y0145816D01*
X0081184Y0146184D01*
X0085753Y0146184D01*
X0085753Y0146374D01*
X0085636Y0147113D01*
X0085405Y0147824D01*
X0085065Y0148491D01*
X0084625Y0149096D01*
X0084096Y0149625D01*
X0085283Y0148063D02*
X0174750Y0148063D01*
X0174750Y0146465D02*
X0085738Y0146465D01*
X0085629Y0144866D02*
X0174750Y0144866D01*
X0174750Y0143268D02*
X0084889Y0143268D01*
X0082969Y0141669D02*
X0174750Y0141669D01*
X0174750Y0140070D02*
X0121000Y0140070D01*
X0121000Y0138472D02*
X0174750Y0138472D01*
X0174750Y0136873D02*
X0121000Y0136873D01*
X0121000Y0135275D02*
X0174750Y0135275D01*
X0174750Y0133676D02*
X0121000Y0133676D01*
X0121000Y0132078D02*
X0174750Y0132078D01*
X0174750Y0130479D02*
X0121000Y0130479D01*
X0121000Y0128881D02*
X0174750Y0128881D01*
X0174750Y0127282D02*
X0121000Y0127282D01*
X0121000Y0125684D02*
X0174750Y0125684D01*
X0174750Y0124085D02*
X0121000Y0124085D01*
X0121000Y0122487D02*
X0176326Y0122487D01*
X0177991Y0120888D02*
X0121000Y0120888D01*
X0121000Y0119290D02*
X0179656Y0119290D01*
X0181513Y0122487D02*
X0190987Y0122487D01*
X0192585Y0124085D02*
X0179915Y0124085D01*
X0178316Y0125684D02*
X0194184Y0125684D01*
X0194250Y0127282D02*
X0178006Y0127282D01*
X0178014Y0128881D02*
X0194250Y0128881D01*
X0195479Y0130479D02*
X0178022Y0130479D01*
X0178030Y0132078D02*
X0197078Y0132078D01*
X0198676Y0133676D02*
X0178038Y0133676D01*
X0178046Y0135275D02*
X0200275Y0135275D01*
X0201873Y0136873D02*
X0178054Y0136873D01*
X0178062Y0138472D02*
X0203472Y0138472D01*
X0205275Y0135275D02*
X0226000Y0135275D01*
X0226000Y0133676D02*
X0203676Y0133676D01*
X0202078Y0132078D02*
X0226000Y0132078D01*
X0226000Y0130479D02*
X0200479Y0130479D01*
X0198881Y0128881D02*
X0226000Y0128881D01*
X0226000Y0127282D02*
X0198000Y0127282D01*
X0198000Y0125684D02*
X0226000Y0125684D01*
X0226000Y0124085D02*
X0197553Y0124085D01*
X0195832Y0122487D02*
X0226000Y0122487D01*
X0226000Y0120888D02*
X0194111Y0120888D01*
X0192389Y0119290D02*
X0226000Y0119290D01*
X0226000Y0117691D02*
X0121000Y0117691D01*
X0121000Y0116093D02*
X0226000Y0116093D01*
X0226000Y0114494D02*
X0121000Y0114494D01*
X0121000Y0112896D02*
X0226000Y0112896D01*
X0226000Y0111297D02*
X0121000Y0111297D01*
X0121000Y0109699D02*
X0226000Y0109699D01*
X0226000Y0108100D02*
X0121000Y0108100D01*
X0121000Y0106502D02*
X0226000Y0106502D01*
X0226000Y0104903D02*
X0121000Y0104903D01*
X0121000Y0103305D02*
X0226000Y0103305D01*
X0226000Y0101706D02*
X0121000Y0101706D01*
X0121000Y0100108D02*
X0226000Y0100108D01*
X0226000Y0098509D02*
X0121000Y0098509D01*
X0121000Y0096911D02*
X0226000Y0096911D01*
X0226000Y0095312D02*
X0121000Y0095312D01*
X0121000Y0093714D02*
X0226000Y0093714D01*
X0226000Y0092115D02*
X0121000Y0092115D01*
X0121000Y0090517D02*
X0226000Y0090517D01*
X0226000Y0088918D02*
X0121000Y0088918D01*
X0121000Y0087320D02*
X0226000Y0087320D01*
X0226000Y0085721D02*
X0121000Y0085721D01*
X0121000Y0084123D02*
X0226000Y0084123D01*
X0226000Y0082524D02*
X0121000Y0082524D01*
X0121000Y0080926D02*
X0226000Y0080926D01*
X0226000Y0079327D02*
X0121000Y0079327D01*
X0121000Y0077729D02*
X0226000Y0077729D01*
X0226000Y0076130D02*
X0121000Y0076130D01*
X0111184Y0039364D02*
X0110816Y0039364D01*
X0110816Y0037766D02*
X0111184Y0037766D01*
X0111184Y0034569D02*
X0110816Y0034569D01*
X0110816Y0032970D02*
X0111184Y0032970D01*
X0081184Y0141669D02*
X0080816Y0141669D01*
X0080816Y0143268D02*
X0081184Y0143268D01*
X0081184Y0144866D02*
X0080816Y0144866D01*
X0080816Y0146184D02*
X0076247Y0146184D01*
X0076247Y0146374D01*
X0076364Y0147113D01*
X0076595Y0147824D01*
X0076935Y0148491D01*
X0077375Y0149096D01*
X0077904Y0149625D01*
X0078509Y0150065D01*
X0079176Y0150405D01*
X0079887Y0150636D01*
X0080626Y0150753D01*
X0080816Y0150753D01*
X0080816Y0146184D01*
X0080816Y0146465D02*
X0081184Y0146465D01*
X0081184Y0148063D02*
X0080816Y0148063D01*
X0080816Y0149662D02*
X0081184Y0149662D01*
X0077954Y0149662D02*
X0071000Y0149662D01*
X0071000Y0148063D02*
X0076717Y0148063D01*
X0076262Y0146465D02*
X0071000Y0146465D01*
X0071000Y0144866D02*
X0076371Y0144866D01*
X0077111Y0143268D02*
X0071000Y0143268D01*
X0071000Y0141669D02*
X0079031Y0141669D01*
X0047577Y0143268D02*
X0041000Y0143268D01*
X0041000Y0144866D02*
X0046758Y0144866D01*
X0046647Y0146465D02*
X0041000Y0146465D01*
X0041000Y0148063D02*
X0047143Y0148063D01*
X0036000Y0148063D02*
X0006000Y0148063D01*
X0006000Y0146465D02*
X0036000Y0146465D01*
X0036000Y0144866D02*
X0006000Y0144866D01*
X0006000Y0143268D02*
X0036000Y0143268D01*
X0036000Y0141669D02*
X0006000Y0141669D01*
X0006000Y0140070D02*
X0036000Y0140070D01*
X0036000Y0138472D02*
X0006000Y0138472D01*
X0006000Y0136873D02*
X0036000Y0136873D01*
X0036000Y0135275D02*
X0006000Y0135275D01*
X0006000Y0133676D02*
X0036000Y0133676D01*
X0036000Y0132078D02*
X0006000Y0132078D01*
X0006000Y0130479D02*
X0036000Y0130479D01*
X0036000Y0128881D02*
X0006000Y0128881D01*
X0006000Y0127282D02*
X0036000Y0127282D01*
X0036000Y0125684D02*
X0006000Y0125684D01*
X0006000Y0124085D02*
X0036000Y0124085D01*
X0036000Y0122487D02*
X0006000Y0122487D01*
X0006000Y0120888D02*
X0036000Y0120888D01*
X0036000Y0119290D02*
X0006000Y0119290D01*
X0006000Y0117691D02*
X0036000Y0117691D01*
X0036000Y0116093D02*
X0006000Y0116093D01*
X0006000Y0114494D02*
X0036000Y0114494D01*
X0036000Y0112896D02*
X0006000Y0112896D01*
X0006000Y0111297D02*
X0036000Y0111297D01*
X0036000Y0109699D02*
X0006000Y0109699D01*
X0006000Y0108100D02*
X0036000Y0108100D01*
X0036000Y0106502D02*
X0006000Y0106502D01*
X0006000Y0104903D02*
X0036000Y0104903D01*
X0036000Y0103305D02*
X0006000Y0103305D01*
X0006000Y0101706D02*
X0036000Y0101706D01*
X0036000Y0100108D02*
X0006000Y0100108D01*
X0006000Y0098509D02*
X0036000Y0098509D01*
X0036000Y0096911D02*
X0006000Y0096911D01*
X0006000Y0095312D02*
X0036000Y0095312D01*
X0036000Y0093714D02*
X0006000Y0093714D01*
X0006000Y0092250D02*
X0006000Y0206000D01*
X0036000Y0206000D01*
X0036000Y0092250D01*
X0006000Y0092250D01*
X0006000Y0088500D02*
X0006000Y0049750D01*
X0024750Y0049750D01*
X0036000Y0061000D01*
X0036000Y0088500D01*
X0006000Y0088500D01*
X0006000Y0087320D02*
X0036000Y0087320D01*
X0036000Y0085721D02*
X0006000Y0085721D01*
X0006000Y0084123D02*
X0036000Y0084123D01*
X0036000Y0082524D02*
X0006000Y0082524D01*
X0006000Y0080926D02*
X0036000Y0080926D01*
X0036000Y0079327D02*
X0006000Y0079327D01*
X0006000Y0077729D02*
X0036000Y0077729D01*
X0036000Y0076130D02*
X0006000Y0076130D01*
X0006000Y0074532D02*
X0036000Y0074532D01*
X0036000Y0072933D02*
X0006000Y0072933D01*
X0006000Y0071334D02*
X0036000Y0071334D01*
X0036000Y0069736D02*
X0006000Y0069736D01*
X0006000Y0068137D02*
X0036000Y0068137D01*
X0036000Y0066539D02*
X0006000Y0066539D01*
X0006000Y0064940D02*
X0036000Y0064940D01*
X0036000Y0063342D02*
X0006000Y0063342D01*
X0006000Y0061743D02*
X0036000Y0061743D01*
X0035145Y0060145D02*
X0019829Y0060145D01*
X0019673Y0060301D02*
X0018955Y0060823D01*
X0018164Y0061225D01*
X0017320Y0061500D01*
X0016480Y0061633D01*
X0016480Y0056480D01*
X0021633Y0056480D01*
X0021500Y0057320D01*
X0021225Y0058164D01*
X0020823Y0058955D01*
X0020301Y0059673D01*
X0019673Y0060301D01*
X0021031Y0058546D02*
X0033546Y0058546D01*
X0031948Y0056948D02*
X0021559Y0056948D01*
X0021633Y0055520D02*
X0016480Y0055520D01*
X0016480Y0056480D01*
X0015520Y0056480D01*
X0015520Y0061633D01*
X0014680Y0061500D01*
X0013836Y0061225D01*
X0013045Y0060823D01*
X0012327Y0060301D01*
X0011699Y0059673D01*
X0011177Y0058955D01*
X0010775Y0058164D01*
X0010500Y0057320D01*
X0010367Y0056480D01*
X0015520Y0056480D01*
X0015520Y0055520D01*
X0016480Y0055520D01*
X0016480Y0050367D01*
X0017320Y0050500D01*
X0018164Y0050775D01*
X0018955Y0051177D01*
X0019673Y0051699D01*
X0020301Y0052327D01*
X0020823Y0053045D01*
X0021225Y0053836D01*
X0021500Y0054680D01*
X0021633Y0055520D01*
X0021606Y0055349D02*
X0030349Y0055349D01*
X0028751Y0053751D02*
X0021182Y0053751D01*
X0020127Y0052152D02*
X0027152Y0052152D01*
X0025554Y0050554D02*
X0017485Y0050554D01*
X0016480Y0050554D02*
X0015520Y0050554D01*
X0015520Y0050367D02*
X0015520Y0055520D01*
X0010367Y0055520D01*
X0010500Y0054680D01*
X0010775Y0053836D01*
X0011177Y0053045D01*
X0011699Y0052327D01*
X0012327Y0051699D01*
X0013045Y0051177D01*
X0013836Y0050775D01*
X0014680Y0050500D01*
X0015520Y0050367D01*
X0014515Y0050554D02*
X0006000Y0050554D01*
X0006000Y0052152D02*
X0011873Y0052152D01*
X0010818Y0053751D02*
X0006000Y0053751D01*
X0006000Y0055349D02*
X0010394Y0055349D01*
X0010441Y0056948D02*
X0006000Y0056948D01*
X0006000Y0058546D02*
X0010969Y0058546D01*
X0012171Y0060145D02*
X0006000Y0060145D01*
X0015520Y0060145D02*
X0016480Y0060145D01*
X0016480Y0058546D02*
X0015520Y0058546D01*
X0015520Y0056948D02*
X0016480Y0056948D01*
X0016480Y0055349D02*
X0015520Y0055349D01*
X0015520Y0053751D02*
X0016480Y0053751D01*
X0016480Y0052152D02*
X0015520Y0052152D01*
X0017615Y0021781D02*
X0211885Y0021781D01*
X0226000Y0140070D02*
X0178069Y0140070D01*
X0178077Y0141669D02*
X0186849Y0141669D01*
X0186884Y0141585D02*
X0187835Y0140634D01*
X0189077Y0140119D01*
X0190423Y0140119D01*
X0191665Y0140634D01*
X0192616Y0141585D01*
X0193131Y0142827D01*
X0193131Y0144173D01*
X0192616Y0145415D01*
X0191950Y0146082D01*
X0191950Y0153839D01*
X0210730Y0172619D01*
X0211673Y0172619D01*
X0212915Y0173134D01*
X0213866Y0174085D01*
X0214381Y0175327D01*
X0214381Y0176673D01*
X0213866Y0177915D01*
X0212915Y0178866D01*
X0211673Y0179381D01*
X0210327Y0179381D01*
X0209085Y0178866D01*
X0208134Y0177915D01*
X0207619Y0176673D01*
X0207619Y0175730D01*
X0188839Y0156950D01*
X0187550Y0155661D01*
X0187550Y0146082D01*
X0186884Y0145415D01*
X0186369Y0144173D01*
X0186369Y0142827D01*
X0186884Y0141585D01*
X0186369Y0143268D02*
X0178085Y0143268D01*
X0178093Y0144866D02*
X0186656Y0144866D01*
X0187550Y0146465D02*
X0178101Y0146465D01*
X0178109Y0148063D02*
X0187550Y0148063D01*
X0187550Y0149662D02*
X0178117Y0149662D01*
X0178125Y0151260D02*
X0187550Y0151260D01*
X0187550Y0152859D02*
X0178133Y0152859D01*
X0178141Y0154457D02*
X0187550Y0154457D01*
X0187944Y0156056D02*
X0178148Y0156056D01*
X0178156Y0157654D02*
X0189543Y0157654D01*
X0191141Y0159253D02*
X0178164Y0159253D01*
X0178172Y0160851D02*
X0192740Y0160851D01*
X0194338Y0162450D02*
X0178180Y0162450D01*
X0178188Y0164048D02*
X0195937Y0164048D01*
X0197535Y0165647D02*
X0178196Y0165647D01*
X0178204Y0167245D02*
X0199134Y0167245D01*
X0200732Y0168844D02*
X0178212Y0168844D01*
X0178219Y0170442D02*
X0202331Y0170442D01*
X0203929Y0172041D02*
X0178227Y0172041D01*
X0178235Y0173639D02*
X0205528Y0173639D01*
X0207126Y0175238D02*
X0178243Y0175238D01*
X0178251Y0176836D02*
X0207687Y0176836D01*
X0208653Y0178435D02*
X0178259Y0178435D01*
X0178267Y0180033D02*
X0226000Y0180033D01*
X0226000Y0178435D02*
X0213347Y0178435D01*
X0214313Y0176836D02*
X0226000Y0176836D01*
X0226000Y0175238D02*
X0214344Y0175238D01*
X0213421Y0173639D02*
X0226000Y0173639D01*
X0226000Y0172041D02*
X0210152Y0172041D01*
X0208553Y0170442D02*
X0226000Y0170442D01*
X0226000Y0168844D02*
X0206955Y0168844D01*
X0205356Y0167245D02*
X0226000Y0167245D01*
X0226000Y0165647D02*
X0203758Y0165647D01*
X0202159Y0164048D02*
X0226000Y0164048D01*
X0226000Y0162450D02*
X0200561Y0162450D01*
X0198962Y0160851D02*
X0226000Y0160851D01*
X0226000Y0159253D02*
X0197364Y0159253D01*
X0195765Y0157654D02*
X0226000Y0157654D01*
X0226000Y0156056D02*
X0194167Y0156056D01*
X0192568Y0154457D02*
X0226000Y0154457D01*
X0226000Y0152859D02*
X0191950Y0152859D01*
X0191950Y0151260D02*
X0226000Y0151260D01*
X0226000Y0149662D02*
X0191950Y0149662D01*
X0191950Y0148063D02*
X0226000Y0148063D01*
X0226000Y0146465D02*
X0191950Y0146465D01*
X0192844Y0144866D02*
X0226000Y0144866D01*
X0226000Y0143268D02*
X0193131Y0143268D01*
X0192651Y0141669D02*
X0226000Y0141669D01*
X0211000Y0176000D02*
X0189750Y0154750D01*
X0189750Y0143824D01*
X0189750Y0143500D01*
X0189750Y0143824D02*
X0189780Y0143853D01*
X0178275Y0181632D02*
X0226000Y0181632D01*
X0226000Y0183230D02*
X0178283Y0183230D01*
X0178291Y0184829D02*
X0226000Y0184829D01*
X0226000Y0186427D02*
X0178298Y0186427D01*
X0178306Y0188026D02*
X0226000Y0188026D01*
X0226000Y0189624D02*
X0178314Y0189624D01*
X0178322Y0191223D02*
X0226000Y0191223D01*
X0226000Y0192821D02*
X0178330Y0192821D01*
X0178338Y0194420D02*
X0226000Y0194420D01*
X0226000Y0196018D02*
X0178346Y0196018D01*
X0178354Y0197617D02*
X0226000Y0197617D01*
X0226000Y0199215D02*
X0178362Y0199215D01*
X0178369Y0200814D02*
X0226000Y0200814D01*
X0226000Y0202412D02*
X0178377Y0202412D01*
X0178385Y0204011D02*
X0188207Y0204011D01*
X0188134Y0204085D02*
X0189085Y0203134D01*
X0190327Y0202619D01*
X0191673Y0202619D01*
X0192915Y0203134D01*
X0193866Y0204085D01*
X0194381Y0205327D01*
X0194381Y0206270D01*
X0203200Y0215089D01*
X0203200Y0245089D01*
X0206437Y0248326D01*
X0206559Y0248033D01*
X0208033Y0246559D01*
X0209382Y0246000D01*
X0208033Y0245441D01*
X0206559Y0243967D01*
X0205761Y0242042D01*
X0205761Y0239958D01*
X0206559Y0238033D01*
X0208033Y0236559D01*
X0209382Y0236000D01*
X0208033Y0235441D01*
X0206559Y0233967D01*
X0205761Y0232042D01*
X0205761Y0229958D01*
X0206559Y0228033D01*
X0208033Y0226559D01*
X0209958Y0225761D01*
X0212042Y0225761D01*
X0213967Y0226559D01*
X0215441Y0228033D01*
X0216239Y0229958D01*
X0216239Y0232042D01*
X0215441Y0233967D01*
X0213967Y0235441D01*
X0212618Y0236000D01*
X0213967Y0236559D01*
X0215441Y0238033D01*
X0216239Y0239958D01*
X0216239Y0242042D01*
X0215441Y0243967D01*
X0213967Y0245441D01*
X0212618Y0246000D01*
X0213967Y0246559D01*
X0215441Y0248033D01*
X0216239Y0249958D01*
X0216239Y0252042D01*
X0215441Y0253967D01*
X0213967Y0255441D01*
X0212618Y0256000D01*
X0213967Y0256559D01*
X0215441Y0258033D01*
X0216239Y0259958D01*
X0216239Y0262042D01*
X0215441Y0263967D01*
X0213967Y0265441D01*
X0212618Y0266000D01*
X0213967Y0266559D01*
X0215441Y0268033D01*
X0216239Y0269958D01*
X0216239Y0272042D01*
X0215441Y0273967D01*
X0213967Y0275441D01*
X0212618Y0276000D01*
X0213967Y0276559D01*
X0215441Y0278033D01*
X0216239Y0279958D01*
X0216239Y0282042D01*
X0215441Y0283967D01*
X0213967Y0285441D01*
X0212618Y0286000D01*
X0213967Y0286559D01*
X0215441Y0288033D01*
X0216239Y0289958D01*
X0216239Y0292042D01*
X0215441Y0293967D01*
X0213967Y0295441D01*
X0212618Y0296000D01*
X0213967Y0296559D01*
X0215441Y0298033D01*
X0216239Y0299958D01*
X0216239Y0302042D01*
X0215441Y0303967D01*
X0213967Y0305441D01*
X0212618Y0306000D01*
X0213967Y0306559D01*
X0215441Y0308033D01*
X0216239Y0309958D01*
X0216239Y0312042D01*
X0215441Y0313967D01*
X0213967Y0315441D01*
X0212618Y0316000D01*
X0213967Y0316559D01*
X0215441Y0318033D01*
X0216239Y0319958D01*
X0216239Y0322042D01*
X0215441Y0323967D01*
X0213967Y0325441D01*
X0212042Y0326239D01*
X0209958Y0326239D01*
X0208033Y0325441D01*
X0206559Y0323967D01*
X0205761Y0322042D01*
X0205761Y0319958D01*
X0206559Y0318033D01*
X0208033Y0316559D01*
X0209382Y0316000D01*
X0208033Y0315441D01*
X0206559Y0313967D01*
X0205761Y0312042D01*
X0205761Y0309958D01*
X0206559Y0308033D01*
X0208033Y0306559D01*
X0209382Y0306000D01*
X0208033Y0305441D01*
X0206559Y0303967D01*
X0205761Y0302042D01*
X0205761Y0299958D01*
X0206559Y0298033D01*
X0208033Y0296559D01*
X0209382Y0296000D01*
X0208033Y0295441D01*
X0206559Y0293967D01*
X0205761Y0292042D01*
X0205761Y0289958D01*
X0206559Y0288033D01*
X0208033Y0286559D01*
X0209382Y0286000D01*
X0208033Y0285441D01*
X0206559Y0283967D01*
X0205761Y0282042D01*
X0205761Y0279958D01*
X0206559Y0278033D01*
X0208033Y0276559D01*
X0209382Y0276000D01*
X0208033Y0275441D01*
X0206559Y0273967D01*
X0205761Y0272042D01*
X0205761Y0269958D01*
X0206559Y0268033D01*
X0208033Y0266559D01*
X0209382Y0266000D01*
X0208033Y0265441D01*
X0206559Y0263967D01*
X0206241Y0263200D01*
X0205089Y0263200D01*
X0196339Y0254450D01*
X0195050Y0253161D01*
X0195050Y0229832D01*
X0194384Y0229165D01*
X0193869Y0227923D01*
X0193869Y0226577D01*
X0194384Y0225335D01*
X0195335Y0224384D01*
X0196577Y0223869D01*
X0197923Y0223869D01*
X0198800Y0224232D01*
X0198800Y0216911D01*
X0191270Y0209381D01*
X0190327Y0209381D01*
X0189085Y0208866D01*
X0188134Y0207915D01*
X0187619Y0206673D01*
X0187619Y0205327D01*
X0188134Y0204085D01*
X0187619Y0205609D02*
X0178393Y0205609D01*
X0178401Y0207208D02*
X0187841Y0207208D01*
X0189025Y0208806D02*
X0178409Y0208806D01*
X0178417Y0210405D02*
X0192294Y0210405D01*
X0193892Y0212003D02*
X0178425Y0212003D01*
X0178433Y0213602D02*
X0195491Y0213602D01*
X0197089Y0215201D02*
X0178440Y0215201D01*
X0178448Y0216799D02*
X0198688Y0216799D01*
X0198800Y0218398D02*
X0178456Y0218398D01*
X0178464Y0219996D02*
X0198800Y0219996D01*
X0198800Y0221595D02*
X0178472Y0221595D01*
X0178480Y0223193D02*
X0198800Y0223193D01*
X0194927Y0224792D02*
X0178488Y0224792D01*
X0178496Y0226390D02*
X0193946Y0226390D01*
X0193896Y0227989D02*
X0179239Y0227989D01*
X0180837Y0229587D02*
X0194806Y0229587D01*
X0195050Y0231186D02*
X0186186Y0231186D01*
X0187784Y0232784D02*
X0195050Y0232784D01*
X0195050Y0234383D02*
X0189383Y0234383D01*
X0190981Y0235981D02*
X0195050Y0235981D01*
X0195050Y0237580D02*
X0191000Y0237580D01*
X0191000Y0239178D02*
X0195050Y0239178D01*
X0195050Y0240777D02*
X0191000Y0240777D01*
X0191000Y0242375D02*
X0195050Y0242375D01*
X0195050Y0243974D02*
X0191000Y0243974D01*
X0191000Y0245572D02*
X0195050Y0245572D01*
X0195050Y0247171D02*
X0191000Y0247171D01*
X0191000Y0248769D02*
X0195050Y0248769D01*
X0195050Y0250368D02*
X0191000Y0250368D01*
X0191000Y0251966D02*
X0195050Y0251966D01*
X0195454Y0253565D02*
X0191000Y0253565D01*
X0190541Y0255163D02*
X0197052Y0255163D01*
X0198651Y0256762D02*
X0188765Y0256762D01*
X0186989Y0258360D02*
X0200249Y0258360D01*
X0201848Y0259959D02*
X0185212Y0259959D01*
X0183436Y0261557D02*
X0203446Y0261557D01*
X0205045Y0263156D02*
X0181660Y0263156D01*
X0179884Y0264754D02*
X0207346Y0264754D01*
X0208530Y0266353D02*
X0178500Y0266353D01*
X0178500Y0267951D02*
X0206640Y0267951D01*
X0205930Y0269550D02*
X0178500Y0269550D01*
X0178500Y0271148D02*
X0205761Y0271148D01*
X0206053Y0272747D02*
X0178500Y0272747D01*
X0178500Y0274345D02*
X0206937Y0274345D01*
X0209247Y0275944D02*
X0178500Y0275944D01*
X0178500Y0277542D02*
X0207049Y0277542D01*
X0206100Y0279141D02*
X0178500Y0279141D01*
X0178500Y0280739D02*
X0205761Y0280739D01*
X0205884Y0282338D02*
X0178500Y0282338D01*
X0178500Y0283937D02*
X0206546Y0283937D01*
X0208259Y0285535D02*
X0178500Y0285535D01*
X0178500Y0287134D02*
X0207458Y0287134D01*
X0206269Y0288732D02*
X0178500Y0288732D01*
X0178500Y0290331D02*
X0205761Y0290331D01*
X0205761Y0291929D02*
X0178500Y0291929D01*
X0178500Y0293528D02*
X0206377Y0293528D01*
X0207718Y0295126D02*
X0178500Y0295126D01*
X0178500Y0296725D02*
X0207867Y0296725D01*
X0206439Y0298323D02*
X0178500Y0298323D01*
X0178500Y0299922D02*
X0205776Y0299922D01*
X0205761Y0301520D02*
X0178500Y0301520D01*
X0178500Y0303119D02*
X0206207Y0303119D01*
X0207309Y0304717D02*
X0178500Y0304717D01*
X0178500Y0306316D02*
X0208620Y0306316D01*
X0206677Y0307914D02*
X0178500Y0307914D01*
X0178500Y0309513D02*
X0205946Y0309513D01*
X0205761Y0311111D02*
X0178611Y0311111D01*
X0180210Y0312710D02*
X0206038Y0312710D01*
X0206900Y0314308D02*
X0181808Y0314308D01*
X0183407Y0315907D02*
X0209157Y0315907D01*
X0207086Y0317505D02*
X0185005Y0317505D01*
X0186604Y0319104D02*
X0206115Y0319104D01*
X0205761Y0320702D02*
X0187250Y0320702D01*
X0187250Y0322301D02*
X0205869Y0322301D01*
X0206531Y0323899D02*
X0187250Y0323899D01*
X0187250Y0325498D02*
X0208170Y0325498D01*
X0213830Y0325498D02*
X0226000Y0325498D01*
X0226000Y0327096D02*
X0187250Y0327096D01*
X0187250Y0328695D02*
X0226000Y0328695D01*
X0226000Y0330293D02*
X0187250Y0330293D01*
X0183500Y0327096D02*
X0169596Y0327096D01*
X0170140Y0325325D02*
X0168550Y0324667D01*
X0167333Y0323450D01*
X0166675Y0321860D01*
X0166675Y0320140D01*
X0167333Y0318550D01*
X0168550Y0317333D01*
X0170140Y0316675D01*
X0171860Y0316675D01*
X0173450Y0317333D01*
X0174667Y0318550D01*
X0175325Y0320140D01*
X0175325Y0321860D01*
X0174667Y0323450D01*
X0173450Y0324667D01*
X0171860Y0325325D01*
X0170140Y0325325D01*
X0167998Y0325498D02*
X0183500Y0325498D01*
X0183500Y0323899D02*
X0174217Y0323899D01*
X0175143Y0322301D02*
X0183500Y0322301D01*
X0183202Y0320702D02*
X0175325Y0320702D01*
X0174896Y0319104D02*
X0181604Y0319104D01*
X0180005Y0317505D02*
X0173622Y0317505D01*
X0175210Y0312710D02*
X0155210Y0312710D01*
X0156808Y0314308D02*
X0176808Y0314308D01*
X0178407Y0315907D02*
X0158407Y0315907D01*
X0156604Y0319104D02*
X0149104Y0319104D01*
X0149750Y0320702D02*
X0156675Y0320702D01*
X0156857Y0322301D02*
X0149750Y0322301D01*
X0149750Y0323899D02*
X0157783Y0323899D01*
X0162998Y0325498D02*
X0149750Y0325498D01*
X0149750Y0327096D02*
X0164596Y0327096D01*
X0166195Y0328695D02*
X0149750Y0328695D01*
X0149750Y0330293D02*
X0167793Y0330293D01*
X0167783Y0323899D02*
X0166399Y0323899D01*
X0166857Y0322301D02*
X0165143Y0322301D01*
X0165325Y0320702D02*
X0166675Y0320702D01*
X0167104Y0319104D02*
X0164896Y0319104D01*
X0163622Y0317505D02*
X0168378Y0317505D01*
X0174750Y0311111D02*
X0153611Y0311111D01*
X0152013Y0309513D02*
X0174750Y0309513D01*
X0174750Y0307914D02*
X0150414Y0307914D01*
X0149750Y0306316D02*
X0174750Y0306316D01*
X0174750Y0304717D02*
X0149750Y0304717D01*
X0149750Y0303119D02*
X0174750Y0303119D01*
X0174750Y0301520D02*
X0149750Y0301520D01*
X0149750Y0299922D02*
X0174750Y0299922D01*
X0174750Y0298323D02*
X0149750Y0298323D01*
X0149750Y0296725D02*
X0174750Y0296725D01*
X0174750Y0295126D02*
X0109750Y0295126D01*
X0109750Y0293528D02*
X0174750Y0293528D01*
X0174750Y0291929D02*
X0109750Y0291929D01*
X0109750Y0290331D02*
X0174750Y0290331D01*
X0174750Y0288732D02*
X0109750Y0288732D01*
X0111116Y0287134D02*
X0174750Y0287134D01*
X0174750Y0285535D02*
X0112715Y0285535D01*
X0114313Y0283937D02*
X0174750Y0283937D01*
X0174750Y0282338D02*
X0115912Y0282338D01*
X0112859Y0279141D02*
X0096000Y0279141D01*
X0096000Y0280739D02*
X0111261Y0280739D01*
X0109662Y0282338D02*
X0096000Y0282338D01*
X0096000Y0283937D02*
X0108063Y0283937D01*
X0106465Y0285535D02*
X0096000Y0285535D01*
X0096000Y0287134D02*
X0106000Y0287134D01*
X0106000Y0288732D02*
X0096000Y0288732D01*
X0096000Y0290331D02*
X0106000Y0290331D01*
X0106000Y0291929D02*
X0096000Y0291929D01*
X0096000Y0293528D02*
X0106000Y0293528D01*
X0106000Y0295126D02*
X0096000Y0295126D01*
X0096000Y0296725D02*
X0106000Y0296725D01*
X0106000Y0298323D02*
X0096000Y0298323D01*
X0096000Y0299922D02*
X0106000Y0299922D01*
X0106000Y0301520D02*
X0096000Y0301520D01*
X0096000Y0303119D02*
X0106000Y0303119D01*
X0106000Y0304717D02*
X0096000Y0304717D01*
X0096000Y0306316D02*
X0106000Y0306316D01*
X0106000Y0307914D02*
X0096000Y0307914D01*
X0097013Y0309513D02*
X0104987Y0309513D01*
X0106790Y0312710D02*
X0137710Y0312710D01*
X0139308Y0314308D02*
X0105192Y0314308D01*
X0108389Y0311111D02*
X0136111Y0311111D01*
X0134513Y0309513D02*
X0109750Y0309513D01*
X0109750Y0307914D02*
X0132914Y0307914D01*
X0131316Y0306316D02*
X0109750Y0306316D01*
X0109750Y0304717D02*
X0131000Y0304717D01*
X0131000Y0303119D02*
X0109750Y0303119D01*
X0109750Y0301520D02*
X0131000Y0301520D01*
X0132078Y0299922D02*
X0109750Y0299922D01*
X0109750Y0298323D02*
X0133677Y0298323D01*
X0135275Y0296725D02*
X0109750Y0296725D01*
X0118550Y0317333D02*
X0120140Y0316675D01*
X0121860Y0316675D01*
X0123450Y0317333D01*
X0124667Y0318550D01*
X0125325Y0320140D01*
X0125325Y0321860D01*
X0124667Y0323450D01*
X0123450Y0324667D01*
X0121860Y0325325D01*
X0120140Y0325325D01*
X0118550Y0324667D01*
X0117333Y0323450D01*
X0116675Y0321860D01*
X0116675Y0320140D01*
X0117333Y0318550D01*
X0118550Y0317333D01*
X0118378Y0317505D02*
X0093622Y0317505D01*
X0093450Y0317333D02*
X0094667Y0318550D01*
X0095325Y0320140D01*
X0095325Y0321860D01*
X0094667Y0323450D01*
X0093450Y0324667D01*
X0091860Y0325325D01*
X0090140Y0325325D01*
X0088550Y0324667D01*
X0087333Y0323450D01*
X0086675Y0321860D01*
X0086675Y0320140D01*
X0087333Y0318550D01*
X0088550Y0317333D01*
X0090140Y0316675D01*
X0091860Y0316675D01*
X0093450Y0317333D01*
X0094896Y0319104D02*
X0117104Y0319104D01*
X0116675Y0320702D02*
X0095325Y0320702D01*
X0095143Y0322301D02*
X0116857Y0322301D01*
X0117783Y0323899D02*
X0094217Y0323899D01*
X0088378Y0317505D02*
X0083622Y0317505D01*
X0083450Y0317333D02*
X0084667Y0318550D01*
X0085325Y0320140D01*
X0085325Y0321860D01*
X0084667Y0323450D01*
X0083450Y0324667D01*
X0081860Y0325325D01*
X0080140Y0325325D01*
X0078550Y0324667D01*
X0077333Y0323450D01*
X0076675Y0321860D01*
X0076675Y0320140D01*
X0077333Y0318550D01*
X0078550Y0317333D01*
X0080140Y0316675D01*
X0081860Y0316675D01*
X0083450Y0317333D01*
X0084896Y0319104D02*
X0087104Y0319104D01*
X0086675Y0320702D02*
X0085325Y0320702D01*
X0085143Y0322301D02*
X0086857Y0322301D01*
X0087783Y0323899D02*
X0084217Y0323899D01*
X0077783Y0323899D02*
X0037250Y0323899D01*
X0037250Y0322301D02*
X0076857Y0322301D01*
X0076675Y0320702D02*
X0037250Y0320702D01*
X0037250Y0319104D02*
X0077104Y0319104D01*
X0078378Y0317505D02*
X0037250Y0317505D01*
X0037250Y0315907D02*
X0140907Y0315907D01*
X0142505Y0317505D02*
X0133622Y0317505D01*
X0133450Y0317333D02*
X0134667Y0318550D01*
X0135325Y0320140D01*
X0135325Y0321860D01*
X0134667Y0323450D01*
X0133450Y0324667D01*
X0131860Y0325325D01*
X0130140Y0325325D01*
X0128550Y0324667D01*
X0127333Y0323450D01*
X0126675Y0321860D01*
X0126675Y0320140D01*
X0127333Y0318550D01*
X0128550Y0317333D01*
X0130140Y0316675D01*
X0131860Y0316675D01*
X0133450Y0317333D01*
X0134896Y0319104D02*
X0144104Y0319104D01*
X0145702Y0320702D02*
X0135325Y0320702D01*
X0135143Y0322301D02*
X0146000Y0322301D01*
X0146000Y0323899D02*
X0134217Y0323899D01*
X0127783Y0323899D02*
X0124217Y0323899D01*
X0125143Y0322301D02*
X0126857Y0322301D01*
X0126675Y0320702D02*
X0125325Y0320702D01*
X0124896Y0319104D02*
X0127104Y0319104D01*
X0128378Y0317505D02*
X0123622Y0317505D01*
X0136316Y0306316D02*
X0146000Y0306316D01*
X0146000Y0307914D02*
X0137914Y0307914D01*
X0139513Y0309513D02*
X0147013Y0309513D01*
X0148611Y0311111D02*
X0141111Y0311111D01*
X0142710Y0312710D02*
X0150210Y0312710D01*
X0151808Y0314308D02*
X0144308Y0314308D01*
X0145907Y0315907D02*
X0153407Y0315907D01*
X0155005Y0317505D02*
X0147505Y0317505D01*
X0146000Y0325498D02*
X0037250Y0325498D01*
X0038346Y0327096D02*
X0146000Y0327096D01*
X0146000Y0328695D02*
X0039945Y0328695D01*
X0041543Y0330293D02*
X0146000Y0330293D01*
X0146000Y0331892D02*
X0043142Y0331892D01*
X0044740Y0333490D02*
X0146000Y0333490D01*
X0149750Y0333490D02*
X0226000Y0333490D01*
X0226000Y0331892D02*
X0149750Y0331892D01*
X0149750Y0335089D02*
X0214700Y0335089D01*
X0212266Y0336687D02*
X0149750Y0336687D01*
X0146000Y0304717D02*
X0134750Y0304717D01*
X0134750Y0303119D02*
X0146000Y0303119D01*
X0146000Y0301520D02*
X0135480Y0301520D01*
X0137078Y0299922D02*
X0146000Y0299922D01*
X0141261Y0280739D02*
X0174750Y0280739D01*
X0174750Y0279141D02*
X0142859Y0279141D01*
X0144458Y0277542D02*
X0174750Y0277542D01*
X0174750Y0275944D02*
X0146056Y0275944D01*
X0147655Y0274345D02*
X0174750Y0274345D01*
X0174750Y0272747D02*
X0149253Y0272747D01*
X0150852Y0271148D02*
X0174750Y0271148D01*
X0174750Y0269550D02*
X0151000Y0269550D01*
X0151000Y0267951D02*
X0174750Y0267951D01*
X0174750Y0266353D02*
X0151000Y0266353D01*
X0151000Y0264754D02*
X0174750Y0264754D01*
X0176521Y0263156D02*
X0151000Y0263156D01*
X0151000Y0261557D02*
X0178297Y0261557D01*
X0180074Y0259959D02*
X0151000Y0259959D01*
X0151000Y0258360D02*
X0181850Y0258360D01*
X0183626Y0256762D02*
X0151000Y0256762D01*
X0151000Y0255163D02*
X0185402Y0255163D01*
X0187178Y0253565D02*
X0151000Y0253565D01*
X0151000Y0251966D02*
X0187250Y0251966D01*
X0187250Y0250368D02*
X0151000Y0250368D01*
X0151000Y0248769D02*
X0187250Y0248769D01*
X0187250Y0247171D02*
X0151000Y0247171D01*
X0151000Y0245572D02*
X0187250Y0245572D01*
X0187250Y0243974D02*
X0151000Y0243974D01*
X0151000Y0242375D02*
X0187250Y0242375D01*
X0187250Y0240777D02*
X0151000Y0240777D01*
X0151000Y0239178D02*
X0187250Y0239178D01*
X0187250Y0237580D02*
X0151000Y0237580D01*
X0150981Y0235981D02*
X0185981Y0235981D01*
X0180633Y0234383D02*
X0149383Y0234383D01*
X0147784Y0232784D02*
X0179034Y0232784D01*
X0177436Y0231186D02*
X0146186Y0231186D01*
X0144587Y0229587D02*
X0175837Y0229587D01*
X0174750Y0227989D02*
X0142989Y0227989D01*
X0141390Y0226390D02*
X0174750Y0226390D01*
X0174750Y0224792D02*
X0122292Y0224792D01*
X0120693Y0223193D02*
X0174750Y0223193D01*
X0174750Y0221595D02*
X0119750Y0221595D01*
X0119750Y0219996D02*
X0174750Y0219996D01*
X0174750Y0218398D02*
X0119750Y0218398D01*
X0119750Y0216799D02*
X0174750Y0216799D01*
X0174750Y0215201D02*
X0119750Y0215201D01*
X0119750Y0213602D02*
X0153820Y0213602D01*
X0154085Y0213866D02*
X0153134Y0212915D01*
X0152619Y0211673D01*
X0152619Y0210327D01*
X0153134Y0209085D01*
X0154085Y0208134D01*
X0155327Y0207619D01*
X0156673Y0207619D01*
X0157915Y0208134D01*
X0158582Y0208800D01*
X0168418Y0208800D01*
X0169085Y0208134D01*
X0170327Y0207619D01*
X0171673Y0207619D01*
X0172915Y0208134D01*
X0173866Y0209085D01*
X0174381Y0210327D01*
X0174381Y0211673D01*
X0173866Y0212915D01*
X0172915Y0213866D01*
X0171673Y0214381D01*
X0170327Y0214381D01*
X0169085Y0213866D01*
X0168418Y0213200D01*
X0158582Y0213200D01*
X0157915Y0213866D01*
X0156673Y0214381D01*
X0155327Y0214381D01*
X0154085Y0213866D01*
X0152756Y0212003D02*
X0119750Y0212003D01*
X0119750Y0210405D02*
X0152619Y0210405D01*
X0153412Y0208806D02*
X0119750Y0208806D01*
X0119750Y0207208D02*
X0174750Y0207208D01*
X0174750Y0208806D02*
X0173588Y0208806D01*
X0174381Y0210405D02*
X0174750Y0210405D01*
X0174750Y0212003D02*
X0174244Y0212003D01*
X0174750Y0213602D02*
X0173180Y0213602D01*
X0171000Y0211000D02*
X0156000Y0211000D01*
X0158180Y0213602D02*
X0168820Y0213602D01*
X0174750Y0205609D02*
X0119750Y0205609D01*
X0119750Y0204011D02*
X0174750Y0204011D01*
X0174750Y0202412D02*
X0119750Y0202412D01*
X0119750Y0200814D02*
X0174750Y0200814D01*
X0174750Y0199215D02*
X0119750Y0199215D01*
X0119750Y0197617D02*
X0174750Y0197617D01*
X0174750Y0196018D02*
X0119750Y0196018D01*
X0119420Y0194420D02*
X0174750Y0194420D01*
X0174750Y0192821D02*
X0117821Y0192821D01*
X0116223Y0191223D02*
X0174750Y0191223D01*
X0174750Y0189624D02*
X0114624Y0189624D01*
X0113026Y0188026D02*
X0174750Y0188026D01*
X0191000Y0206000D02*
X0201000Y0216000D01*
X0201000Y0246000D01*
X0206000Y0251000D01*
X0211000Y0251000D01*
X0207421Y0247171D02*
X0205282Y0247171D01*
X0203683Y0245572D02*
X0208349Y0245572D01*
X0206565Y0243974D02*
X0203200Y0243974D01*
X0203200Y0242375D02*
X0205899Y0242375D01*
X0205761Y0240777D02*
X0203200Y0240777D01*
X0203200Y0239178D02*
X0206084Y0239178D01*
X0207012Y0237580D02*
X0203200Y0237580D01*
X0203200Y0235981D02*
X0209337Y0235981D01*
X0206974Y0234383D02*
X0203200Y0234383D01*
X0203200Y0232784D02*
X0206069Y0232784D01*
X0205761Y0231186D02*
X0203200Y0231186D01*
X0203200Y0229587D02*
X0205915Y0229587D01*
X0206603Y0227989D02*
X0203200Y0227989D01*
X0203200Y0226390D02*
X0208440Y0226390D01*
X0203200Y0224792D02*
X0226000Y0224792D01*
X0226000Y0226390D02*
X0213560Y0226390D01*
X0215397Y0227989D02*
X0226000Y0227989D01*
X0226000Y0229587D02*
X0216085Y0229587D01*
X0216239Y0231186D02*
X0226000Y0231186D01*
X0226000Y0232784D02*
X0215931Y0232784D01*
X0215026Y0234383D02*
X0226000Y0234383D01*
X0226000Y0235981D02*
X0212663Y0235981D01*
X0214988Y0237580D02*
X0226000Y0237580D01*
X0226000Y0239178D02*
X0215916Y0239178D01*
X0216239Y0240777D02*
X0226000Y0240777D01*
X0226000Y0242375D02*
X0216101Y0242375D01*
X0215435Y0243974D02*
X0226000Y0243974D01*
X0226000Y0245572D02*
X0213651Y0245572D01*
X0214579Y0247171D02*
X0226000Y0247171D01*
X0226000Y0248769D02*
X0215746Y0248769D01*
X0216239Y0250368D02*
X0226000Y0250368D01*
X0226000Y0251966D02*
X0216239Y0251966D01*
X0215608Y0253565D02*
X0226000Y0253565D01*
X0226000Y0255163D02*
X0214245Y0255163D01*
X0214170Y0256762D02*
X0226000Y0256762D01*
X0226000Y0258360D02*
X0215577Y0258360D01*
X0216239Y0259959D02*
X0226000Y0259959D01*
X0226000Y0261557D02*
X0216239Y0261557D01*
X0215777Y0263156D02*
X0226000Y0263156D01*
X0226000Y0264754D02*
X0214654Y0264754D01*
X0213470Y0266353D02*
X0226000Y0266353D01*
X0226000Y0267951D02*
X0215360Y0267951D01*
X0216070Y0269550D02*
X0226000Y0269550D01*
X0226000Y0271148D02*
X0216239Y0271148D01*
X0215947Y0272747D02*
X0226000Y0272747D01*
X0226000Y0274345D02*
X0215063Y0274345D01*
X0212753Y0275944D02*
X0226000Y0275944D01*
X0226000Y0277542D02*
X0214951Y0277542D01*
X0215900Y0279141D02*
X0226000Y0279141D01*
X0226000Y0280739D02*
X0216239Y0280739D01*
X0216116Y0282338D02*
X0226000Y0282338D01*
X0226000Y0283937D02*
X0215454Y0283937D01*
X0213741Y0285535D02*
X0226000Y0285535D01*
X0226000Y0287134D02*
X0214542Y0287134D01*
X0215731Y0288732D02*
X0226000Y0288732D01*
X0226000Y0290331D02*
X0216239Y0290331D01*
X0216239Y0291929D02*
X0226000Y0291929D01*
X0226000Y0293528D02*
X0215623Y0293528D01*
X0214282Y0295126D02*
X0226000Y0295126D01*
X0226000Y0296725D02*
X0214133Y0296725D01*
X0215561Y0298323D02*
X0226000Y0298323D01*
X0226000Y0299922D02*
X0216223Y0299922D01*
X0216239Y0301520D02*
X0226000Y0301520D01*
X0226000Y0303119D02*
X0215793Y0303119D01*
X0214691Y0304717D02*
X0226000Y0304717D01*
X0226000Y0306316D02*
X0213380Y0306316D01*
X0215323Y0307914D02*
X0226000Y0307914D01*
X0226000Y0309513D02*
X0216054Y0309513D01*
X0216239Y0311111D02*
X0226000Y0311111D01*
X0226000Y0312710D02*
X0215962Y0312710D01*
X0215100Y0314308D02*
X0226000Y0314308D01*
X0226000Y0315907D02*
X0212843Y0315907D01*
X0214914Y0317505D02*
X0226000Y0317505D01*
X0226000Y0319104D02*
X0215885Y0319104D01*
X0216239Y0320702D02*
X0226000Y0320702D01*
X0226000Y0322301D02*
X0216131Y0322301D01*
X0215469Y0323899D02*
X0226000Y0323899D01*
X0226000Y0335089D02*
X0222300Y0335089D01*
X0224734Y0336687D02*
X0226000Y0336687D01*
X0211429Y0349475D02*
X0020571Y0349475D01*
X0021672Y0347877D02*
X0210328Y0347877D01*
X0209666Y0346278D02*
X0022334Y0346278D01*
X0022725Y0344680D02*
X0209275Y0344680D01*
X0209275Y0343081D02*
X0022725Y0343081D01*
X0022650Y0341483D02*
X0209350Y0341483D01*
X0210013Y0339884D02*
X0021987Y0339884D01*
X0021325Y0338286D02*
X0210675Y0338286D01*
X0211000Y0261000D02*
X0206000Y0261000D01*
X0197250Y0252250D01*
X0197250Y0227250D01*
X0203200Y0223193D02*
X0226000Y0223193D01*
X0226000Y0221595D02*
X0203200Y0221595D01*
X0203200Y0219996D02*
X0226000Y0219996D01*
X0226000Y0218398D02*
X0203200Y0218398D01*
X0203200Y0216799D02*
X0226000Y0216799D01*
X0226000Y0215201D02*
X0203200Y0215201D01*
X0201713Y0213602D02*
X0226000Y0213602D01*
X0226000Y0212003D02*
X0200115Y0212003D01*
X0198516Y0210405D02*
X0226000Y0210405D01*
X0226000Y0208806D02*
X0196918Y0208806D01*
X0195319Y0207208D02*
X0226000Y0207208D01*
X0226000Y0205609D02*
X0194381Y0205609D01*
X0193793Y0204011D02*
X0226000Y0204011D01*
X0147250Y0239178D02*
X0093514Y0239178D01*
X0093280Y0239412D02*
X0091801Y0240025D01*
X0090199Y0240025D01*
X0088720Y0239412D01*
X0087588Y0238280D01*
X0086975Y0236801D01*
X0086975Y0235199D01*
X0087588Y0233720D01*
X0088720Y0232588D01*
X0090199Y0231975D01*
X0091801Y0231975D01*
X0093280Y0232588D01*
X0094412Y0233720D01*
X0095025Y0235199D01*
X0095025Y0236801D01*
X0094412Y0238280D01*
X0093280Y0239412D01*
X0094702Y0237580D02*
X0146330Y0237580D01*
X0144731Y0235981D02*
X0095025Y0235981D01*
X0094687Y0234383D02*
X0143133Y0234383D01*
X0141534Y0232784D02*
X0093476Y0232784D01*
X0088524Y0232784D02*
X0083476Y0232784D01*
X0083280Y0232588D02*
X0084412Y0233720D01*
X0085025Y0235199D01*
X0085025Y0236801D01*
X0084412Y0238280D01*
X0083280Y0239412D01*
X0081801Y0240025D01*
X0080199Y0240025D01*
X0078720Y0239412D01*
X0077588Y0238280D01*
X0076975Y0236801D01*
X0076975Y0235199D01*
X0077588Y0233720D01*
X0078720Y0232588D01*
X0080199Y0231975D01*
X0081801Y0231975D01*
X0083280Y0232588D01*
X0084687Y0234383D02*
X0087313Y0234383D01*
X0086975Y0235981D02*
X0085025Y0235981D01*
X0084702Y0237580D02*
X0087298Y0237580D01*
X0088486Y0239178D02*
X0083514Y0239178D01*
X0078486Y0239178D02*
X0006000Y0239178D01*
X0006000Y0237580D02*
X0077298Y0237580D01*
X0076975Y0235981D02*
X0006000Y0235981D01*
X0006000Y0234383D02*
X0077313Y0234383D01*
X0078524Y0232784D02*
X0006000Y0232784D01*
X0006000Y0231186D02*
X0139936Y0231186D01*
X0147250Y0240777D02*
X0006000Y0240777D01*
X0006000Y0242375D02*
X0147250Y0242375D01*
X0147250Y0243974D02*
X0006000Y0243974D01*
X0006000Y0245572D02*
X0147250Y0245572D01*
X0147250Y0247171D02*
X0006000Y0247171D01*
X0006000Y0248769D02*
X0147250Y0248769D01*
X0147250Y0250368D02*
X0006000Y0250368D01*
X0006000Y0251966D02*
X0147250Y0251966D01*
X0147250Y0253565D02*
X0006000Y0253565D01*
X0006000Y0255163D02*
X0147250Y0255163D01*
X0147250Y0256762D02*
X0006000Y0256762D01*
X0006000Y0258360D02*
X0147250Y0258360D01*
X0147250Y0259959D02*
X0006000Y0259959D01*
X0006000Y0261557D02*
X0147250Y0261557D01*
X0147250Y0263156D02*
X0006000Y0263156D01*
X0006000Y0264754D02*
X0147250Y0264754D01*
X0147250Y0266353D02*
X0006000Y0266353D01*
X0006000Y0267951D02*
X0147250Y0267951D01*
X0147250Y0269550D02*
X0006000Y0269550D01*
X0006000Y0271148D02*
X0068352Y0271148D01*
X0066753Y0272747D02*
X0006000Y0272747D01*
X0006000Y0274345D02*
X0065155Y0274345D01*
X0063556Y0275944D02*
X0006000Y0275944D01*
X0006000Y0277542D02*
X0061958Y0277542D01*
X0061000Y0279141D02*
X0006000Y0279141D01*
X0006000Y0280739D02*
X0061000Y0280739D01*
X0061000Y0282338D02*
X0006000Y0282338D01*
X0006000Y0283937D02*
X0061000Y0283937D01*
X0061000Y0285535D02*
X0017427Y0285535D01*
X0017320Y0285500D02*
X0018164Y0285775D01*
X0018955Y0286177D01*
X0019673Y0286699D01*
X0020301Y0287327D01*
X0020823Y0288045D01*
X0021225Y0288836D01*
X0021500Y0289680D01*
X0021633Y0290520D01*
X0016480Y0290520D01*
X0016480Y0291480D01*
X0021633Y0291480D01*
X0021500Y0292320D01*
X0021225Y0293164D01*
X0020823Y0293955D01*
X0020301Y0294673D01*
X0019673Y0295301D01*
X0018955Y0295823D01*
X0018164Y0296225D01*
X0017320Y0296500D01*
X0016480Y0296633D01*
X0016480Y0291480D01*
X0015520Y0291480D01*
X0015520Y0296633D01*
X0014680Y0296500D01*
X0013836Y0296225D01*
X0013045Y0295823D01*
X0012327Y0295301D01*
X0011699Y0294673D01*
X0011177Y0293955D01*
X0010775Y0293164D01*
X0010500Y0292320D01*
X0010367Y0291480D01*
X0015520Y0291480D01*
X0015520Y0290520D01*
X0016480Y0290520D01*
X0016480Y0285367D01*
X0017320Y0285500D01*
X0016480Y0285535D02*
X0015520Y0285535D01*
X0015520Y0285367D02*
X0015520Y0290520D01*
X0010367Y0290520D01*
X0010500Y0289680D01*
X0010775Y0288836D01*
X0011177Y0288045D01*
X0011699Y0287327D01*
X0012327Y0286699D01*
X0013045Y0286177D01*
X0013836Y0285775D01*
X0014680Y0285500D01*
X0015520Y0285367D01*
X0014573Y0285535D02*
X0006000Y0285535D01*
X0006000Y0287134D02*
X0011892Y0287134D01*
X0010827Y0288732D02*
X0006000Y0288732D01*
X0006000Y0290331D02*
X0010397Y0290331D01*
X0010438Y0291929D02*
X0006000Y0291929D01*
X0006000Y0293528D02*
X0010960Y0293528D01*
X0012152Y0295126D02*
X0006000Y0295126D01*
X0006000Y0296725D02*
X0065275Y0296725D01*
X0066000Y0295126D02*
X0019848Y0295126D01*
X0021040Y0293528D02*
X0066000Y0293528D01*
X0066000Y0291929D02*
X0021562Y0291929D01*
X0021603Y0290331D02*
X0065331Y0290331D01*
X0063732Y0288732D02*
X0021173Y0288732D01*
X0020108Y0287134D02*
X0062134Y0287134D01*
X0064750Y0283937D02*
X0092250Y0283937D01*
X0092250Y0285535D02*
X0065535Y0285535D01*
X0067134Y0287134D02*
X0092250Y0287134D01*
X0092250Y0288732D02*
X0068732Y0288732D01*
X0069750Y0290331D02*
X0092250Y0290331D01*
X0092250Y0291929D02*
X0069750Y0291929D01*
X0069750Y0293528D02*
X0092250Y0293528D01*
X0092250Y0295126D02*
X0069750Y0295126D01*
X0069750Y0296725D02*
X0092250Y0296725D01*
X0092250Y0298323D02*
X0068677Y0298323D01*
X0067078Y0299922D02*
X0092250Y0299922D01*
X0092250Y0301520D02*
X0065480Y0301520D01*
X0063881Y0303119D02*
X0092250Y0303119D01*
X0092250Y0304717D02*
X0039783Y0304717D01*
X0038184Y0306316D02*
X0092250Y0306316D01*
X0092250Y0307914D02*
X0037250Y0307914D01*
X0037250Y0309513D02*
X0092250Y0309513D01*
X0093611Y0311111D02*
X0037250Y0311111D01*
X0037250Y0312710D02*
X0095210Y0312710D01*
X0096808Y0314308D02*
X0037250Y0314308D01*
X0033500Y0314308D02*
X0020100Y0314308D01*
X0020441Y0313967D02*
X0018967Y0315441D01*
X0017042Y0316239D01*
X0014958Y0316239D01*
X0013033Y0315441D01*
X0011559Y0313967D01*
X0010761Y0312042D01*
X0010761Y0309958D01*
X0011559Y0308033D01*
X0013033Y0306559D01*
X0014958Y0305761D01*
X0017042Y0305761D01*
X0018967Y0306559D01*
X0020441Y0308033D01*
X0021239Y0309958D01*
X0021239Y0312042D01*
X0020441Y0313967D01*
X0020962Y0312710D02*
X0033500Y0312710D01*
X0033500Y0311111D02*
X0021239Y0311111D01*
X0021054Y0309513D02*
X0033500Y0309513D01*
X0033500Y0307914D02*
X0020323Y0307914D01*
X0018380Y0306316D02*
X0033500Y0306316D01*
X0033533Y0304717D02*
X0006000Y0304717D01*
X0006000Y0303119D02*
X0035131Y0303119D01*
X0036730Y0301520D02*
X0006000Y0301520D01*
X0006000Y0299922D02*
X0038328Y0299922D01*
X0033500Y0315907D02*
X0017843Y0315907D01*
X0014157Y0315907D02*
X0006000Y0315907D01*
X0006000Y0317505D02*
X0033500Y0317505D01*
X0033500Y0319104D02*
X0006000Y0319104D01*
X0006000Y0320702D02*
X0033500Y0320702D01*
X0033500Y0322301D02*
X0006000Y0322301D01*
X0006000Y0323899D02*
X0033500Y0323899D01*
X0033500Y0325498D02*
X0006000Y0325498D01*
X0006000Y0327096D02*
X0033500Y0327096D01*
X0034945Y0328695D02*
X0006000Y0328695D01*
X0006000Y0330293D02*
X0036543Y0330293D01*
X0038142Y0331892D02*
X0006000Y0331892D01*
X0006000Y0333490D02*
X0039740Y0333490D01*
X0041339Y0335089D02*
X0017300Y0335089D01*
X0019734Y0336687D02*
X0042937Y0336687D01*
X0063677Y0298323D02*
X0006000Y0298323D01*
X0006000Y0306316D02*
X0013620Y0306316D01*
X0011677Y0307914D02*
X0006000Y0307914D01*
X0006000Y0309513D02*
X0010946Y0309513D01*
X0010761Y0311111D02*
X0006000Y0311111D01*
X0006000Y0312710D02*
X0011038Y0312710D01*
X0011900Y0314308D02*
X0006000Y0314308D01*
X0006000Y0335089D02*
X0009700Y0335089D01*
X0007266Y0336687D02*
X0006000Y0336687D01*
X0015520Y0295126D02*
X0016480Y0295126D01*
X0016480Y0293528D02*
X0015520Y0293528D01*
X0015520Y0291929D02*
X0016480Y0291929D01*
X0016480Y0290331D02*
X0015520Y0290331D01*
X0015520Y0288732D02*
X0016480Y0288732D01*
X0016480Y0287134D02*
X0015520Y0287134D01*
X0006000Y0229587D02*
X0122087Y0229587D01*
X0120489Y0227989D02*
X0006000Y0227989D01*
X0006000Y0226390D02*
X0118890Y0226390D01*
X0117292Y0224792D02*
X0006000Y0224792D01*
X0006000Y0223193D02*
X0116000Y0223193D01*
X0116000Y0221595D02*
X0006000Y0221595D01*
X0006000Y0219996D02*
X0116000Y0219996D01*
X0116000Y0218398D02*
X0006000Y0218398D01*
X0006000Y0216799D02*
X0116000Y0216799D01*
X0116000Y0215201D02*
X0006000Y0215201D01*
X0006000Y0213602D02*
X0116000Y0213602D01*
X0116000Y0212003D02*
X0006000Y0212003D01*
X0006000Y0205609D02*
X0036000Y0205609D01*
X0036000Y0204011D02*
X0006000Y0204011D01*
X0006000Y0202412D02*
X0036000Y0202412D01*
X0036000Y0200814D02*
X0022445Y0200814D01*
X0022177Y0200901D02*
X0021395Y0201025D01*
X0021275Y0201025D01*
X0021275Y0196275D01*
X0026025Y0196275D01*
X0026025Y0196395D01*
X0025901Y0197177D01*
X0025657Y0197929D01*
X0025298Y0198634D01*
X0024833Y0199274D01*
X0024274Y0199833D01*
X0023634Y0200298D01*
X0022929Y0200657D01*
X0022177Y0200901D01*
X0021275Y0200814D02*
X0020725Y0200814D01*
X0020725Y0201025D02*
X0020605Y0201025D01*
X0019823Y0200901D01*
X0019071Y0200657D01*
X0018366Y0200298D01*
X0017726Y0199833D01*
X0017167Y0199274D01*
X0016702Y0198634D01*
X0016343Y0197929D01*
X0016099Y0197177D01*
X0015975Y0196395D01*
X0015975Y0196275D01*
X0020725Y0196275D01*
X0020725Y0201025D01*
X0019555Y0200814D02*
X0006000Y0200814D01*
X0006000Y0199215D02*
X0017125Y0199215D01*
X0016242Y0197617D02*
X0006000Y0197617D01*
X0006000Y0196018D02*
X0020725Y0196018D01*
X0020725Y0196275D02*
X0020725Y0195725D01*
X0021275Y0195725D01*
X0021275Y0196275D01*
X0020725Y0196275D01*
X0020725Y0195725D02*
X0015975Y0195725D01*
X0015975Y0195605D01*
X0016099Y0194823D01*
X0016343Y0194071D01*
X0016702Y0193366D01*
X0017167Y0192726D01*
X0017726Y0192167D01*
X0018366Y0191702D01*
X0019071Y0191343D01*
X0019823Y0191099D01*
X0020605Y0190975D01*
X0020725Y0190975D01*
X0020725Y0195725D01*
X0021275Y0195725D02*
X0021275Y0190975D01*
X0021395Y0190975D01*
X0022177Y0191099D01*
X0022929Y0191343D01*
X0023634Y0191702D01*
X0024274Y0192167D01*
X0024833Y0192726D01*
X0025298Y0193366D01*
X0025657Y0194071D01*
X0025901Y0194823D01*
X0026025Y0195605D01*
X0026025Y0195725D01*
X0021275Y0195725D01*
X0021275Y0196018D02*
X0036000Y0196018D01*
X0036000Y0194420D02*
X0025770Y0194420D01*
X0024902Y0192821D02*
X0036000Y0192821D01*
X0036000Y0191223D02*
X0022559Y0191223D01*
X0021275Y0191223D02*
X0020725Y0191223D01*
X0019441Y0191223D02*
X0006000Y0191223D01*
X0006000Y0192821D02*
X0017098Y0192821D01*
X0016230Y0194420D02*
X0006000Y0194420D01*
X0006000Y0189624D02*
X0036000Y0189624D01*
X0036000Y0188026D02*
X0006000Y0188026D01*
X0006000Y0186427D02*
X0036000Y0186427D01*
X0036000Y0184829D02*
X0006000Y0184829D01*
X0006000Y0183230D02*
X0036000Y0183230D01*
X0036000Y0181632D02*
X0006000Y0181632D01*
X0006000Y0180033D02*
X0036000Y0180033D01*
X0036000Y0178435D02*
X0006000Y0178435D01*
X0006000Y0176836D02*
X0036000Y0176836D01*
X0036000Y0175238D02*
X0006000Y0175238D01*
X0006000Y0173639D02*
X0036000Y0173639D01*
X0036000Y0172041D02*
X0006000Y0172041D01*
X0006000Y0170442D02*
X0036000Y0170442D01*
X0036000Y0168844D02*
X0006000Y0168844D01*
X0006000Y0167245D02*
X0036000Y0167245D01*
X0036000Y0165647D02*
X0006000Y0165647D01*
X0006000Y0164048D02*
X0036000Y0164048D01*
X0036000Y0162450D02*
X0006000Y0162450D01*
X0006000Y0160851D02*
X0036000Y0160851D01*
X0036000Y0159253D02*
X0006000Y0159253D01*
X0006000Y0157654D02*
X0036000Y0157654D01*
X0036000Y0156056D02*
X0006000Y0156056D01*
X0006000Y0154457D02*
X0036000Y0154457D01*
X0036000Y0152859D02*
X0006000Y0152859D01*
X0006000Y0151260D02*
X0036000Y0151260D01*
X0036000Y0149662D02*
X0006000Y0149662D01*
X0020725Y0192821D02*
X0021275Y0192821D01*
X0021275Y0194420D02*
X0020725Y0194420D01*
X0020725Y0197617D02*
X0021275Y0197617D01*
X0021275Y0199215D02*
X0020725Y0199215D01*
X0024875Y0199215D02*
X0036000Y0199215D01*
X0036000Y0197617D02*
X0025758Y0197617D01*
X0041000Y0197617D02*
X0046242Y0197617D01*
X0047125Y0199215D02*
X0041000Y0199215D01*
X0050725Y0199215D02*
X0051275Y0199215D01*
X0051275Y0197617D02*
X0050725Y0197617D01*
X0050725Y0194420D02*
X0051275Y0194420D01*
X0051275Y0192821D02*
X0050725Y0192821D01*
X0071000Y0207208D02*
X0116000Y0207208D01*
X0116000Y0208806D02*
X0071000Y0208806D01*
X0071000Y0210405D02*
X0116000Y0210405D01*
X0091075Y0199215D02*
X0090925Y0199215D01*
X0090925Y0197617D02*
X0091075Y0197617D01*
X0091075Y0194420D02*
X0090925Y0194420D01*
X0090925Y0192821D02*
X0091075Y0192821D01*
X0091148Y0271148D02*
X0145852Y0271148D01*
X0144253Y0272747D02*
X0092747Y0272747D01*
X0094345Y0274345D02*
X0142655Y0274345D01*
X0141056Y0275944D02*
X0095944Y0275944D01*
X0096000Y0277542D02*
X0114458Y0277542D01*
X0092250Y0277542D02*
X0066958Y0277542D01*
X0068556Y0275944D02*
X0090944Y0275944D01*
X0092250Y0279141D02*
X0065359Y0279141D01*
X0064750Y0280739D02*
X0092250Y0280739D01*
X0092250Y0282338D02*
X0064750Y0282338D01*
X0009385Y0021781D02*
X0006000Y0021781D01*
M02*
