G75*
%MOIN*%
%OFA0B0*%
%FSLAX25Y25*%
%IPPOS*%
%LPD*%
%AMOC8*
5,1,8,0,0,1.08239X$1,22.5*
%
%ADD10C,0.00000*%
D10*
X0001000Y0001000D02*
X0001000Y0355961D01*
X0231001Y0355961D01*
X0231000Y0001000D01*
X0001000Y0001000D01*
X0007075Y0013500D02*
X0007077Y0013660D01*
X0007083Y0013820D01*
X0007093Y0013980D01*
X0007107Y0014140D01*
X0007125Y0014299D01*
X0007147Y0014458D01*
X0007173Y0014616D01*
X0007202Y0014773D01*
X0007236Y0014930D01*
X0007274Y0015085D01*
X0007315Y0015240D01*
X0007360Y0015394D01*
X0007410Y0015546D01*
X0007462Y0015697D01*
X0007519Y0015847D01*
X0007580Y0015996D01*
X0007644Y0016143D01*
X0007711Y0016288D01*
X0007783Y0016431D01*
X0007857Y0016573D01*
X0007936Y0016713D01*
X0008018Y0016850D01*
X0008103Y0016986D01*
X0008191Y0017119D01*
X0008283Y0017251D01*
X0008378Y0017379D01*
X0008477Y0017506D01*
X0008578Y0017630D01*
X0008683Y0017751D01*
X0008790Y0017870D01*
X0008901Y0017986D01*
X0009014Y0018099D01*
X0009130Y0018210D01*
X0009249Y0018317D01*
X0009370Y0018422D01*
X0009494Y0018523D01*
X0009621Y0018622D01*
X0009749Y0018717D01*
X0009881Y0018809D01*
X0010014Y0018897D01*
X0010150Y0018982D01*
X0010288Y0019064D01*
X0010427Y0019143D01*
X0010569Y0019217D01*
X0010712Y0019289D01*
X0010857Y0019356D01*
X0011004Y0019420D01*
X0011153Y0019481D01*
X0011303Y0019538D01*
X0011454Y0019590D01*
X0011606Y0019640D01*
X0011760Y0019685D01*
X0011915Y0019726D01*
X0012070Y0019764D01*
X0012227Y0019798D01*
X0012384Y0019827D01*
X0012542Y0019853D01*
X0012701Y0019875D01*
X0012860Y0019893D01*
X0013020Y0019907D01*
X0013180Y0019917D01*
X0013340Y0019923D01*
X0013500Y0019925D01*
X0013660Y0019923D01*
X0013820Y0019917D01*
X0013980Y0019907D01*
X0014140Y0019893D01*
X0014299Y0019875D01*
X0014458Y0019853D01*
X0014616Y0019827D01*
X0014773Y0019798D01*
X0014930Y0019764D01*
X0015085Y0019726D01*
X0015240Y0019685D01*
X0015394Y0019640D01*
X0015546Y0019590D01*
X0015697Y0019538D01*
X0015847Y0019481D01*
X0015996Y0019420D01*
X0016143Y0019356D01*
X0016288Y0019289D01*
X0016431Y0019217D01*
X0016573Y0019143D01*
X0016713Y0019064D01*
X0016850Y0018982D01*
X0016986Y0018897D01*
X0017119Y0018809D01*
X0017251Y0018717D01*
X0017379Y0018622D01*
X0017506Y0018523D01*
X0017630Y0018422D01*
X0017751Y0018317D01*
X0017870Y0018210D01*
X0017986Y0018099D01*
X0018099Y0017986D01*
X0018210Y0017870D01*
X0018317Y0017751D01*
X0018422Y0017630D01*
X0018523Y0017506D01*
X0018622Y0017379D01*
X0018717Y0017251D01*
X0018809Y0017119D01*
X0018897Y0016986D01*
X0018982Y0016850D01*
X0019064Y0016712D01*
X0019143Y0016573D01*
X0019217Y0016431D01*
X0019289Y0016288D01*
X0019356Y0016143D01*
X0019420Y0015996D01*
X0019481Y0015847D01*
X0019538Y0015697D01*
X0019590Y0015546D01*
X0019640Y0015394D01*
X0019685Y0015240D01*
X0019726Y0015085D01*
X0019764Y0014930D01*
X0019798Y0014773D01*
X0019827Y0014616D01*
X0019853Y0014458D01*
X0019875Y0014299D01*
X0019893Y0014140D01*
X0019907Y0013980D01*
X0019917Y0013820D01*
X0019923Y0013660D01*
X0019925Y0013500D01*
X0019923Y0013340D01*
X0019917Y0013180D01*
X0019907Y0013020D01*
X0019893Y0012860D01*
X0019875Y0012701D01*
X0019853Y0012542D01*
X0019827Y0012384D01*
X0019798Y0012227D01*
X0019764Y0012070D01*
X0019726Y0011915D01*
X0019685Y0011760D01*
X0019640Y0011606D01*
X0019590Y0011454D01*
X0019538Y0011303D01*
X0019481Y0011153D01*
X0019420Y0011004D01*
X0019356Y0010857D01*
X0019289Y0010712D01*
X0019217Y0010569D01*
X0019143Y0010427D01*
X0019064Y0010287D01*
X0018982Y0010150D01*
X0018897Y0010014D01*
X0018809Y0009881D01*
X0018717Y0009749D01*
X0018622Y0009621D01*
X0018523Y0009494D01*
X0018422Y0009370D01*
X0018317Y0009249D01*
X0018210Y0009130D01*
X0018099Y0009014D01*
X0017986Y0008901D01*
X0017870Y0008790D01*
X0017751Y0008683D01*
X0017630Y0008578D01*
X0017506Y0008477D01*
X0017379Y0008378D01*
X0017251Y0008283D01*
X0017119Y0008191D01*
X0016986Y0008103D01*
X0016850Y0008018D01*
X0016712Y0007936D01*
X0016573Y0007857D01*
X0016431Y0007783D01*
X0016288Y0007711D01*
X0016143Y0007644D01*
X0015996Y0007580D01*
X0015847Y0007519D01*
X0015697Y0007462D01*
X0015546Y0007410D01*
X0015394Y0007360D01*
X0015240Y0007315D01*
X0015085Y0007274D01*
X0014930Y0007236D01*
X0014773Y0007202D01*
X0014616Y0007173D01*
X0014458Y0007147D01*
X0014299Y0007125D01*
X0014140Y0007107D01*
X0013980Y0007093D01*
X0013820Y0007083D01*
X0013660Y0007077D01*
X0013500Y0007075D01*
X0013340Y0007077D01*
X0013180Y0007083D01*
X0013020Y0007093D01*
X0012860Y0007107D01*
X0012701Y0007125D01*
X0012542Y0007147D01*
X0012384Y0007173D01*
X0012227Y0007202D01*
X0012070Y0007236D01*
X0011915Y0007274D01*
X0011760Y0007315D01*
X0011606Y0007360D01*
X0011454Y0007410D01*
X0011303Y0007462D01*
X0011153Y0007519D01*
X0011004Y0007580D01*
X0010857Y0007644D01*
X0010712Y0007711D01*
X0010569Y0007783D01*
X0010427Y0007857D01*
X0010287Y0007936D01*
X0010150Y0008018D01*
X0010014Y0008103D01*
X0009881Y0008191D01*
X0009749Y0008283D01*
X0009621Y0008378D01*
X0009494Y0008477D01*
X0009370Y0008578D01*
X0009249Y0008683D01*
X0009130Y0008790D01*
X0009014Y0008901D01*
X0008901Y0009014D01*
X0008790Y0009130D01*
X0008683Y0009249D01*
X0008578Y0009370D01*
X0008477Y0009494D01*
X0008378Y0009621D01*
X0008283Y0009749D01*
X0008191Y0009881D01*
X0008103Y0010014D01*
X0008018Y0010150D01*
X0007936Y0010288D01*
X0007857Y0010427D01*
X0007783Y0010569D01*
X0007711Y0010712D01*
X0007644Y0010857D01*
X0007580Y0011004D01*
X0007519Y0011153D01*
X0007462Y0011303D01*
X0007410Y0011454D01*
X0007360Y0011606D01*
X0007315Y0011760D01*
X0007274Y0011915D01*
X0007236Y0012070D01*
X0007202Y0012227D01*
X0007173Y0012384D01*
X0007147Y0012542D01*
X0007125Y0012701D01*
X0007107Y0012860D01*
X0007093Y0013020D01*
X0007083Y0013180D01*
X0007077Y0013340D01*
X0007075Y0013500D01*
X0209575Y0013500D02*
X0209577Y0013660D01*
X0209583Y0013820D01*
X0209593Y0013980D01*
X0209607Y0014140D01*
X0209625Y0014299D01*
X0209647Y0014458D01*
X0209673Y0014616D01*
X0209702Y0014773D01*
X0209736Y0014930D01*
X0209774Y0015085D01*
X0209815Y0015240D01*
X0209860Y0015394D01*
X0209910Y0015546D01*
X0209962Y0015697D01*
X0210019Y0015847D01*
X0210080Y0015996D01*
X0210144Y0016143D01*
X0210211Y0016288D01*
X0210283Y0016431D01*
X0210357Y0016573D01*
X0210436Y0016713D01*
X0210518Y0016850D01*
X0210603Y0016986D01*
X0210691Y0017119D01*
X0210783Y0017251D01*
X0210878Y0017379D01*
X0210977Y0017506D01*
X0211078Y0017630D01*
X0211183Y0017751D01*
X0211290Y0017870D01*
X0211401Y0017986D01*
X0211514Y0018099D01*
X0211630Y0018210D01*
X0211749Y0018317D01*
X0211870Y0018422D01*
X0211994Y0018523D01*
X0212121Y0018622D01*
X0212249Y0018717D01*
X0212381Y0018809D01*
X0212514Y0018897D01*
X0212650Y0018982D01*
X0212788Y0019064D01*
X0212927Y0019143D01*
X0213069Y0019217D01*
X0213212Y0019289D01*
X0213357Y0019356D01*
X0213504Y0019420D01*
X0213653Y0019481D01*
X0213803Y0019538D01*
X0213954Y0019590D01*
X0214106Y0019640D01*
X0214260Y0019685D01*
X0214415Y0019726D01*
X0214570Y0019764D01*
X0214727Y0019798D01*
X0214884Y0019827D01*
X0215042Y0019853D01*
X0215201Y0019875D01*
X0215360Y0019893D01*
X0215520Y0019907D01*
X0215680Y0019917D01*
X0215840Y0019923D01*
X0216000Y0019925D01*
X0216160Y0019923D01*
X0216320Y0019917D01*
X0216480Y0019907D01*
X0216640Y0019893D01*
X0216799Y0019875D01*
X0216958Y0019853D01*
X0217116Y0019827D01*
X0217273Y0019798D01*
X0217430Y0019764D01*
X0217585Y0019726D01*
X0217740Y0019685D01*
X0217894Y0019640D01*
X0218046Y0019590D01*
X0218197Y0019538D01*
X0218347Y0019481D01*
X0218496Y0019420D01*
X0218643Y0019356D01*
X0218788Y0019289D01*
X0218931Y0019217D01*
X0219073Y0019143D01*
X0219213Y0019064D01*
X0219350Y0018982D01*
X0219486Y0018897D01*
X0219619Y0018809D01*
X0219751Y0018717D01*
X0219879Y0018622D01*
X0220006Y0018523D01*
X0220130Y0018422D01*
X0220251Y0018317D01*
X0220370Y0018210D01*
X0220486Y0018099D01*
X0220599Y0017986D01*
X0220710Y0017870D01*
X0220817Y0017751D01*
X0220922Y0017630D01*
X0221023Y0017506D01*
X0221122Y0017379D01*
X0221217Y0017251D01*
X0221309Y0017119D01*
X0221397Y0016986D01*
X0221482Y0016850D01*
X0221564Y0016712D01*
X0221643Y0016573D01*
X0221717Y0016431D01*
X0221789Y0016288D01*
X0221856Y0016143D01*
X0221920Y0015996D01*
X0221981Y0015847D01*
X0222038Y0015697D01*
X0222090Y0015546D01*
X0222140Y0015394D01*
X0222185Y0015240D01*
X0222226Y0015085D01*
X0222264Y0014930D01*
X0222298Y0014773D01*
X0222327Y0014616D01*
X0222353Y0014458D01*
X0222375Y0014299D01*
X0222393Y0014140D01*
X0222407Y0013980D01*
X0222417Y0013820D01*
X0222423Y0013660D01*
X0222425Y0013500D01*
X0222423Y0013340D01*
X0222417Y0013180D01*
X0222407Y0013020D01*
X0222393Y0012860D01*
X0222375Y0012701D01*
X0222353Y0012542D01*
X0222327Y0012384D01*
X0222298Y0012227D01*
X0222264Y0012070D01*
X0222226Y0011915D01*
X0222185Y0011760D01*
X0222140Y0011606D01*
X0222090Y0011454D01*
X0222038Y0011303D01*
X0221981Y0011153D01*
X0221920Y0011004D01*
X0221856Y0010857D01*
X0221789Y0010712D01*
X0221717Y0010569D01*
X0221643Y0010427D01*
X0221564Y0010287D01*
X0221482Y0010150D01*
X0221397Y0010014D01*
X0221309Y0009881D01*
X0221217Y0009749D01*
X0221122Y0009621D01*
X0221023Y0009494D01*
X0220922Y0009370D01*
X0220817Y0009249D01*
X0220710Y0009130D01*
X0220599Y0009014D01*
X0220486Y0008901D01*
X0220370Y0008790D01*
X0220251Y0008683D01*
X0220130Y0008578D01*
X0220006Y0008477D01*
X0219879Y0008378D01*
X0219751Y0008283D01*
X0219619Y0008191D01*
X0219486Y0008103D01*
X0219350Y0008018D01*
X0219212Y0007936D01*
X0219073Y0007857D01*
X0218931Y0007783D01*
X0218788Y0007711D01*
X0218643Y0007644D01*
X0218496Y0007580D01*
X0218347Y0007519D01*
X0218197Y0007462D01*
X0218046Y0007410D01*
X0217894Y0007360D01*
X0217740Y0007315D01*
X0217585Y0007274D01*
X0217430Y0007236D01*
X0217273Y0007202D01*
X0217116Y0007173D01*
X0216958Y0007147D01*
X0216799Y0007125D01*
X0216640Y0007107D01*
X0216480Y0007093D01*
X0216320Y0007083D01*
X0216160Y0007077D01*
X0216000Y0007075D01*
X0215840Y0007077D01*
X0215680Y0007083D01*
X0215520Y0007093D01*
X0215360Y0007107D01*
X0215201Y0007125D01*
X0215042Y0007147D01*
X0214884Y0007173D01*
X0214727Y0007202D01*
X0214570Y0007236D01*
X0214415Y0007274D01*
X0214260Y0007315D01*
X0214106Y0007360D01*
X0213954Y0007410D01*
X0213803Y0007462D01*
X0213653Y0007519D01*
X0213504Y0007580D01*
X0213357Y0007644D01*
X0213212Y0007711D01*
X0213069Y0007783D01*
X0212927Y0007857D01*
X0212787Y0007936D01*
X0212650Y0008018D01*
X0212514Y0008103D01*
X0212381Y0008191D01*
X0212249Y0008283D01*
X0212121Y0008378D01*
X0211994Y0008477D01*
X0211870Y0008578D01*
X0211749Y0008683D01*
X0211630Y0008790D01*
X0211514Y0008901D01*
X0211401Y0009014D01*
X0211290Y0009130D01*
X0211183Y0009249D01*
X0211078Y0009370D01*
X0210977Y0009494D01*
X0210878Y0009621D01*
X0210783Y0009749D01*
X0210691Y0009881D01*
X0210603Y0010014D01*
X0210518Y0010150D01*
X0210436Y0010288D01*
X0210357Y0010427D01*
X0210283Y0010569D01*
X0210211Y0010712D01*
X0210144Y0010857D01*
X0210080Y0011004D01*
X0210019Y0011153D01*
X0209962Y0011303D01*
X0209910Y0011454D01*
X0209860Y0011606D01*
X0209815Y0011760D01*
X0209774Y0011915D01*
X0209736Y0012070D01*
X0209702Y0012227D01*
X0209673Y0012384D01*
X0209647Y0012542D01*
X0209625Y0012701D01*
X0209607Y0012860D01*
X0209593Y0013020D01*
X0209583Y0013180D01*
X0209577Y0013340D01*
X0209575Y0013500D01*
X0212075Y0343500D02*
X0212077Y0343660D01*
X0212083Y0343820D01*
X0212093Y0343980D01*
X0212107Y0344140D01*
X0212125Y0344299D01*
X0212147Y0344458D01*
X0212173Y0344616D01*
X0212202Y0344773D01*
X0212236Y0344930D01*
X0212274Y0345085D01*
X0212315Y0345240D01*
X0212360Y0345394D01*
X0212410Y0345546D01*
X0212462Y0345697D01*
X0212519Y0345847D01*
X0212580Y0345996D01*
X0212644Y0346143D01*
X0212711Y0346288D01*
X0212783Y0346431D01*
X0212857Y0346573D01*
X0212936Y0346713D01*
X0213018Y0346850D01*
X0213103Y0346986D01*
X0213191Y0347119D01*
X0213283Y0347251D01*
X0213378Y0347379D01*
X0213477Y0347506D01*
X0213578Y0347630D01*
X0213683Y0347751D01*
X0213790Y0347870D01*
X0213901Y0347986D01*
X0214014Y0348099D01*
X0214130Y0348210D01*
X0214249Y0348317D01*
X0214370Y0348422D01*
X0214494Y0348523D01*
X0214621Y0348622D01*
X0214749Y0348717D01*
X0214881Y0348809D01*
X0215014Y0348897D01*
X0215150Y0348982D01*
X0215288Y0349064D01*
X0215427Y0349143D01*
X0215569Y0349217D01*
X0215712Y0349289D01*
X0215857Y0349356D01*
X0216004Y0349420D01*
X0216153Y0349481D01*
X0216303Y0349538D01*
X0216454Y0349590D01*
X0216606Y0349640D01*
X0216760Y0349685D01*
X0216915Y0349726D01*
X0217070Y0349764D01*
X0217227Y0349798D01*
X0217384Y0349827D01*
X0217542Y0349853D01*
X0217701Y0349875D01*
X0217860Y0349893D01*
X0218020Y0349907D01*
X0218180Y0349917D01*
X0218340Y0349923D01*
X0218500Y0349925D01*
X0218660Y0349923D01*
X0218820Y0349917D01*
X0218980Y0349907D01*
X0219140Y0349893D01*
X0219299Y0349875D01*
X0219458Y0349853D01*
X0219616Y0349827D01*
X0219773Y0349798D01*
X0219930Y0349764D01*
X0220085Y0349726D01*
X0220240Y0349685D01*
X0220394Y0349640D01*
X0220546Y0349590D01*
X0220697Y0349538D01*
X0220847Y0349481D01*
X0220996Y0349420D01*
X0221143Y0349356D01*
X0221288Y0349289D01*
X0221431Y0349217D01*
X0221573Y0349143D01*
X0221713Y0349064D01*
X0221850Y0348982D01*
X0221986Y0348897D01*
X0222119Y0348809D01*
X0222251Y0348717D01*
X0222379Y0348622D01*
X0222506Y0348523D01*
X0222630Y0348422D01*
X0222751Y0348317D01*
X0222870Y0348210D01*
X0222986Y0348099D01*
X0223099Y0347986D01*
X0223210Y0347870D01*
X0223317Y0347751D01*
X0223422Y0347630D01*
X0223523Y0347506D01*
X0223622Y0347379D01*
X0223717Y0347251D01*
X0223809Y0347119D01*
X0223897Y0346986D01*
X0223982Y0346850D01*
X0224064Y0346712D01*
X0224143Y0346573D01*
X0224217Y0346431D01*
X0224289Y0346288D01*
X0224356Y0346143D01*
X0224420Y0345996D01*
X0224481Y0345847D01*
X0224538Y0345697D01*
X0224590Y0345546D01*
X0224640Y0345394D01*
X0224685Y0345240D01*
X0224726Y0345085D01*
X0224764Y0344930D01*
X0224798Y0344773D01*
X0224827Y0344616D01*
X0224853Y0344458D01*
X0224875Y0344299D01*
X0224893Y0344140D01*
X0224907Y0343980D01*
X0224917Y0343820D01*
X0224923Y0343660D01*
X0224925Y0343500D01*
X0224923Y0343340D01*
X0224917Y0343180D01*
X0224907Y0343020D01*
X0224893Y0342860D01*
X0224875Y0342701D01*
X0224853Y0342542D01*
X0224827Y0342384D01*
X0224798Y0342227D01*
X0224764Y0342070D01*
X0224726Y0341915D01*
X0224685Y0341760D01*
X0224640Y0341606D01*
X0224590Y0341454D01*
X0224538Y0341303D01*
X0224481Y0341153D01*
X0224420Y0341004D01*
X0224356Y0340857D01*
X0224289Y0340712D01*
X0224217Y0340569D01*
X0224143Y0340427D01*
X0224064Y0340287D01*
X0223982Y0340150D01*
X0223897Y0340014D01*
X0223809Y0339881D01*
X0223717Y0339749D01*
X0223622Y0339621D01*
X0223523Y0339494D01*
X0223422Y0339370D01*
X0223317Y0339249D01*
X0223210Y0339130D01*
X0223099Y0339014D01*
X0222986Y0338901D01*
X0222870Y0338790D01*
X0222751Y0338683D01*
X0222630Y0338578D01*
X0222506Y0338477D01*
X0222379Y0338378D01*
X0222251Y0338283D01*
X0222119Y0338191D01*
X0221986Y0338103D01*
X0221850Y0338018D01*
X0221712Y0337936D01*
X0221573Y0337857D01*
X0221431Y0337783D01*
X0221288Y0337711D01*
X0221143Y0337644D01*
X0220996Y0337580D01*
X0220847Y0337519D01*
X0220697Y0337462D01*
X0220546Y0337410D01*
X0220394Y0337360D01*
X0220240Y0337315D01*
X0220085Y0337274D01*
X0219930Y0337236D01*
X0219773Y0337202D01*
X0219616Y0337173D01*
X0219458Y0337147D01*
X0219299Y0337125D01*
X0219140Y0337107D01*
X0218980Y0337093D01*
X0218820Y0337083D01*
X0218660Y0337077D01*
X0218500Y0337075D01*
X0218340Y0337077D01*
X0218180Y0337083D01*
X0218020Y0337093D01*
X0217860Y0337107D01*
X0217701Y0337125D01*
X0217542Y0337147D01*
X0217384Y0337173D01*
X0217227Y0337202D01*
X0217070Y0337236D01*
X0216915Y0337274D01*
X0216760Y0337315D01*
X0216606Y0337360D01*
X0216454Y0337410D01*
X0216303Y0337462D01*
X0216153Y0337519D01*
X0216004Y0337580D01*
X0215857Y0337644D01*
X0215712Y0337711D01*
X0215569Y0337783D01*
X0215427Y0337857D01*
X0215287Y0337936D01*
X0215150Y0338018D01*
X0215014Y0338103D01*
X0214881Y0338191D01*
X0214749Y0338283D01*
X0214621Y0338378D01*
X0214494Y0338477D01*
X0214370Y0338578D01*
X0214249Y0338683D01*
X0214130Y0338790D01*
X0214014Y0338901D01*
X0213901Y0339014D01*
X0213790Y0339130D01*
X0213683Y0339249D01*
X0213578Y0339370D01*
X0213477Y0339494D01*
X0213378Y0339621D01*
X0213283Y0339749D01*
X0213191Y0339881D01*
X0213103Y0340014D01*
X0213018Y0340150D01*
X0212936Y0340288D01*
X0212857Y0340427D01*
X0212783Y0340569D01*
X0212711Y0340712D01*
X0212644Y0340857D01*
X0212580Y0341004D01*
X0212519Y0341153D01*
X0212462Y0341303D01*
X0212410Y0341454D01*
X0212360Y0341606D01*
X0212315Y0341760D01*
X0212274Y0341915D01*
X0212236Y0342070D01*
X0212202Y0342227D01*
X0212173Y0342384D01*
X0212147Y0342542D01*
X0212125Y0342701D01*
X0212107Y0342860D01*
X0212093Y0343020D01*
X0212083Y0343180D01*
X0212077Y0343340D01*
X0212075Y0343500D01*
X0007075Y0343500D02*
X0007077Y0343660D01*
X0007083Y0343820D01*
X0007093Y0343980D01*
X0007107Y0344140D01*
X0007125Y0344299D01*
X0007147Y0344458D01*
X0007173Y0344616D01*
X0007202Y0344773D01*
X0007236Y0344930D01*
X0007274Y0345085D01*
X0007315Y0345240D01*
X0007360Y0345394D01*
X0007410Y0345546D01*
X0007462Y0345697D01*
X0007519Y0345847D01*
X0007580Y0345996D01*
X0007644Y0346143D01*
X0007711Y0346288D01*
X0007783Y0346431D01*
X0007857Y0346573D01*
X0007936Y0346713D01*
X0008018Y0346850D01*
X0008103Y0346986D01*
X0008191Y0347119D01*
X0008283Y0347251D01*
X0008378Y0347379D01*
X0008477Y0347506D01*
X0008578Y0347630D01*
X0008683Y0347751D01*
X0008790Y0347870D01*
X0008901Y0347986D01*
X0009014Y0348099D01*
X0009130Y0348210D01*
X0009249Y0348317D01*
X0009370Y0348422D01*
X0009494Y0348523D01*
X0009621Y0348622D01*
X0009749Y0348717D01*
X0009881Y0348809D01*
X0010014Y0348897D01*
X0010150Y0348982D01*
X0010288Y0349064D01*
X0010427Y0349143D01*
X0010569Y0349217D01*
X0010712Y0349289D01*
X0010857Y0349356D01*
X0011004Y0349420D01*
X0011153Y0349481D01*
X0011303Y0349538D01*
X0011454Y0349590D01*
X0011606Y0349640D01*
X0011760Y0349685D01*
X0011915Y0349726D01*
X0012070Y0349764D01*
X0012227Y0349798D01*
X0012384Y0349827D01*
X0012542Y0349853D01*
X0012701Y0349875D01*
X0012860Y0349893D01*
X0013020Y0349907D01*
X0013180Y0349917D01*
X0013340Y0349923D01*
X0013500Y0349925D01*
X0013660Y0349923D01*
X0013820Y0349917D01*
X0013980Y0349907D01*
X0014140Y0349893D01*
X0014299Y0349875D01*
X0014458Y0349853D01*
X0014616Y0349827D01*
X0014773Y0349798D01*
X0014930Y0349764D01*
X0015085Y0349726D01*
X0015240Y0349685D01*
X0015394Y0349640D01*
X0015546Y0349590D01*
X0015697Y0349538D01*
X0015847Y0349481D01*
X0015996Y0349420D01*
X0016143Y0349356D01*
X0016288Y0349289D01*
X0016431Y0349217D01*
X0016573Y0349143D01*
X0016713Y0349064D01*
X0016850Y0348982D01*
X0016986Y0348897D01*
X0017119Y0348809D01*
X0017251Y0348717D01*
X0017379Y0348622D01*
X0017506Y0348523D01*
X0017630Y0348422D01*
X0017751Y0348317D01*
X0017870Y0348210D01*
X0017986Y0348099D01*
X0018099Y0347986D01*
X0018210Y0347870D01*
X0018317Y0347751D01*
X0018422Y0347630D01*
X0018523Y0347506D01*
X0018622Y0347379D01*
X0018717Y0347251D01*
X0018809Y0347119D01*
X0018897Y0346986D01*
X0018982Y0346850D01*
X0019064Y0346712D01*
X0019143Y0346573D01*
X0019217Y0346431D01*
X0019289Y0346288D01*
X0019356Y0346143D01*
X0019420Y0345996D01*
X0019481Y0345847D01*
X0019538Y0345697D01*
X0019590Y0345546D01*
X0019640Y0345394D01*
X0019685Y0345240D01*
X0019726Y0345085D01*
X0019764Y0344930D01*
X0019798Y0344773D01*
X0019827Y0344616D01*
X0019853Y0344458D01*
X0019875Y0344299D01*
X0019893Y0344140D01*
X0019907Y0343980D01*
X0019917Y0343820D01*
X0019923Y0343660D01*
X0019925Y0343500D01*
X0019923Y0343340D01*
X0019917Y0343180D01*
X0019907Y0343020D01*
X0019893Y0342860D01*
X0019875Y0342701D01*
X0019853Y0342542D01*
X0019827Y0342384D01*
X0019798Y0342227D01*
X0019764Y0342070D01*
X0019726Y0341915D01*
X0019685Y0341760D01*
X0019640Y0341606D01*
X0019590Y0341454D01*
X0019538Y0341303D01*
X0019481Y0341153D01*
X0019420Y0341004D01*
X0019356Y0340857D01*
X0019289Y0340712D01*
X0019217Y0340569D01*
X0019143Y0340427D01*
X0019064Y0340287D01*
X0018982Y0340150D01*
X0018897Y0340014D01*
X0018809Y0339881D01*
X0018717Y0339749D01*
X0018622Y0339621D01*
X0018523Y0339494D01*
X0018422Y0339370D01*
X0018317Y0339249D01*
X0018210Y0339130D01*
X0018099Y0339014D01*
X0017986Y0338901D01*
X0017870Y0338790D01*
X0017751Y0338683D01*
X0017630Y0338578D01*
X0017506Y0338477D01*
X0017379Y0338378D01*
X0017251Y0338283D01*
X0017119Y0338191D01*
X0016986Y0338103D01*
X0016850Y0338018D01*
X0016712Y0337936D01*
X0016573Y0337857D01*
X0016431Y0337783D01*
X0016288Y0337711D01*
X0016143Y0337644D01*
X0015996Y0337580D01*
X0015847Y0337519D01*
X0015697Y0337462D01*
X0015546Y0337410D01*
X0015394Y0337360D01*
X0015240Y0337315D01*
X0015085Y0337274D01*
X0014930Y0337236D01*
X0014773Y0337202D01*
X0014616Y0337173D01*
X0014458Y0337147D01*
X0014299Y0337125D01*
X0014140Y0337107D01*
X0013980Y0337093D01*
X0013820Y0337083D01*
X0013660Y0337077D01*
X0013500Y0337075D01*
X0013340Y0337077D01*
X0013180Y0337083D01*
X0013020Y0337093D01*
X0012860Y0337107D01*
X0012701Y0337125D01*
X0012542Y0337147D01*
X0012384Y0337173D01*
X0012227Y0337202D01*
X0012070Y0337236D01*
X0011915Y0337274D01*
X0011760Y0337315D01*
X0011606Y0337360D01*
X0011454Y0337410D01*
X0011303Y0337462D01*
X0011153Y0337519D01*
X0011004Y0337580D01*
X0010857Y0337644D01*
X0010712Y0337711D01*
X0010569Y0337783D01*
X0010427Y0337857D01*
X0010287Y0337936D01*
X0010150Y0338018D01*
X0010014Y0338103D01*
X0009881Y0338191D01*
X0009749Y0338283D01*
X0009621Y0338378D01*
X0009494Y0338477D01*
X0009370Y0338578D01*
X0009249Y0338683D01*
X0009130Y0338790D01*
X0009014Y0338901D01*
X0008901Y0339014D01*
X0008790Y0339130D01*
X0008683Y0339249D01*
X0008578Y0339370D01*
X0008477Y0339494D01*
X0008378Y0339621D01*
X0008283Y0339749D01*
X0008191Y0339881D01*
X0008103Y0340014D01*
X0008018Y0340150D01*
X0007936Y0340288D01*
X0007857Y0340427D01*
X0007783Y0340569D01*
X0007711Y0340712D01*
X0007644Y0340857D01*
X0007580Y0341004D01*
X0007519Y0341153D01*
X0007462Y0341303D01*
X0007410Y0341454D01*
X0007360Y0341606D01*
X0007315Y0341760D01*
X0007274Y0341915D01*
X0007236Y0342070D01*
X0007202Y0342227D01*
X0007173Y0342384D01*
X0007147Y0342542D01*
X0007125Y0342701D01*
X0007107Y0342860D01*
X0007093Y0343020D01*
X0007083Y0343180D01*
X0007077Y0343340D01*
X0007075Y0343500D01*
M02*
