G75*
%MOIN*%
%OFA0B0*%
%FSLAX25Y25*%
%IPPOS*%
%LPD*%
%AMOC8*
5,1,8,0,0,1.08239X$1,22.5*
%
%ADD10R,0.05906X0.05118*%
%ADD11R,0.05118X0.05906*%
%ADD12C,0.07677*%
%ADD13R,0.05512X0.03937*%
%ADD14R,0.03937X0.05512*%
%ADD15R,0.12598X0.07087*%
%ADD16R,0.01772X0.05906*%
%ADD17C,0.05250*%
%ADD18C,0.06450*%
%ADD19C,0.05906*%
%ADD20R,0.08661X0.02362*%
%ADD21R,0.02362X0.08661*%
%ADD22C,0.03962*%
%ADD23C,0.02400*%
%ADD24C,0.01600*%
%ADD25C,0.03200*%
%ADD26C,0.03569*%
D10*
X0168500Y0023860D03*
X0168500Y0031340D03*
X0178500Y0031340D03*
X0188500Y0031340D03*
X0198500Y0031340D03*
X0198500Y0023860D03*
X0188500Y0023860D03*
X0178500Y0023860D03*
X0216000Y0056360D03*
X0226000Y0056360D03*
X0226000Y0063840D03*
X0216000Y0063840D03*
X0251000Y0056340D03*
X0261000Y0056340D03*
X0261000Y0048860D03*
X0251000Y0048860D03*
X0191000Y0093860D03*
X0191000Y0101340D03*
X0168500Y0118860D03*
X0168500Y0126340D03*
X0123500Y0152610D03*
X0123500Y0160090D03*
X0123500Y0168860D03*
X0123500Y0176340D03*
X0151000Y0172590D03*
X0151000Y0165110D03*
X0151000Y0185110D03*
X0151000Y0192590D03*
X0191000Y0192590D03*
X0191000Y0185110D03*
X0191000Y0172590D03*
X0191000Y0165110D03*
X0231000Y0165110D03*
X0231000Y0172590D03*
X0242250Y0161340D03*
X0242250Y0153860D03*
X0261000Y0143840D03*
X0261000Y0136360D03*
X0271000Y0136360D03*
X0271000Y0143840D03*
X0281000Y0143840D03*
X0281000Y0136360D03*
X0231000Y0185110D03*
X0231000Y0192590D03*
X0176000Y0078840D03*
X0176000Y0071360D03*
D11*
X0175990Y0062600D03*
X0168510Y0062600D03*
X0168510Y0052600D03*
X0175990Y0052600D03*
X0177240Y0042600D03*
X0169760Y0042600D03*
X0237260Y0082600D03*
X0244740Y0082600D03*
X0247240Y0112600D03*
X0239760Y0112600D03*
X0239760Y0122600D03*
X0247240Y0122600D03*
X0225990Y0117600D03*
X0218510Y0117600D03*
X0242260Y0143850D03*
X0249740Y0143850D03*
X0179740Y0107600D03*
X0172260Y0107600D03*
X0172260Y0097600D03*
X0179740Y0097600D03*
X0179740Y0087600D03*
X0172260Y0087600D03*
X0154740Y0135100D03*
X0147260Y0135100D03*
X0114740Y0142600D03*
X0107260Y0142600D03*
X0107260Y0186350D03*
X0114740Y0186350D03*
X0162260Y0192600D03*
X0169740Y0192600D03*
X0202260Y0192600D03*
X0209740Y0192600D03*
X0242260Y0192600D03*
X0249740Y0192600D03*
D12*
X0301000Y0167600D03*
X0301000Y0147600D03*
X0301000Y0127600D03*
X0301000Y0117600D03*
X0301000Y0107600D03*
X0301000Y0097600D03*
X0301000Y0087600D03*
X0301000Y0077600D03*
X0301000Y0067600D03*
X0301000Y0057600D03*
X0301000Y0047600D03*
X0301000Y0037600D03*
X0056000Y0187600D03*
X0036000Y0187600D03*
X0036000Y0132600D03*
X0036000Y0112600D03*
D13*
X0106669Y0156350D03*
X0115331Y0152610D03*
X0115331Y0160090D03*
X0115331Y0168860D03*
X0115331Y0176340D03*
X0106669Y0172600D03*
X0155331Y0126340D03*
X0146669Y0122600D03*
X0155331Y0118860D03*
D14*
X0162260Y0173269D03*
X0169740Y0173269D03*
X0166000Y0181931D03*
X0202260Y0173269D03*
X0209740Y0173269D03*
X0206000Y0181931D03*
X0242260Y0173269D03*
X0249740Y0173269D03*
X0246000Y0181931D03*
D15*
X0056000Y0138624D03*
X0056000Y0116576D03*
D16*
X0184543Y0074497D03*
X0187102Y0074497D03*
X0189661Y0074497D03*
X0192220Y0074497D03*
X0194780Y0074497D03*
X0197339Y0074497D03*
X0199898Y0074497D03*
X0202457Y0074497D03*
X0202457Y0050703D03*
X0199898Y0050703D03*
X0197339Y0050703D03*
X0194780Y0050703D03*
X0192220Y0050703D03*
X0189661Y0050703D03*
X0187102Y0050703D03*
X0184543Y0050703D03*
D17*
X0121000Y0117600D03*
X0121000Y0127600D03*
X0081000Y0117600D03*
D18*
X0081000Y0157600D03*
X0081000Y0187600D03*
D19*
X0036000Y0022600D03*
X0036000Y0082600D03*
X0146000Y0082600D03*
X0146000Y0052600D03*
D20*
X0190764Y0130100D03*
X0190764Y0135100D03*
X0190764Y0140100D03*
X0190764Y0145100D03*
X0211236Y0145100D03*
X0211236Y0140100D03*
X0211236Y0135100D03*
X0211236Y0130100D03*
D21*
X0213500Y0102836D03*
X0218500Y0102836D03*
X0223500Y0102836D03*
X0228500Y0102836D03*
X0228500Y0082364D03*
X0223500Y0082364D03*
X0218500Y0082364D03*
X0213500Y0082364D03*
D22*
X0228500Y0075100D03*
X0208500Y0073850D03*
X0208500Y0067600D03*
X0208500Y0057600D03*
X0191000Y0042600D03*
X0216000Y0040100D03*
X0226000Y0040100D03*
X0266000Y0077600D03*
X0251000Y0082600D03*
X0253500Y0112600D03*
X0253500Y0122600D03*
X0232250Y0117600D03*
X0221000Y0130100D03*
X0221000Y0145100D03*
X0221000Y0157600D03*
X0231000Y0178850D03*
X0256000Y0161350D03*
X0191000Y0178850D03*
X0176000Y0167600D03*
X0171000Y0152600D03*
X0161000Y0152600D03*
X0168500Y0132600D03*
X0138500Y0127600D03*
X0121000Y0142600D03*
X0098500Y0170100D03*
X0121000Y0186350D03*
X0151000Y0178850D03*
X0151000Y0107600D03*
X0191000Y0107600D03*
X0166000Y0071350D03*
X0162250Y0022600D03*
X0081000Y0107600D03*
D23*
X0107260Y0142600D02*
X0107260Y0155759D01*
X0106669Y0156350D01*
X0115331Y0152610D02*
X0116000Y0151941D01*
X0123510Y0168850D02*
X0123500Y0168860D01*
X0107260Y0173191D02*
X0106669Y0172600D01*
X0151000Y0178850D02*
X0151000Y0185110D01*
X0151000Y0192590D02*
X0151010Y0192600D01*
X0162260Y0192600D01*
X0169740Y0192600D02*
X0169750Y0192590D01*
X0166581Y0181931D02*
X0166000Y0181931D01*
X0162260Y0173269D02*
X0161581Y0172590D01*
X0191000Y0172590D02*
X0191679Y0173269D01*
X0206000Y0181931D02*
X0206000Y0182600D01*
X0209750Y0192590D02*
X0209740Y0192600D01*
X0231000Y0192590D02*
X0231010Y0192600D01*
X0231000Y0185110D02*
X0231000Y0178850D01*
X0241581Y0172590D02*
X0242260Y0173269D01*
X0246000Y0181931D02*
X0246000Y0182600D01*
X0249750Y0192590D02*
X0249740Y0192600D01*
D24*
X0249750Y0192590D02*
X0249750Y0186350D01*
X0246000Y0182600D01*
X0242260Y0173269D02*
X0242260Y0162009D01*
X0241581Y0162009D01*
X0242240Y0161350D01*
X0256000Y0161350D01*
X0267260Y0153860D02*
X0242250Y0153860D01*
X0242260Y0143850D01*
X0261000Y0136360D02*
X0261000Y0117600D01*
X0301000Y0077600D01*
X0301000Y0067600D02*
X0256000Y0067600D01*
X0251000Y0062600D01*
X0251000Y0056340D01*
X0261000Y0056340D02*
X0261000Y0057600D01*
X0301000Y0057600D01*
X0266000Y0077600D02*
X0254750Y0088850D01*
X0203500Y0088850D01*
X0203500Y0086350D01*
X0199898Y0082748D01*
X0199898Y0074497D01*
X0202457Y0074497D02*
X0202810Y0073850D01*
X0208500Y0073850D01*
X0208500Y0067600D02*
X0197250Y0067600D01*
X0194750Y0070100D01*
X0194780Y0070130D01*
X0194780Y0074497D01*
X0194780Y0087630D01*
X0197250Y0090100D01*
X0197250Y0133850D01*
X0196000Y0135100D01*
X0190764Y0135100D01*
X0190764Y0140100D02*
X0196000Y0140100D01*
X0199750Y0136350D01*
X0199750Y0092600D01*
X0203500Y0088850D01*
X0199750Y0087600D02*
X0197339Y0085011D01*
X0197339Y0074497D01*
X0192220Y0074497D02*
X0192220Y0092639D01*
X0191000Y0093860D01*
X0183500Y0087600D02*
X0179740Y0087600D01*
X0183500Y0087600D02*
X0189750Y0081350D01*
X0189750Y0073585D01*
X0189661Y0074497D01*
X0187250Y0074644D02*
X0187250Y0078850D01*
X0184750Y0081350D01*
X0178510Y0081350D01*
X0176000Y0078840D01*
X0167240Y0071360D02*
X0167198Y0071320D01*
X0167154Y0071283D01*
X0167108Y0071250D01*
X0167060Y0071219D01*
X0167009Y0071192D01*
X0166957Y0071167D01*
X0166903Y0071147D01*
X0166849Y0071130D01*
X0166793Y0071116D01*
X0166736Y0071106D01*
X0166679Y0071100D01*
X0166622Y0071098D01*
X0166565Y0071099D01*
X0166507Y0071105D01*
X0166451Y0071114D01*
X0166395Y0071126D01*
X0166340Y0071142D01*
X0166286Y0071162D01*
X0166233Y0071185D01*
X0166183Y0071212D01*
X0166134Y0071242D01*
X0166087Y0071275D01*
X0166042Y0071311D01*
X0166000Y0071350D01*
X0167240Y0071360D02*
X0176000Y0071360D01*
X0175990Y0071350D01*
X0175990Y0062600D01*
X0175990Y0052600D01*
X0184543Y0050703D02*
X0184543Y0046143D01*
X0181000Y0042600D01*
X0177240Y0042600D01*
X0177240Y0032600D01*
X0178500Y0031340D01*
X0188500Y0031340D01*
X0198500Y0031340D01*
X0202250Y0037600D02*
X0202457Y0037807D01*
X0202457Y0050703D01*
X0197339Y0050703D02*
X0197250Y0050792D01*
X0197250Y0055100D01*
X0199750Y0057600D01*
X0208500Y0057600D01*
X0216000Y0056360D02*
X0216000Y0040100D01*
X0226000Y0040100D02*
X0226000Y0056360D01*
X0228500Y0075100D02*
X0228500Y0082364D01*
X0244740Y0082600D02*
X0251000Y0082600D01*
X0218500Y0097600D02*
X0218500Y0102836D01*
X0218510Y0102836D01*
X0218510Y0117600D01*
X0225990Y0117600D02*
X0232250Y0117600D01*
X0236000Y0122600D02*
X0239760Y0122600D01*
X0239760Y0112600D01*
X0247240Y0112600D02*
X0253500Y0112600D01*
X0253500Y0122600D02*
X0247240Y0122600D01*
X0236000Y0122600D02*
X0232250Y0126350D01*
X0232250Y0127600D01*
X0232240Y0127610D01*
X0232240Y0157590D01*
X0236000Y0161350D01*
X0242240Y0161350D01*
X0242250Y0161340D01*
X0241581Y0172590D02*
X0231000Y0172590D01*
X0221000Y0157600D02*
X0207250Y0157600D01*
X0202250Y0162600D01*
X0202250Y0167600D01*
X0202260Y0167610D01*
X0202260Y0173269D01*
X0191679Y0173269D01*
X0191000Y0172590D02*
X0190990Y0172600D01*
X0181000Y0172600D01*
X0176000Y0167600D01*
X0162260Y0173269D02*
X0162260Y0161340D01*
X0171000Y0152600D01*
X0179750Y0148850D02*
X0166000Y0135100D01*
X0154740Y0135100D01*
X0154740Y0126931D01*
X0155331Y0126340D01*
X0146669Y0122600D02*
X0141000Y0122600D01*
X0138500Y0125100D01*
X0138500Y0127600D01*
X0138500Y0131350D01*
X0142250Y0135100D01*
X0147260Y0135100D01*
X0168500Y0132600D02*
X0168500Y0126340D01*
X0172260Y0107600D02*
X0151000Y0107600D01*
X0172260Y0107600D02*
X0172260Y0097600D01*
X0172240Y0087620D01*
X0172260Y0087600D01*
X0187102Y0074497D02*
X0187250Y0074644D01*
X0187102Y0074497D02*
X0187250Y0073644D01*
X0189750Y0051615D02*
X0189750Y0047600D01*
X0191000Y0046350D01*
X0191000Y0042600D01*
X0191000Y0046350D02*
X0192250Y0047600D01*
X0192250Y0051674D01*
X0192220Y0050703D01*
X0189661Y0050703D02*
X0189750Y0051615D01*
X0187250Y0050556D02*
X0187250Y0037600D01*
X0202250Y0037600D01*
X0187250Y0050556D02*
X0187102Y0050703D01*
X0169760Y0042600D02*
X0168500Y0042600D01*
X0168500Y0031340D01*
X0168500Y0023860D02*
X0167240Y0022600D01*
X0162250Y0022600D01*
X0168500Y0042100D02*
X0169000Y0042600D01*
X0169760Y0042600D01*
X0206000Y0092600D02*
X0202250Y0096350D01*
X0202250Y0138850D01*
X0196000Y0145100D01*
X0190764Y0145100D01*
X0196000Y0148850D02*
X0179750Y0148850D01*
X0196000Y0148850D02*
X0204750Y0140100D01*
X0211236Y0140100D01*
X0211236Y0145100D02*
X0221000Y0145100D01*
X0211236Y0145100D02*
X0211000Y0145100D01*
X0211236Y0135110D02*
X0211236Y0135100D01*
X0207250Y0135100D01*
X0204750Y0132600D01*
X0204750Y0098850D01*
X0208500Y0095100D01*
X0216000Y0095100D01*
X0218500Y0097600D01*
X0191000Y0101340D02*
X0191000Y0107600D01*
X0211236Y0130100D02*
X0221000Y0130100D01*
X0267260Y0153860D02*
X0294750Y0153850D01*
X0301000Y0147600D01*
X0281000Y0136360D02*
X0281000Y0117600D01*
X0301000Y0097600D01*
X0301000Y0087600D02*
X0271000Y0117600D01*
X0271000Y0136360D01*
X0209750Y0186350D02*
X0206000Y0182600D01*
X0209750Y0186350D02*
X0209750Y0192590D01*
X0202260Y0192600D02*
X0202250Y0192590D01*
X0191000Y0192590D01*
X0191000Y0185110D02*
X0191000Y0178850D01*
X0169750Y0185100D02*
X0169750Y0192590D01*
X0169750Y0185100D02*
X0166581Y0181931D01*
X0161581Y0172590D02*
X0151000Y0172590D01*
X0127230Y0172590D01*
X0123500Y0168860D01*
X0115331Y0168860D01*
X0115331Y0176340D02*
X0123500Y0176340D01*
X0121000Y0186350D02*
X0114740Y0186350D01*
X0107260Y0186350D02*
X0107260Y0173191D01*
X0106669Y0172600D02*
X0101000Y0172600D01*
X0098500Y0170100D01*
X0091000Y0167600D02*
X0091000Y0147600D01*
X0071000Y0147600D01*
X0066000Y0142600D01*
X0066000Y0132600D01*
X0046000Y0132600D01*
X0046000Y0152600D01*
X0061000Y0167600D01*
X0091000Y0167600D01*
X0091000Y0167247D02*
X0060647Y0167247D01*
X0059048Y0165648D02*
X0091000Y0165648D01*
X0091000Y0164050D02*
X0057450Y0164050D01*
X0055851Y0162451D02*
X0079669Y0162451D01*
X0079823Y0162501D02*
X0079071Y0162257D01*
X0078366Y0161898D01*
X0077726Y0161433D01*
X0077167Y0160874D01*
X0076702Y0160234D01*
X0076343Y0159529D01*
X0076099Y0158777D01*
X0075975Y0157995D01*
X0075975Y0157875D01*
X0080725Y0157875D01*
X0080725Y0162625D01*
X0080605Y0162625D01*
X0079823Y0162501D01*
X0080725Y0162451D02*
X0081275Y0162451D01*
X0081275Y0162625D02*
X0081275Y0157875D01*
X0080725Y0157875D01*
X0080725Y0157325D01*
X0075975Y0157325D01*
X0075975Y0157205D01*
X0076099Y0156423D01*
X0076343Y0155671D01*
X0076702Y0154966D01*
X0077167Y0154326D01*
X0077726Y0153767D01*
X0078366Y0153302D01*
X0079071Y0152943D01*
X0079823Y0152699D01*
X0080605Y0152575D01*
X0080725Y0152575D01*
X0080725Y0157325D01*
X0081275Y0157325D01*
X0081275Y0157875D01*
X0086025Y0157875D01*
X0086025Y0157995D01*
X0085901Y0158777D01*
X0085657Y0159529D01*
X0085298Y0160234D01*
X0084833Y0160874D01*
X0084274Y0161433D01*
X0083634Y0161898D01*
X0082929Y0162257D01*
X0082177Y0162501D01*
X0081395Y0162625D01*
X0081275Y0162625D01*
X0082331Y0162451D02*
X0091000Y0162451D01*
X0091000Y0160853D02*
X0084848Y0160853D01*
X0085746Y0159254D02*
X0091000Y0159254D01*
X0091000Y0157656D02*
X0081275Y0157656D01*
X0081275Y0157325D02*
X0086025Y0157325D01*
X0086025Y0157205D01*
X0085901Y0156423D01*
X0085657Y0155671D01*
X0085298Y0154966D01*
X0084833Y0154326D01*
X0084274Y0153767D01*
X0083634Y0153302D01*
X0082929Y0152943D01*
X0082177Y0152699D01*
X0081395Y0152575D01*
X0081275Y0152575D01*
X0081275Y0157325D01*
X0080725Y0157656D02*
X0051056Y0157656D01*
X0052654Y0159254D02*
X0076254Y0159254D01*
X0077152Y0160853D02*
X0054253Y0160853D01*
X0049457Y0156057D02*
X0076218Y0156057D01*
X0077071Y0154459D02*
X0047859Y0154459D01*
X0046260Y0152860D02*
X0079327Y0152860D01*
X0080725Y0152860D02*
X0081275Y0152860D01*
X0082673Y0152860D02*
X0091000Y0152860D01*
X0091000Y0151262D02*
X0046000Y0151262D01*
X0046000Y0149663D02*
X0091000Y0149663D01*
X0091000Y0148065D02*
X0046000Y0148065D01*
X0046000Y0146466D02*
X0069866Y0146466D01*
X0068268Y0144868D02*
X0046000Y0144868D01*
X0046000Y0143269D02*
X0048259Y0143269D01*
X0048260Y0143272D02*
X0048023Y0142862D01*
X0047901Y0142404D01*
X0047901Y0139424D01*
X0055200Y0139424D01*
X0055200Y0143967D01*
X0049464Y0143967D01*
X0049006Y0143844D01*
X0048596Y0143607D01*
X0048260Y0143272D01*
X0047901Y0141670D02*
X0046000Y0141670D01*
X0046000Y0140072D02*
X0047901Y0140072D01*
X0047901Y0137824D02*
X0047901Y0134843D01*
X0048023Y0134386D01*
X0048260Y0133975D01*
X0048596Y0133640D01*
X0049006Y0133403D01*
X0049464Y0133280D01*
X0055200Y0133280D01*
X0055200Y0137824D01*
X0047901Y0137824D01*
X0047901Y0136875D02*
X0046000Y0136875D01*
X0046000Y0138473D02*
X0055200Y0138473D01*
X0055200Y0137824D02*
X0055200Y0139424D01*
X0056800Y0139424D01*
X0056800Y0143967D01*
X0062536Y0143967D01*
X0062994Y0143844D01*
X0063404Y0143607D01*
X0063740Y0143272D01*
X0063977Y0142862D01*
X0064099Y0142404D01*
X0064099Y0139424D01*
X0056800Y0139424D01*
X0056800Y0137824D01*
X0064099Y0137824D01*
X0064099Y0134843D01*
X0063977Y0134386D01*
X0063740Y0133975D01*
X0063404Y0133640D01*
X0062994Y0133403D01*
X0062536Y0133280D01*
X0056800Y0133280D01*
X0056800Y0137824D01*
X0055200Y0137824D01*
X0055200Y0136875D02*
X0056800Y0136875D01*
X0056800Y0138473D02*
X0066000Y0138473D01*
X0066000Y0136875D02*
X0064099Y0136875D01*
X0064099Y0135276D02*
X0066000Y0135276D01*
X0066000Y0133678D02*
X0063442Y0133678D01*
X0056800Y0133678D02*
X0055200Y0133678D01*
X0055200Y0135276D02*
X0056800Y0135276D01*
X0048558Y0133678D02*
X0046000Y0133678D01*
X0046000Y0135276D02*
X0047901Y0135276D01*
X0055200Y0140072D02*
X0056800Y0140072D01*
X0056800Y0141670D02*
X0055200Y0141670D01*
X0055200Y0143269D02*
X0056800Y0143269D01*
X0063741Y0143269D02*
X0066669Y0143269D01*
X0066000Y0141670D02*
X0064099Y0141670D01*
X0064099Y0140072D02*
X0066000Y0140072D01*
X0080725Y0154459D02*
X0081275Y0154459D01*
X0081275Y0156057D02*
X0080725Y0156057D01*
X0084929Y0154459D02*
X0091000Y0154459D01*
X0091000Y0156057D02*
X0085782Y0156057D01*
X0081275Y0159254D02*
X0080725Y0159254D01*
X0080725Y0160853D02*
X0081275Y0160853D01*
X0091000Y0177600D02*
X0046000Y0177600D01*
X0046000Y0197600D01*
X0091000Y0197600D01*
X0091000Y0177600D01*
X0091000Y0178436D02*
X0046000Y0178436D01*
X0046000Y0180035D02*
X0091000Y0180035D01*
X0091000Y0181633D02*
X0046000Y0181633D01*
X0046000Y0183232D02*
X0052419Y0183232D01*
X0052327Y0183299D02*
X0053045Y0182777D01*
X0053836Y0182375D01*
X0054680Y0182100D01*
X0055520Y0181967D01*
X0055520Y0187120D01*
X0050367Y0187120D01*
X0050500Y0186280D01*
X0050775Y0185436D01*
X0051177Y0184645D01*
X0051699Y0183927D01*
X0052327Y0183299D01*
X0051083Y0184830D02*
X0046000Y0184830D01*
X0046000Y0186429D02*
X0050477Y0186429D01*
X0050367Y0188080D02*
X0055520Y0188080D01*
X0055520Y0193233D01*
X0054680Y0193100D01*
X0053836Y0192825D01*
X0053045Y0192423D01*
X0052327Y0191901D01*
X0051699Y0191273D01*
X0051177Y0190555D01*
X0050775Y0189764D01*
X0050500Y0188920D01*
X0050367Y0188080D01*
X0050729Y0189626D02*
X0046000Y0189626D01*
X0046000Y0191224D02*
X0051664Y0191224D01*
X0053830Y0192823D02*
X0046000Y0192823D01*
X0046000Y0194421D02*
X0091000Y0194421D01*
X0091000Y0192823D02*
X0058170Y0192823D01*
X0058164Y0192825D02*
X0057320Y0193100D01*
X0056480Y0193233D01*
X0056480Y0188080D01*
X0055520Y0188080D01*
X0055520Y0187120D01*
X0056480Y0187120D01*
X0056480Y0188080D01*
X0061633Y0188080D01*
X0061500Y0188920D01*
X0061225Y0189764D01*
X0060823Y0190555D01*
X0060301Y0191273D01*
X0059673Y0191901D01*
X0058955Y0192423D01*
X0058164Y0192825D01*
X0056480Y0192823D02*
X0055520Y0192823D01*
X0055520Y0191224D02*
X0056480Y0191224D01*
X0056480Y0189626D02*
X0055520Y0189626D01*
X0055520Y0188027D02*
X0046000Y0188027D01*
X0055520Y0186429D02*
X0056480Y0186429D01*
X0056480Y0187120D02*
X0056480Y0181967D01*
X0057320Y0182100D01*
X0058164Y0182375D01*
X0058955Y0182777D01*
X0059673Y0183299D01*
X0060301Y0183927D01*
X0060823Y0184645D01*
X0061225Y0185436D01*
X0061500Y0186280D01*
X0061633Y0187120D01*
X0056480Y0187120D01*
X0056480Y0188027D02*
X0075980Y0188027D01*
X0075975Y0187995D02*
X0075975Y0187875D01*
X0080725Y0187875D01*
X0080725Y0192625D01*
X0080605Y0192625D01*
X0079823Y0192501D01*
X0079071Y0192257D01*
X0078366Y0191898D01*
X0077726Y0191433D01*
X0077167Y0190874D01*
X0076702Y0190234D01*
X0076343Y0189529D01*
X0076099Y0188777D01*
X0075975Y0187995D01*
X0075975Y0187325D02*
X0075975Y0187205D01*
X0076099Y0186423D01*
X0076343Y0185671D01*
X0076702Y0184966D01*
X0077167Y0184326D01*
X0077726Y0183767D01*
X0078366Y0183302D01*
X0079071Y0182943D01*
X0079823Y0182699D01*
X0080605Y0182575D01*
X0080725Y0182575D01*
X0080725Y0187325D01*
X0075975Y0187325D01*
X0076098Y0186429D02*
X0061523Y0186429D01*
X0060917Y0184830D02*
X0076801Y0184830D01*
X0078505Y0183232D02*
X0059581Y0183232D01*
X0056480Y0183232D02*
X0055520Y0183232D01*
X0055520Y0184830D02*
X0056480Y0184830D01*
X0061271Y0189626D02*
X0076393Y0189626D01*
X0077518Y0191224D02*
X0060336Y0191224D01*
X0046000Y0196020D02*
X0091000Y0196020D01*
X0091000Y0191224D02*
X0084482Y0191224D01*
X0084274Y0191433D02*
X0083634Y0191898D01*
X0082929Y0192257D01*
X0082177Y0192501D01*
X0081395Y0192625D01*
X0081275Y0192625D01*
X0081275Y0187875D01*
X0080725Y0187875D01*
X0080725Y0187325D01*
X0081275Y0187325D01*
X0081275Y0187875D01*
X0086025Y0187875D01*
X0086025Y0187995D01*
X0085901Y0188777D01*
X0085657Y0189529D01*
X0085298Y0190234D01*
X0084833Y0190874D01*
X0084274Y0191433D01*
X0085607Y0189626D02*
X0091000Y0189626D01*
X0091000Y0188027D02*
X0086020Y0188027D01*
X0086025Y0187325D02*
X0081275Y0187325D01*
X0081275Y0182575D01*
X0081395Y0182575D01*
X0082177Y0182699D01*
X0082929Y0182943D01*
X0083634Y0183302D01*
X0084274Y0183767D01*
X0084833Y0184326D01*
X0085298Y0184966D01*
X0085657Y0185671D01*
X0085901Y0186423D01*
X0086025Y0187205D01*
X0086025Y0187325D01*
X0085902Y0186429D02*
X0091000Y0186429D01*
X0091000Y0184830D02*
X0085199Y0184830D01*
X0083495Y0183232D02*
X0091000Y0183232D01*
X0081275Y0183232D02*
X0080725Y0183232D01*
X0080725Y0184830D02*
X0081275Y0184830D01*
X0081275Y0186429D02*
X0080725Y0186429D01*
X0080725Y0188027D02*
X0081275Y0188027D01*
X0081275Y0189626D02*
X0080725Y0189626D01*
X0080725Y0191224D02*
X0081275Y0191224D01*
X0115331Y0160090D02*
X0123500Y0160090D01*
X0123500Y0152610D02*
X0115331Y0152610D01*
X0121000Y0152600D02*
X0123490Y0152600D01*
X0123500Y0152610D01*
X0123490Y0152600D02*
X0161000Y0152600D01*
X0126000Y0132600D02*
X0126000Y0120100D01*
X0123500Y0117600D01*
X0121000Y0117600D01*
X0126000Y0132600D02*
X0123500Y0135100D01*
X0109750Y0135100D01*
X0107250Y0137600D01*
X0107260Y0137610D01*
X0107260Y0142600D01*
X0114740Y0142600D02*
X0121000Y0142600D01*
X0081000Y0107600D02*
X0072024Y0116576D01*
X0056000Y0116576D01*
X0056800Y0116094D02*
X0066000Y0116094D01*
X0066000Y0114496D02*
X0064099Y0114496D01*
X0064099Y0115776D02*
X0064099Y0112796D01*
X0063977Y0112338D01*
X0063740Y0111928D01*
X0063404Y0111593D01*
X0062994Y0111356D01*
X0062536Y0111233D01*
X0056800Y0111233D01*
X0056800Y0115776D01*
X0055200Y0115776D01*
X0055200Y0111233D01*
X0049464Y0111233D01*
X0049006Y0111356D01*
X0048596Y0111593D01*
X0048260Y0111928D01*
X0048023Y0112338D01*
X0047901Y0112796D01*
X0047901Y0115776D01*
X0055200Y0115776D01*
X0055200Y0117376D01*
X0047901Y0117376D01*
X0047901Y0120357D01*
X0048023Y0120814D01*
X0048260Y0121225D01*
X0048596Y0121560D01*
X0049006Y0121797D01*
X0049464Y0121920D01*
X0055200Y0121920D01*
X0055200Y0117376D01*
X0056800Y0117376D01*
X0064099Y0117376D01*
X0064099Y0120357D01*
X0063977Y0120814D01*
X0063740Y0121225D01*
X0063404Y0121560D01*
X0062994Y0121797D01*
X0062536Y0121920D01*
X0056800Y0121920D01*
X0056800Y0117376D01*
X0056800Y0115776D01*
X0064099Y0115776D01*
X0064099Y0117693D02*
X0066000Y0117693D01*
X0066000Y0119291D02*
X0064099Y0119291D01*
X0063933Y0120890D02*
X0066000Y0120890D01*
X0066000Y0122488D02*
X0026000Y0122488D01*
X0026000Y0122600D02*
X0066000Y0122600D01*
X0066000Y0107600D01*
X0046000Y0087600D01*
X0046000Y0072600D01*
X0026000Y0072600D01*
X0026000Y0122600D01*
X0026000Y0120890D02*
X0048067Y0120890D01*
X0047901Y0119291D02*
X0026000Y0119291D01*
X0026000Y0117693D02*
X0033575Y0117693D01*
X0033836Y0117825D02*
X0033045Y0117423D01*
X0032327Y0116901D01*
X0031699Y0116273D01*
X0031177Y0115555D01*
X0030775Y0114764D01*
X0030500Y0113920D01*
X0030367Y0113080D01*
X0035520Y0113080D01*
X0035520Y0118233D01*
X0034680Y0118100D01*
X0033836Y0117825D01*
X0035520Y0117693D02*
X0036480Y0117693D01*
X0036480Y0118233D02*
X0037320Y0118100D01*
X0038164Y0117825D01*
X0038955Y0117423D01*
X0039673Y0116901D01*
X0040301Y0116273D01*
X0040823Y0115555D01*
X0041225Y0114764D01*
X0041500Y0113920D01*
X0041633Y0113080D01*
X0036480Y0113080D01*
X0035520Y0113080D01*
X0035520Y0112120D01*
X0036480Y0112120D01*
X0036480Y0113080D01*
X0036480Y0118233D01*
X0038425Y0117693D02*
X0047901Y0117693D01*
X0047901Y0114496D02*
X0041313Y0114496D01*
X0040431Y0116094D02*
X0055200Y0116094D01*
X0055200Y0114496D02*
X0056800Y0114496D01*
X0056800Y0112897D02*
X0055200Y0112897D01*
X0055200Y0111299D02*
X0056800Y0111299D01*
X0062781Y0111299D02*
X0066000Y0111299D01*
X0066000Y0112897D02*
X0064099Y0112897D01*
X0066000Y0109700D02*
X0040851Y0109700D01*
X0040823Y0109645D02*
X0041225Y0110436D01*
X0041500Y0111280D01*
X0041633Y0112120D01*
X0036480Y0112120D01*
X0036480Y0106967D01*
X0037320Y0107100D01*
X0038164Y0107375D01*
X0038955Y0107777D01*
X0039673Y0108299D01*
X0040301Y0108927D01*
X0040823Y0109645D01*
X0041503Y0111299D02*
X0049219Y0111299D01*
X0047901Y0112897D02*
X0036480Y0112897D01*
X0035520Y0112897D02*
X0026000Y0112897D01*
X0026000Y0111299D02*
X0030497Y0111299D01*
X0030500Y0111280D02*
X0030775Y0110436D01*
X0031177Y0109645D01*
X0031699Y0108927D01*
X0032327Y0108299D01*
X0033045Y0107777D01*
X0033836Y0107375D01*
X0034680Y0107100D01*
X0035520Y0106967D01*
X0035520Y0112120D01*
X0030367Y0112120D01*
X0030500Y0111280D01*
X0031149Y0109700D02*
X0026000Y0109700D01*
X0026000Y0108102D02*
X0032598Y0108102D01*
X0035520Y0108102D02*
X0036480Y0108102D01*
X0036480Y0109700D02*
X0035520Y0109700D01*
X0035520Y0111299D02*
X0036480Y0111299D01*
X0036480Y0114496D02*
X0035520Y0114496D01*
X0035520Y0116094D02*
X0036480Y0116094D01*
X0031569Y0116094D02*
X0026000Y0116094D01*
X0026000Y0114496D02*
X0030687Y0114496D01*
X0039402Y0108102D02*
X0066000Y0108102D01*
X0064903Y0106503D02*
X0026000Y0106503D01*
X0026000Y0104905D02*
X0063305Y0104905D01*
X0061706Y0103306D02*
X0026000Y0103306D01*
X0026000Y0101708D02*
X0060108Y0101708D01*
X0058509Y0100109D02*
X0026000Y0100109D01*
X0026000Y0098511D02*
X0056911Y0098511D01*
X0055312Y0096912D02*
X0026000Y0096912D01*
X0026000Y0095314D02*
X0053714Y0095314D01*
X0052115Y0093715D02*
X0026000Y0093715D01*
X0026000Y0092117D02*
X0050517Y0092117D01*
X0048918Y0090518D02*
X0026000Y0090518D01*
X0026000Y0088920D02*
X0047320Y0088920D01*
X0046000Y0087321D02*
X0036574Y0087321D01*
X0036374Y0087353D02*
X0036184Y0087353D01*
X0036184Y0082784D01*
X0040753Y0082784D01*
X0040753Y0082974D01*
X0040636Y0083713D01*
X0040405Y0084424D01*
X0040065Y0085091D01*
X0039625Y0085696D01*
X0039096Y0086225D01*
X0038491Y0086665D01*
X0037824Y0087005D01*
X0037113Y0087236D01*
X0036374Y0087353D01*
X0036184Y0087321D02*
X0035816Y0087321D01*
X0035816Y0087353D02*
X0035626Y0087353D01*
X0034887Y0087236D01*
X0034176Y0087005D01*
X0033509Y0086665D01*
X0032904Y0086225D01*
X0032375Y0085696D01*
X0031935Y0085091D01*
X0031595Y0084424D01*
X0031364Y0083713D01*
X0031247Y0082974D01*
X0031247Y0082784D01*
X0035816Y0082784D01*
X0035816Y0082416D01*
X0036184Y0082416D01*
X0036184Y0077847D01*
X0036374Y0077847D01*
X0037113Y0077964D01*
X0037824Y0078195D01*
X0038491Y0078535D01*
X0039096Y0078975D01*
X0039625Y0079504D01*
X0040065Y0080109D01*
X0040405Y0080776D01*
X0040636Y0081487D01*
X0040753Y0082226D01*
X0040753Y0082416D01*
X0036184Y0082416D01*
X0036184Y0082784D01*
X0035816Y0082784D01*
X0035816Y0087353D01*
X0035426Y0087321D02*
X0026000Y0087321D01*
X0026000Y0085723D02*
X0032401Y0085723D01*
X0031498Y0084124D02*
X0026000Y0084124D01*
X0026000Y0082526D02*
X0035816Y0082526D01*
X0035816Y0082416D02*
X0031247Y0082416D01*
X0031247Y0082226D01*
X0031364Y0081487D01*
X0031595Y0080776D01*
X0031935Y0080109D01*
X0032375Y0079504D01*
X0032904Y0078975D01*
X0033509Y0078535D01*
X0034176Y0078195D01*
X0034887Y0077964D01*
X0035626Y0077847D01*
X0035816Y0077847D01*
X0035816Y0082416D01*
X0036184Y0082526D02*
X0046000Y0082526D01*
X0046000Y0084124D02*
X0040502Y0084124D01*
X0039599Y0085723D02*
X0046000Y0085723D01*
X0046000Y0080927D02*
X0040454Y0080927D01*
X0039450Y0079329D02*
X0046000Y0079329D01*
X0046000Y0077730D02*
X0026000Y0077730D01*
X0026000Y0076132D02*
X0046000Y0076132D01*
X0046000Y0074533D02*
X0026000Y0074533D01*
X0026000Y0072934D02*
X0046000Y0072934D01*
X0036184Y0079329D02*
X0035816Y0079329D01*
X0035816Y0080927D02*
X0036184Y0080927D01*
X0036184Y0084124D02*
X0035816Y0084124D01*
X0035816Y0085723D02*
X0036184Y0085723D01*
X0031546Y0080927D02*
X0026000Y0080927D01*
X0026000Y0079329D02*
X0032550Y0079329D01*
X0055200Y0117693D02*
X0056800Y0117693D01*
X0056800Y0119291D02*
X0055200Y0119291D01*
X0055200Y0120890D02*
X0056800Y0120890D01*
X0231010Y0192600D02*
X0242260Y0192600D01*
D25*
X0237501Y0195600D02*
X0236153Y0195600D01*
X0236153Y0196060D01*
X0234864Y0197349D01*
X0227136Y0197349D01*
X0225847Y0196060D01*
X0225847Y0189120D01*
X0226117Y0188850D01*
X0225847Y0188580D01*
X0225847Y0181640D01*
X0227108Y0180379D01*
X0226819Y0179682D01*
X0226819Y0178018D01*
X0227108Y0177321D01*
X0225847Y0176060D01*
X0225847Y0169120D01*
X0225873Y0169094D01*
X0225743Y0168900D01*
X0225547Y0168427D01*
X0225447Y0167925D01*
X0225447Y0165110D01*
X0231000Y0165110D01*
X0236553Y0165110D01*
X0236553Y0167925D01*
X0236453Y0168427D01*
X0236257Y0168900D01*
X0236127Y0169094D01*
X0236153Y0169120D01*
X0236153Y0169590D01*
X0238103Y0169590D01*
X0239260Y0168434D01*
X0239260Y0166099D01*
X0238386Y0166099D01*
X0237097Y0164810D01*
X0237097Y0164350D01*
X0236553Y0164350D01*
X0236553Y0165110D01*
X0231000Y0165110D01*
X0231000Y0165110D01*
X0231000Y0165110D01*
X0225447Y0165110D01*
X0225447Y0162295D01*
X0225547Y0161792D01*
X0225743Y0161319D01*
X0226028Y0160893D01*
X0226390Y0160531D01*
X0226816Y0160247D01*
X0227289Y0160051D01*
X0227791Y0159951D01*
X0230358Y0159951D01*
X0229697Y0159290D01*
X0229240Y0158187D01*
X0229240Y0127013D01*
X0229250Y0126989D01*
X0229250Y0125753D01*
X0229707Y0124651D01*
X0232576Y0121781D01*
X0231418Y0121781D01*
X0230721Y0121492D01*
X0229460Y0122753D01*
X0222520Y0122753D01*
X0222250Y0122483D01*
X0221980Y0122753D01*
X0215040Y0122753D01*
X0213751Y0121464D01*
X0213751Y0113736D01*
X0215040Y0112447D01*
X0215510Y0112447D01*
X0215510Y0109367D01*
X0211408Y0109367D01*
X0210119Y0108078D01*
X0210119Y0098100D01*
X0209743Y0098100D01*
X0207750Y0100093D01*
X0207750Y0126719D01*
X0216478Y0126719D01*
X0216859Y0127100D01*
X0218087Y0127100D01*
X0218632Y0126555D01*
X0220168Y0125919D01*
X0221832Y0125919D01*
X0223368Y0126555D01*
X0224545Y0127732D01*
X0225181Y0129268D01*
X0225181Y0130932D01*
X0224545Y0132468D01*
X0223368Y0133645D01*
X0221832Y0134281D01*
X0220168Y0134281D01*
X0218632Y0133645D01*
X0218087Y0133100D01*
X0217767Y0133100D01*
X0217767Y0137192D01*
X0217359Y0137600D01*
X0217767Y0138008D01*
X0217767Y0142100D01*
X0218087Y0142100D01*
X0218632Y0141555D01*
X0220168Y0140919D01*
X0221832Y0140919D01*
X0223368Y0141555D01*
X0224545Y0142732D01*
X0225181Y0144268D01*
X0225181Y0145932D01*
X0224545Y0147468D01*
X0223368Y0148645D01*
X0221832Y0149281D01*
X0220168Y0149281D01*
X0218632Y0148645D01*
X0218087Y0148100D01*
X0216859Y0148100D01*
X0216478Y0148481D01*
X0205994Y0148481D01*
X0204706Y0147192D01*
X0204706Y0144387D01*
X0198543Y0150549D01*
X0197699Y0151393D01*
X0196597Y0151850D01*
X0179153Y0151850D01*
X0178051Y0151393D01*
X0164757Y0138100D01*
X0159499Y0138100D01*
X0159499Y0138964D01*
X0158210Y0140253D01*
X0151270Y0140253D01*
X0151000Y0139983D01*
X0150730Y0140253D01*
X0143790Y0140253D01*
X0142501Y0138964D01*
X0142501Y0138100D01*
X0141653Y0138100D01*
X0140551Y0137643D01*
X0136801Y0133893D01*
X0135957Y0133049D01*
X0135500Y0131947D01*
X0135500Y0130513D01*
X0134955Y0129968D01*
X0134319Y0128432D01*
X0134319Y0126768D01*
X0134955Y0125232D01*
X0135500Y0124687D01*
X0135500Y0124503D01*
X0135957Y0123401D01*
X0138457Y0120901D01*
X0139301Y0120057D01*
X0140403Y0119600D01*
X0141834Y0119600D01*
X0143002Y0118431D01*
X0149975Y0118431D01*
X0149975Y0116635D01*
X0150075Y0116133D01*
X0150271Y0115660D01*
X0150555Y0115234D01*
X0150917Y0114872D01*
X0151343Y0114587D01*
X0151816Y0114391D01*
X0152319Y0114291D01*
X0155331Y0114291D01*
X0158343Y0114291D01*
X0158845Y0114391D01*
X0159318Y0114587D01*
X0159744Y0114872D01*
X0160106Y0115234D01*
X0160391Y0115660D01*
X0160587Y0116133D01*
X0160687Y0116635D01*
X0160687Y0118860D01*
X0160687Y0121084D01*
X0160587Y0121587D01*
X0160391Y0122060D01*
X0160106Y0122486D01*
X0159744Y0122848D01*
X0159702Y0122876D01*
X0160287Y0123460D01*
X0160287Y0129220D01*
X0158998Y0130509D01*
X0158772Y0130509D01*
X0159499Y0131236D01*
X0159499Y0132100D01*
X0164319Y0132100D01*
X0164319Y0131768D01*
X0164608Y0131071D01*
X0163347Y0129810D01*
X0163347Y0122870D01*
X0163373Y0122844D01*
X0163243Y0122650D01*
X0163047Y0122177D01*
X0162947Y0121675D01*
X0162947Y0118860D01*
X0168500Y0118860D01*
X0174053Y0118860D01*
X0174053Y0121675D01*
X0173953Y0122177D01*
X0173757Y0122650D01*
X0173627Y0122844D01*
X0173653Y0122870D01*
X0173653Y0129810D01*
X0172392Y0131071D01*
X0172681Y0131768D01*
X0172681Y0133432D01*
X0172045Y0134968D01*
X0171078Y0135935D01*
X0180993Y0145850D01*
X0184233Y0145850D01*
X0184233Y0143008D01*
X0184641Y0142600D01*
X0184233Y0142192D01*
X0184233Y0138008D01*
X0184641Y0137600D01*
X0184233Y0137192D01*
X0184233Y0133008D01*
X0184369Y0132872D01*
X0184129Y0132513D01*
X0183933Y0132039D01*
X0183833Y0131537D01*
X0183833Y0130100D01*
X0190764Y0130100D01*
X0190764Y0126319D01*
X0194250Y0126319D01*
X0194250Y0110263D01*
X0193368Y0111145D01*
X0191832Y0111781D01*
X0190168Y0111781D01*
X0188632Y0111145D01*
X0187455Y0109968D01*
X0186819Y0108432D01*
X0186819Y0106768D01*
X0187108Y0106071D01*
X0185847Y0104810D01*
X0185847Y0097870D01*
X0185873Y0097844D01*
X0185743Y0097650D01*
X0185547Y0097177D01*
X0185447Y0096675D01*
X0185447Y0093860D01*
X0191000Y0093860D01*
X0191000Y0093860D01*
X0185447Y0093860D01*
X0185447Y0091045D01*
X0185547Y0090542D01*
X0185743Y0090069D01*
X0186028Y0089643D01*
X0186390Y0089281D01*
X0186816Y0088997D01*
X0187289Y0088801D01*
X0187791Y0088701D01*
X0191000Y0088701D01*
X0191976Y0088701D01*
X0191780Y0088226D01*
X0191780Y0083563D01*
X0186043Y0089299D01*
X0185199Y0090143D01*
X0184499Y0090433D01*
X0184499Y0091464D01*
X0183584Y0092379D01*
X0183957Y0092628D01*
X0184319Y0092990D01*
X0184603Y0093416D01*
X0184799Y0093889D01*
X0184899Y0094391D01*
X0184899Y0097600D01*
X0184899Y0100809D01*
X0184799Y0101311D01*
X0184603Y0101784D01*
X0184319Y0102210D01*
X0183957Y0102572D01*
X0183915Y0102600D01*
X0183957Y0102628D01*
X0184319Y0102990D01*
X0184603Y0103416D01*
X0184799Y0103889D01*
X0184899Y0104391D01*
X0184899Y0107600D01*
X0184899Y0110809D01*
X0184799Y0111311D01*
X0184603Y0111784D01*
X0184319Y0112210D01*
X0183957Y0112572D01*
X0183531Y0112857D01*
X0183058Y0113053D01*
X0182555Y0113153D01*
X0179740Y0113153D01*
X0176925Y0113153D01*
X0176423Y0113053D01*
X0175950Y0112857D01*
X0175756Y0112727D01*
X0175730Y0112753D01*
X0168790Y0112753D01*
X0167501Y0111464D01*
X0167501Y0110600D01*
X0153913Y0110600D01*
X0153368Y0111145D01*
X0151832Y0111781D01*
X0150168Y0111781D01*
X0148632Y0111145D01*
X0147455Y0109968D01*
X0146819Y0108432D01*
X0146819Y0106768D01*
X0147455Y0105232D01*
X0148632Y0104055D01*
X0150168Y0103419D01*
X0151832Y0103419D01*
X0153368Y0104055D01*
X0153913Y0104600D01*
X0167501Y0104600D01*
X0167501Y0103736D01*
X0168637Y0102600D01*
X0167501Y0101464D01*
X0167501Y0093736D01*
X0168637Y0092600D01*
X0167501Y0091464D01*
X0167501Y0083736D01*
X0168790Y0082447D01*
X0170984Y0082447D01*
X0170847Y0082310D01*
X0170847Y0075370D01*
X0171117Y0075100D01*
X0170847Y0074830D01*
X0170847Y0074360D01*
X0168903Y0074360D01*
X0168368Y0074895D01*
X0166832Y0075531D01*
X0165168Y0075531D01*
X0163632Y0074895D01*
X0162455Y0073718D01*
X0161819Y0072182D01*
X0161819Y0070518D01*
X0162455Y0068982D01*
X0163632Y0067805D01*
X0164264Y0067543D01*
X0163931Y0067210D01*
X0163647Y0066784D01*
X0163451Y0066311D01*
X0163351Y0065809D01*
X0163351Y0062600D01*
X0168510Y0062600D01*
X0168510Y0057047D01*
X0168510Y0052600D01*
X0168510Y0052600D01*
X0168510Y0062600D01*
X0168510Y0062600D01*
X0163351Y0062600D01*
X0163351Y0059391D01*
X0163451Y0058889D01*
X0163647Y0058416D01*
X0163931Y0057990D01*
X0164293Y0057628D01*
X0164335Y0057600D01*
X0164293Y0057572D01*
X0163931Y0057210D01*
X0163647Y0056784D01*
X0163451Y0056311D01*
X0163351Y0055809D01*
X0163351Y0052600D01*
X0168510Y0052600D01*
X0163351Y0052600D01*
X0163351Y0049391D01*
X0163451Y0048889D01*
X0163647Y0048416D01*
X0163931Y0047990D01*
X0164293Y0047628D01*
X0164719Y0047343D01*
X0165192Y0047147D01*
X0165602Y0047066D01*
X0165001Y0046464D01*
X0165001Y0038736D01*
X0165500Y0038237D01*
X0165500Y0036099D01*
X0164636Y0036099D01*
X0163347Y0034810D01*
X0163347Y0027870D01*
X0163617Y0027600D01*
X0163347Y0027330D01*
X0163347Y0026671D01*
X0163082Y0026781D01*
X0161418Y0026781D01*
X0159882Y0026145D01*
X0158705Y0024968D01*
X0158069Y0023432D01*
X0158069Y0021768D01*
X0158705Y0020232D01*
X0159882Y0019055D01*
X0161418Y0018419D01*
X0163082Y0018419D01*
X0164618Y0019055D01*
X0164664Y0019101D01*
X0172364Y0019101D01*
X0173279Y0020016D01*
X0173528Y0019643D01*
X0173890Y0019281D01*
X0174316Y0018997D01*
X0174789Y0018801D01*
X0175291Y0018701D01*
X0178500Y0018701D01*
X0181709Y0018701D01*
X0182211Y0018801D01*
X0182684Y0018997D01*
X0183110Y0019281D01*
X0183472Y0019643D01*
X0183500Y0019685D01*
X0183528Y0019643D01*
X0183890Y0019281D01*
X0184316Y0018997D01*
X0184789Y0018801D01*
X0185291Y0018701D01*
X0188500Y0018701D01*
X0191709Y0018701D01*
X0192211Y0018801D01*
X0192684Y0018997D01*
X0193110Y0019281D01*
X0193472Y0019643D01*
X0193500Y0019685D01*
X0193528Y0019643D01*
X0193890Y0019281D01*
X0194316Y0018997D01*
X0194789Y0018801D01*
X0195291Y0018701D01*
X0198500Y0018701D01*
X0201709Y0018701D01*
X0202211Y0018801D01*
X0202684Y0018997D01*
X0203110Y0019281D01*
X0203472Y0019643D01*
X0203757Y0020069D01*
X0203953Y0020542D01*
X0204053Y0021045D01*
X0204053Y0023860D01*
X0204053Y0026675D01*
X0203953Y0027177D01*
X0203757Y0027650D01*
X0203627Y0027844D01*
X0203653Y0027870D01*
X0203653Y0034810D01*
X0202364Y0036099D01*
X0194636Y0036099D01*
X0193500Y0034963D01*
X0192364Y0036099D01*
X0184636Y0036099D01*
X0183500Y0034963D01*
X0182364Y0036099D01*
X0180240Y0036099D01*
X0180240Y0037447D01*
X0180710Y0037447D01*
X0181999Y0038736D01*
X0181999Y0039767D01*
X0182699Y0040057D01*
X0183543Y0040901D01*
X0186243Y0043600D01*
X0187087Y0044444D01*
X0187379Y0045150D01*
X0187637Y0045150D01*
X0187455Y0044968D01*
X0186819Y0043432D01*
X0186819Y0041768D01*
X0187455Y0040232D01*
X0188632Y0039055D01*
X0190168Y0038419D01*
X0191832Y0038419D01*
X0193368Y0039055D01*
X0194545Y0040232D01*
X0195181Y0041768D01*
X0195181Y0043432D01*
X0194545Y0044968D01*
X0194203Y0045310D01*
X0194443Y0045550D01*
X0200184Y0045550D01*
X0200339Y0045446D01*
X0200812Y0045250D01*
X0201315Y0045150D01*
X0202457Y0045150D01*
X0203599Y0045150D01*
X0204101Y0045250D01*
X0204574Y0045446D01*
X0205000Y0045731D01*
X0205362Y0046093D01*
X0205647Y0046519D01*
X0205843Y0046992D01*
X0205943Y0047494D01*
X0205943Y0050703D01*
X0202983Y0050703D01*
X0202983Y0050703D01*
X0205943Y0050703D01*
X0205943Y0053912D01*
X0205860Y0054327D01*
X0206132Y0054055D01*
X0207668Y0053419D01*
X0209332Y0053419D01*
X0210847Y0054047D01*
X0210847Y0052890D01*
X0212136Y0051601D01*
X0213000Y0051601D01*
X0213000Y0043013D01*
X0212455Y0042468D01*
X0211819Y0040932D01*
X0211819Y0039268D01*
X0212455Y0037732D01*
X0213632Y0036555D01*
X0215168Y0035919D01*
X0216832Y0035919D01*
X0218368Y0036555D01*
X0219545Y0037732D01*
X0220181Y0039268D01*
X0220181Y0040932D01*
X0219545Y0042468D01*
X0219000Y0043013D01*
X0219000Y0051601D01*
X0219864Y0051601D01*
X0221000Y0052737D01*
X0222136Y0051601D01*
X0223000Y0051601D01*
X0223000Y0043013D01*
X0222455Y0042468D01*
X0221819Y0040932D01*
X0221819Y0039268D01*
X0222455Y0037732D01*
X0223632Y0036555D01*
X0225168Y0035919D01*
X0226832Y0035919D01*
X0228368Y0036555D01*
X0229545Y0037732D01*
X0230181Y0039268D01*
X0230181Y0040932D01*
X0229545Y0042468D01*
X0229000Y0043013D01*
X0229000Y0051601D01*
X0229864Y0051601D01*
X0231153Y0052890D01*
X0231153Y0059830D01*
X0231127Y0059856D01*
X0231257Y0060050D01*
X0231453Y0060523D01*
X0231553Y0061025D01*
X0231553Y0063840D01*
X0226000Y0063840D01*
X0226000Y0063840D01*
X0216000Y0063840D01*
X0216000Y0063840D01*
X0210447Y0063840D01*
X0210447Y0061319D01*
X0209332Y0061781D01*
X0207668Y0061781D01*
X0206132Y0061145D01*
X0205587Y0060600D01*
X0199153Y0060600D01*
X0198051Y0060143D01*
X0197207Y0059299D01*
X0194707Y0056799D01*
X0194316Y0055856D01*
X0189376Y0055856D01*
X0189220Y0055960D01*
X0188747Y0056156D01*
X0188244Y0056256D01*
X0187102Y0056256D01*
X0185960Y0056256D01*
X0185458Y0056156D01*
X0184985Y0055960D01*
X0184829Y0055856D01*
X0182746Y0055856D01*
X0181457Y0054567D01*
X0181457Y0047300D01*
X0181310Y0047153D01*
X0180710Y0047753D01*
X0179766Y0047753D01*
X0180749Y0048736D01*
X0180749Y0056464D01*
X0179613Y0057600D01*
X0180749Y0058736D01*
X0180749Y0066464D01*
X0180238Y0066975D01*
X0181153Y0067890D01*
X0181153Y0074830D01*
X0180883Y0075100D01*
X0181153Y0075370D01*
X0181153Y0078350D01*
X0181457Y0078350D01*
X0181457Y0070633D01*
X0182746Y0069344D01*
X0189947Y0069344D01*
X0190103Y0069240D01*
X0190576Y0069044D01*
X0191079Y0068944D01*
X0191982Y0068944D01*
X0192207Y0068401D01*
X0194707Y0065901D01*
X0195551Y0065057D01*
X0196653Y0064600D01*
X0205587Y0064600D01*
X0206132Y0064055D01*
X0207668Y0063419D01*
X0209332Y0063419D01*
X0210447Y0063881D01*
X0210447Y0063840D01*
X0216000Y0063840D01*
X0216000Y0063840D01*
X0221553Y0063840D01*
X0226000Y0063840D01*
X0226000Y0063840D01*
X0231553Y0063840D01*
X0231553Y0066655D01*
X0231453Y0067158D01*
X0231257Y0067631D01*
X0230972Y0068057D01*
X0230610Y0068419D01*
X0230184Y0068703D01*
X0229711Y0068899D01*
X0229209Y0068999D01*
X0226000Y0068999D01*
X0226000Y0063840D01*
X0226000Y0068999D01*
X0222791Y0068999D01*
X0222289Y0068899D01*
X0221816Y0068703D01*
X0221390Y0068419D01*
X0221028Y0068057D01*
X0221000Y0068015D01*
X0220972Y0068057D01*
X0220610Y0068419D01*
X0220184Y0068703D01*
X0219711Y0068899D01*
X0219209Y0068999D01*
X0216000Y0068999D01*
X0216000Y0063840D01*
X0216000Y0068999D01*
X0212791Y0068999D01*
X0212472Y0068936D01*
X0212045Y0069968D01*
X0211288Y0070725D01*
X0212045Y0071482D01*
X0212681Y0073018D01*
X0212681Y0074682D01*
X0212204Y0075833D01*
X0215592Y0075833D01*
X0216000Y0076241D01*
X0216408Y0075833D01*
X0220592Y0075833D01*
X0221000Y0076241D01*
X0221408Y0075833D01*
X0224319Y0075833D01*
X0224319Y0074268D01*
X0224955Y0072732D01*
X0226132Y0071555D01*
X0227668Y0070919D01*
X0229332Y0070919D01*
X0230868Y0071555D01*
X0232045Y0072732D01*
X0232681Y0074268D01*
X0232681Y0075932D01*
X0232045Y0077468D01*
X0231881Y0077632D01*
X0231881Y0085850D01*
X0232109Y0085850D01*
X0232101Y0085809D01*
X0232101Y0082600D01*
X0237260Y0082600D01*
X0237260Y0077047D01*
X0240075Y0077047D01*
X0240577Y0077147D01*
X0241050Y0077343D01*
X0241244Y0077473D01*
X0241270Y0077447D01*
X0248210Y0077447D01*
X0249471Y0078708D01*
X0250168Y0078419D01*
X0251832Y0078419D01*
X0253368Y0079055D01*
X0254545Y0080232D01*
X0255181Y0081768D01*
X0255181Y0083432D01*
X0254655Y0084703D01*
X0261819Y0077538D01*
X0261819Y0076768D01*
X0262455Y0075232D01*
X0263632Y0074055D01*
X0265168Y0073419D01*
X0266832Y0073419D01*
X0268368Y0074055D01*
X0269545Y0075232D01*
X0270181Y0076768D01*
X0270181Y0078432D01*
X0269545Y0079968D01*
X0268368Y0081145D01*
X0266832Y0081781D01*
X0266062Y0081781D01*
X0256449Y0091393D01*
X0255347Y0091850D01*
X0209984Y0091850D01*
X0209984Y0092100D01*
X0216597Y0092100D01*
X0217699Y0092557D01*
X0218543Y0093401D01*
X0221043Y0095901D01*
X0221156Y0096173D01*
X0221560Y0096005D01*
X0222063Y0095906D01*
X0223500Y0095906D01*
X0224937Y0095906D01*
X0225439Y0096005D01*
X0225913Y0096201D01*
X0226272Y0096441D01*
X0226408Y0096306D01*
X0230592Y0096306D01*
X0231881Y0097594D01*
X0231881Y0108078D01*
X0230592Y0109367D01*
X0226408Y0109367D01*
X0226272Y0109231D01*
X0225913Y0109471D01*
X0225439Y0109667D01*
X0224937Y0109767D01*
X0223500Y0109767D01*
X0223500Y0102836D01*
X0223500Y0095906D01*
X0223500Y0102836D01*
X0223500Y0102836D01*
X0223500Y0109767D01*
X0222063Y0109767D01*
X0221560Y0109667D01*
X0221510Y0109646D01*
X0221510Y0112447D01*
X0221980Y0112447D01*
X0222250Y0112717D01*
X0222520Y0112447D01*
X0229460Y0112447D01*
X0230721Y0113708D01*
X0231418Y0113419D01*
X0233082Y0113419D01*
X0234618Y0114055D01*
X0235001Y0114438D01*
X0235001Y0108736D01*
X0236290Y0107447D01*
X0243230Y0107447D01*
X0243500Y0107717D01*
X0243770Y0107447D01*
X0250710Y0107447D01*
X0251971Y0108708D01*
X0252668Y0108419D01*
X0254332Y0108419D01*
X0255868Y0109055D01*
X0257045Y0110232D01*
X0257681Y0111768D01*
X0257681Y0113432D01*
X0257045Y0114968D01*
X0255868Y0116145D01*
X0254332Y0116781D01*
X0252668Y0116781D01*
X0251971Y0116492D01*
X0250863Y0117600D01*
X0251971Y0118708D01*
X0252668Y0118419D01*
X0254332Y0118419D01*
X0255868Y0119055D01*
X0257045Y0120232D01*
X0257681Y0121768D01*
X0257681Y0123432D01*
X0257045Y0124968D01*
X0255868Y0126145D01*
X0254332Y0126781D01*
X0252668Y0126781D01*
X0251971Y0126492D01*
X0250710Y0127753D01*
X0243770Y0127753D01*
X0243500Y0127483D01*
X0243230Y0127753D01*
X0236290Y0127753D01*
X0235690Y0127153D01*
X0235250Y0127593D01*
X0235250Y0128197D01*
X0235240Y0128220D01*
X0235240Y0156348D01*
X0237097Y0158205D01*
X0237097Y0157870D01*
X0237367Y0157600D01*
X0237097Y0157330D01*
X0237097Y0150390D01*
X0238386Y0149101D01*
X0239255Y0149101D01*
X0239255Y0149003D01*
X0238790Y0149003D01*
X0237501Y0147714D01*
X0237501Y0139986D01*
X0238790Y0138697D01*
X0245730Y0138697D01*
X0245756Y0138723D01*
X0245950Y0138593D01*
X0246423Y0138397D01*
X0246925Y0138297D01*
X0249740Y0138297D01*
X0249740Y0143850D01*
X0249740Y0149403D01*
X0246925Y0149403D01*
X0246423Y0149303D01*
X0246241Y0149227D01*
X0247403Y0150390D01*
X0247403Y0150860D01*
X0267247Y0150860D01*
X0293507Y0150850D01*
X0295136Y0149222D01*
X0294961Y0148801D01*
X0294961Y0146399D01*
X0295881Y0144179D01*
X0297579Y0142481D01*
X0299799Y0141561D01*
X0302201Y0141561D01*
X0304421Y0142481D01*
X0306119Y0144179D01*
X0307039Y0146399D01*
X0307039Y0148801D01*
X0306119Y0151021D01*
X0304421Y0152719D01*
X0302201Y0153639D01*
X0299799Y0153639D01*
X0299378Y0153464D01*
X0296864Y0155979D01*
X0296450Y0156393D01*
X0296449Y0156393D01*
X0295895Y0156623D01*
X0295348Y0156850D01*
X0295347Y0156850D01*
X0294763Y0156850D01*
X0267857Y0156860D01*
X0267857Y0156860D01*
X0267248Y0156860D01*
X0266664Y0156860D01*
X0266664Y0156860D01*
X0247403Y0156860D01*
X0247403Y0157330D01*
X0247133Y0157600D01*
X0247403Y0157870D01*
X0247403Y0158350D01*
X0253087Y0158350D01*
X0253632Y0157805D01*
X0255168Y0157169D01*
X0256832Y0157169D01*
X0258368Y0157805D01*
X0259545Y0158982D01*
X0260181Y0160518D01*
X0260181Y0162182D01*
X0259545Y0163718D01*
X0258368Y0164895D01*
X0256832Y0165531D01*
X0255168Y0165531D01*
X0253632Y0164895D01*
X0253087Y0164350D01*
X0247403Y0164350D01*
X0247403Y0164810D01*
X0246114Y0166099D01*
X0245260Y0166099D01*
X0245260Y0168434D01*
X0245724Y0168898D01*
X0245752Y0168856D01*
X0246114Y0168494D01*
X0246540Y0168209D01*
X0247013Y0168013D01*
X0247516Y0167913D01*
X0249740Y0167913D01*
X0249740Y0173269D01*
X0249740Y0173269D01*
X0249740Y0167913D01*
X0251965Y0167913D01*
X0252467Y0168013D01*
X0252940Y0168209D01*
X0253366Y0168494D01*
X0253728Y0168856D01*
X0254013Y0169282D01*
X0254209Y0169755D01*
X0254309Y0170257D01*
X0254309Y0173269D01*
X0249740Y0173269D01*
X0249740Y0173269D01*
X0254309Y0173269D01*
X0254309Y0176281D01*
X0254209Y0176784D01*
X0254013Y0177257D01*
X0253728Y0177683D01*
X0253366Y0178045D01*
X0252940Y0178329D01*
X0252467Y0178525D01*
X0251965Y0178625D01*
X0250168Y0178625D01*
X0250168Y0182526D01*
X0251449Y0183807D01*
X0252293Y0184651D01*
X0252750Y0185753D01*
X0252750Y0187447D01*
X0253210Y0187447D01*
X0254499Y0188736D01*
X0254499Y0196464D01*
X0253210Y0197753D01*
X0246270Y0197753D01*
X0246000Y0197483D01*
X0245730Y0197753D01*
X0238790Y0197753D01*
X0237501Y0196464D01*
X0237501Y0195600D01*
X0238746Y0197709D02*
X0213254Y0197709D01*
X0213210Y0197753D02*
X0206270Y0197753D01*
X0206000Y0197483D01*
X0205730Y0197753D01*
X0198790Y0197753D01*
X0197501Y0196464D01*
X0197501Y0195590D01*
X0196153Y0195590D01*
X0196153Y0196060D01*
X0194864Y0197349D01*
X0187136Y0197349D01*
X0185847Y0196060D01*
X0185847Y0189120D01*
X0186117Y0188850D01*
X0185847Y0188580D01*
X0185847Y0181640D01*
X0187108Y0180379D01*
X0186819Y0179682D01*
X0186819Y0178018D01*
X0187108Y0177321D01*
X0185847Y0176060D01*
X0185847Y0175600D01*
X0180403Y0175600D01*
X0179301Y0175143D01*
X0175938Y0171781D01*
X0175168Y0171781D01*
X0174309Y0171425D01*
X0174309Y0173269D01*
X0169740Y0173269D01*
X0169740Y0173269D01*
X0169740Y0167913D01*
X0167516Y0167913D01*
X0167013Y0168013D01*
X0166540Y0168209D01*
X0166114Y0168494D01*
X0165752Y0168856D01*
X0165724Y0168898D01*
X0165260Y0168434D01*
X0165260Y0162583D01*
X0171062Y0156781D01*
X0171832Y0156781D01*
X0173368Y0156145D01*
X0174545Y0154968D01*
X0175181Y0153432D01*
X0175181Y0151768D01*
X0174545Y0150232D01*
X0173368Y0149055D01*
X0171832Y0148419D01*
X0170168Y0148419D01*
X0168632Y0149055D01*
X0167455Y0150232D01*
X0166819Y0151768D01*
X0166819Y0152538D01*
X0164655Y0154703D01*
X0165181Y0153432D01*
X0165181Y0151768D01*
X0164545Y0150232D01*
X0163368Y0149055D01*
X0161832Y0148419D01*
X0160168Y0148419D01*
X0158632Y0149055D01*
X0158087Y0149600D01*
X0128653Y0149600D01*
X0128653Y0149140D01*
X0127364Y0147851D01*
X0119636Y0147851D01*
X0119022Y0148465D01*
X0118998Y0148441D01*
X0111664Y0148441D01*
X0110660Y0149445D01*
X0110660Y0147753D01*
X0110730Y0147753D01*
X0111000Y0147483D01*
X0111270Y0147753D01*
X0118210Y0147753D01*
X0119471Y0146492D01*
X0120168Y0146781D01*
X0121832Y0146781D01*
X0123368Y0146145D01*
X0124545Y0144968D01*
X0125181Y0143432D01*
X0125181Y0141768D01*
X0124545Y0140232D01*
X0123368Y0139055D01*
X0121832Y0138419D01*
X0120168Y0138419D01*
X0119471Y0138708D01*
X0118863Y0138100D01*
X0124097Y0138100D01*
X0125199Y0137643D01*
X0127699Y0135143D01*
X0128543Y0134299D01*
X0129000Y0133197D01*
X0129000Y0119503D01*
X0128543Y0118401D01*
X0126043Y0115901D01*
X0125199Y0115057D01*
X0125163Y0115042D01*
X0125090Y0114867D01*
X0123733Y0113510D01*
X0121960Y0112775D01*
X0120040Y0112775D01*
X0118267Y0113510D01*
X0116910Y0114867D01*
X0116175Y0116640D01*
X0116175Y0118560D01*
X0116910Y0120333D01*
X0118267Y0121690D01*
X0120040Y0122425D01*
X0121960Y0122425D01*
X0123000Y0121994D01*
X0123000Y0123206D01*
X0121960Y0122775D01*
X0120040Y0122775D01*
X0118267Y0123510D01*
X0116910Y0124867D01*
X0116175Y0126640D01*
X0116175Y0128560D01*
X0116910Y0130333D01*
X0118267Y0131690D01*
X0119256Y0132100D01*
X0109153Y0132100D01*
X0108051Y0132557D01*
X0107207Y0133401D01*
X0104707Y0135901D01*
X0104250Y0137003D01*
X0104250Y0137447D01*
X0103790Y0137447D01*
X0102501Y0138736D01*
X0102501Y0146464D01*
X0103790Y0147753D01*
X0103860Y0147753D01*
X0103860Y0152181D01*
X0103002Y0152181D01*
X0101713Y0153470D01*
X0101713Y0159230D01*
X0103002Y0160518D01*
X0109975Y0160518D01*
X0109975Y0162315D01*
X0110075Y0162817D01*
X0110271Y0163290D01*
X0110555Y0163716D01*
X0110917Y0164078D01*
X0111343Y0164363D01*
X0111816Y0164559D01*
X0112319Y0164659D01*
X0115331Y0164659D01*
X0115331Y0160090D01*
X0115331Y0160090D01*
X0117947Y0160090D01*
X0123500Y0160090D01*
X0123500Y0160090D01*
X0129053Y0160090D01*
X0129053Y0157275D01*
X0128953Y0156773D01*
X0128757Y0156300D01*
X0128627Y0156106D01*
X0128653Y0156080D01*
X0128653Y0155600D01*
X0158087Y0155600D01*
X0158632Y0156145D01*
X0160168Y0156781D01*
X0161832Y0156781D01*
X0163103Y0156255D01*
X0159717Y0159641D01*
X0159260Y0160743D01*
X0159260Y0168434D01*
X0158103Y0169590D01*
X0156153Y0169590D01*
X0156153Y0169120D01*
X0156127Y0169094D01*
X0156257Y0168900D01*
X0156453Y0168427D01*
X0156553Y0167925D01*
X0156553Y0165110D01*
X0151000Y0165110D01*
X0151000Y0165110D01*
X0151000Y0165110D01*
X0145447Y0165110D01*
X0145447Y0167925D01*
X0145547Y0168427D01*
X0145743Y0168900D01*
X0145873Y0169094D01*
X0145847Y0169120D01*
X0145847Y0169590D01*
X0128653Y0169590D01*
X0128653Y0165390D01*
X0128003Y0164740D01*
X0128110Y0164669D01*
X0128472Y0164307D01*
X0128757Y0163881D01*
X0128953Y0163408D01*
X0129053Y0162905D01*
X0129053Y0160090D01*
X0123500Y0160090D01*
X0123500Y0160090D01*
X0115331Y0160090D01*
X0115331Y0160090D01*
X0115331Y0164659D01*
X0118343Y0164659D01*
X0118791Y0164570D01*
X0118890Y0164669D01*
X0118924Y0164691D01*
X0111664Y0164691D01*
X0110375Y0165980D01*
X0110375Y0168470D01*
X0110336Y0168431D01*
X0103002Y0168431D01*
X0102530Y0168904D01*
X0102045Y0167732D01*
X0100868Y0166555D01*
X0099332Y0165919D01*
X0097668Y0165919D01*
X0096132Y0166555D01*
X0096000Y0166687D01*
X0096000Y0107600D01*
X0121000Y0107600D01*
X0136000Y0092600D01*
X0136000Y0006200D01*
X0298223Y0006200D01*
X0297501Y0006921D01*
X0295975Y0010606D01*
X0295975Y0014594D01*
X0297501Y0018279D01*
X0300321Y0021099D01*
X0304006Y0022625D01*
X0307994Y0022625D01*
X0311679Y0021099D01*
X0312361Y0020417D01*
X0312361Y0184783D01*
X0311679Y0184101D01*
X0307994Y0182575D01*
X0304006Y0182575D01*
X0300321Y0184101D01*
X0297501Y0186921D01*
X0295975Y0190606D01*
X0295975Y0194594D01*
X0297501Y0198279D01*
X0298223Y0199000D01*
X0096000Y0199000D01*
X0096000Y0173513D01*
X0096132Y0173645D01*
X0097668Y0174281D01*
X0098438Y0174281D01*
X0099301Y0175143D01*
X0100403Y0175600D01*
X0101834Y0175600D01*
X0103002Y0176768D01*
X0104260Y0176768D01*
X0104260Y0181197D01*
X0103790Y0181197D01*
X0102501Y0182486D01*
X0102501Y0190214D01*
X0103790Y0191503D01*
X0110730Y0191503D01*
X0111000Y0191233D01*
X0111270Y0191503D01*
X0118210Y0191503D01*
X0119471Y0190242D01*
X0120168Y0190531D01*
X0121832Y0190531D01*
X0123368Y0189895D01*
X0124545Y0188718D01*
X0125181Y0187182D01*
X0125181Y0185518D01*
X0124545Y0183982D01*
X0123368Y0182805D01*
X0121832Y0182169D01*
X0120168Y0182169D01*
X0119471Y0182458D01*
X0118210Y0181197D01*
X0111270Y0181197D01*
X0111000Y0181467D01*
X0110730Y0181197D01*
X0110260Y0181197D01*
X0110260Y0179514D01*
X0110271Y0179540D01*
X0110555Y0179966D01*
X0110917Y0180328D01*
X0111343Y0180613D01*
X0111816Y0180809D01*
X0112319Y0180909D01*
X0115331Y0180909D01*
X0115331Y0176340D01*
X0115331Y0176340D01*
X0120687Y0176340D01*
X0123500Y0176340D01*
X0123500Y0176340D01*
X0129053Y0176340D01*
X0129053Y0175590D01*
X0145847Y0175590D01*
X0145847Y0176060D01*
X0147108Y0177321D01*
X0146819Y0178018D01*
X0146819Y0179682D01*
X0147108Y0180379D01*
X0145847Y0181640D01*
X0145847Y0188580D01*
X0146117Y0188850D01*
X0145847Y0189120D01*
X0145847Y0196060D01*
X0147136Y0197349D01*
X0154864Y0197349D01*
X0156153Y0196060D01*
X0156153Y0196000D01*
X0157501Y0196000D01*
X0157501Y0196464D01*
X0158790Y0197753D01*
X0165730Y0197753D01*
X0166000Y0197483D01*
X0166270Y0197753D01*
X0173210Y0197753D01*
X0174499Y0196464D01*
X0174499Y0188736D01*
X0173210Y0187447D01*
X0172750Y0187447D01*
X0172750Y0184503D01*
X0172293Y0183401D01*
X0171449Y0182557D01*
X0170168Y0181276D01*
X0170168Y0178625D01*
X0171965Y0178625D01*
X0172467Y0178525D01*
X0172940Y0178329D01*
X0173366Y0178045D01*
X0173728Y0177683D01*
X0174013Y0177257D01*
X0174209Y0176784D01*
X0174309Y0176281D01*
X0174309Y0173269D01*
X0169740Y0173269D01*
X0169740Y0167913D01*
X0171819Y0167913D01*
X0171819Y0166768D01*
X0172455Y0165232D01*
X0173632Y0164055D01*
X0175168Y0163419D01*
X0176832Y0163419D01*
X0178368Y0164055D01*
X0179545Y0165232D01*
X0180181Y0166768D01*
X0180181Y0167538D01*
X0182243Y0169600D01*
X0185847Y0169600D01*
X0185847Y0169120D01*
X0185873Y0169094D01*
X0185743Y0168900D01*
X0185547Y0168427D01*
X0185447Y0167925D01*
X0185447Y0165110D01*
X0191000Y0165110D01*
X0196553Y0165110D01*
X0196553Y0167925D01*
X0196453Y0168427D01*
X0196257Y0168900D01*
X0196127Y0169094D01*
X0196153Y0169120D01*
X0196153Y0170269D01*
X0198091Y0170269D01*
X0198091Y0169602D01*
X0199260Y0168434D01*
X0199260Y0168220D01*
X0199250Y0168197D01*
X0199250Y0162003D01*
X0199707Y0160901D01*
X0200551Y0160057D01*
X0205551Y0155057D01*
X0206653Y0154600D01*
X0218087Y0154600D01*
X0218632Y0154055D01*
X0220168Y0153419D01*
X0221832Y0153419D01*
X0223368Y0154055D01*
X0224545Y0155232D01*
X0225181Y0156768D01*
X0225181Y0158432D01*
X0224545Y0159968D01*
X0223368Y0161145D01*
X0221832Y0161781D01*
X0220168Y0161781D01*
X0218632Y0161145D01*
X0218087Y0160600D01*
X0208493Y0160600D01*
X0205250Y0163843D01*
X0205250Y0166989D01*
X0205260Y0167013D01*
X0205260Y0168434D01*
X0205724Y0168898D01*
X0205752Y0168856D01*
X0206114Y0168494D01*
X0206540Y0168209D01*
X0207013Y0168013D01*
X0207516Y0167913D01*
X0209740Y0167913D01*
X0209740Y0173269D01*
X0209740Y0173269D01*
X0209740Y0167913D01*
X0211965Y0167913D01*
X0212467Y0168013D01*
X0212940Y0168209D01*
X0213366Y0168494D01*
X0213728Y0168856D01*
X0214013Y0169282D01*
X0214209Y0169755D01*
X0214309Y0170257D01*
X0214309Y0173269D01*
X0209740Y0173269D01*
X0209740Y0173269D01*
X0214309Y0173269D01*
X0214309Y0176281D01*
X0214209Y0176784D01*
X0214013Y0177257D01*
X0213728Y0177683D01*
X0213366Y0178045D01*
X0212940Y0178329D01*
X0212467Y0178525D01*
X0211965Y0178625D01*
X0210168Y0178625D01*
X0210168Y0182526D01*
X0211449Y0183807D01*
X0212293Y0184651D01*
X0212750Y0185753D01*
X0212750Y0187447D01*
X0213210Y0187447D01*
X0214499Y0188736D01*
X0214499Y0196464D01*
X0213210Y0197753D01*
X0214499Y0194511D02*
X0225847Y0194511D01*
X0225847Y0191312D02*
X0214499Y0191312D01*
X0213877Y0188114D02*
X0225847Y0188114D01*
X0225847Y0184915D02*
X0212403Y0184915D01*
X0210168Y0181717D02*
X0225847Y0181717D01*
X0226819Y0178518D02*
X0212484Y0178518D01*
X0214309Y0175320D02*
X0225847Y0175320D01*
X0225847Y0172121D02*
X0214309Y0172121D01*
X0213773Y0168923D02*
X0225758Y0168923D01*
X0225447Y0165724D02*
X0205250Y0165724D01*
X0206567Y0162526D02*
X0225447Y0162526D01*
X0224810Y0159327D02*
X0229734Y0159327D01*
X0229240Y0156129D02*
X0224916Y0156129D01*
X0229240Y0152930D02*
X0175181Y0152930D01*
X0173384Y0156129D02*
X0204479Y0156129D01*
X0201280Y0159327D02*
X0168516Y0159327D01*
X0165317Y0162526D02*
X0185447Y0162526D01*
X0185447Y0162295D02*
X0185547Y0161792D01*
X0185743Y0161319D01*
X0186028Y0160893D01*
X0186390Y0160531D01*
X0186816Y0160247D01*
X0187289Y0160051D01*
X0187791Y0159951D01*
X0191000Y0159951D01*
X0194209Y0159951D01*
X0194711Y0160051D01*
X0195184Y0160247D01*
X0195610Y0160531D01*
X0195972Y0160893D01*
X0196257Y0161319D01*
X0196453Y0161792D01*
X0196553Y0162295D01*
X0196553Y0165110D01*
X0191000Y0165110D01*
X0191000Y0165110D01*
X0191000Y0165110D01*
X0185447Y0165110D01*
X0185447Y0162295D01*
X0191000Y0162526D02*
X0191000Y0162526D01*
X0191000Y0159951D02*
X0191000Y0165110D01*
X0191000Y0165110D01*
X0191000Y0159951D01*
X0196553Y0162526D02*
X0199250Y0162526D01*
X0199250Y0165724D02*
X0196553Y0165724D01*
X0196242Y0168923D02*
X0198771Y0168923D01*
X0209740Y0168923D02*
X0209740Y0168923D01*
X0209740Y0172121D02*
X0209740Y0172121D01*
X0186819Y0178518D02*
X0172484Y0178518D01*
X0174309Y0175320D02*
X0179726Y0175320D01*
X0176278Y0172121D02*
X0174309Y0172121D01*
X0169740Y0172121D02*
X0169740Y0172121D01*
X0169740Y0173269D02*
X0169740Y0173269D01*
X0169740Y0168923D02*
X0169740Y0168923D01*
X0172251Y0165724D02*
X0165260Y0165724D01*
X0159260Y0165724D02*
X0156553Y0165724D01*
X0156553Y0165110D02*
X0151000Y0165110D01*
X0145447Y0165110D01*
X0145447Y0162295D01*
X0145547Y0161792D01*
X0145743Y0161319D01*
X0146028Y0160893D01*
X0146390Y0160531D01*
X0146816Y0160247D01*
X0147289Y0160051D01*
X0147791Y0159951D01*
X0151000Y0159951D01*
X0154209Y0159951D01*
X0154711Y0160051D01*
X0155184Y0160247D01*
X0155610Y0160531D01*
X0155972Y0160893D01*
X0156257Y0161319D01*
X0156453Y0161792D01*
X0156553Y0162295D01*
X0156553Y0165110D01*
X0156553Y0162526D02*
X0159260Y0162526D01*
X0160030Y0159327D02*
X0129053Y0159327D01*
X0129053Y0162526D02*
X0145447Y0162526D01*
X0145447Y0165724D02*
X0128653Y0165724D01*
X0128653Y0168923D02*
X0145758Y0168923D01*
X0151000Y0165110D02*
X0151000Y0165110D01*
X0151000Y0159951D01*
X0151000Y0165110D01*
X0151000Y0162526D02*
X0151000Y0162526D01*
X0156242Y0168923D02*
X0158771Y0168923D01*
X0146819Y0178518D02*
X0129053Y0178518D01*
X0129053Y0179155D02*
X0129053Y0176340D01*
X0123500Y0176340D01*
X0123500Y0176340D01*
X0115331Y0176340D01*
X0115331Y0176340D01*
X0115331Y0180909D01*
X0118343Y0180909D01*
X0118791Y0180820D01*
X0118890Y0180919D01*
X0119316Y0181203D01*
X0119789Y0181399D01*
X0120291Y0181499D01*
X0123500Y0181499D01*
X0123500Y0176340D01*
X0123500Y0181499D01*
X0126709Y0181499D01*
X0127211Y0181399D01*
X0127684Y0181203D01*
X0128110Y0180919D01*
X0128472Y0180557D01*
X0128757Y0180131D01*
X0128953Y0179658D01*
X0129053Y0179155D01*
X0123500Y0178518D02*
X0123500Y0178518D01*
X0123500Y0176340D02*
X0123500Y0176340D01*
X0115331Y0178518D02*
X0115331Y0178518D01*
X0118730Y0181717D02*
X0145847Y0181717D01*
X0145847Y0184915D02*
X0124931Y0184915D01*
X0124795Y0188114D02*
X0145847Y0188114D01*
X0145847Y0191312D02*
X0118401Y0191312D01*
X0111079Y0191312D02*
X0110921Y0191312D01*
X0103599Y0191312D02*
X0096000Y0191312D01*
X0096000Y0194511D02*
X0145847Y0194511D01*
X0158746Y0197709D02*
X0096000Y0197709D01*
X0096000Y0188114D02*
X0102501Y0188114D01*
X0102501Y0184915D02*
X0096000Y0184915D01*
X0096000Y0181717D02*
X0103270Y0181717D01*
X0104260Y0178518D02*
X0096000Y0178518D01*
X0096000Y0175320D02*
X0099726Y0175320D01*
X0096000Y0165724D02*
X0110631Y0165724D01*
X0110017Y0162526D02*
X0096000Y0162526D01*
X0096000Y0159327D02*
X0101811Y0159327D01*
X0101713Y0156129D02*
X0096000Y0156129D01*
X0096000Y0152930D02*
X0102254Y0152930D01*
X0103860Y0149732D02*
X0096000Y0149732D01*
X0096000Y0146533D02*
X0102570Y0146533D01*
X0102501Y0143334D02*
X0096000Y0143334D01*
X0096000Y0140136D02*
X0102501Y0140136D01*
X0104277Y0136937D02*
X0096000Y0136937D01*
X0096000Y0133739D02*
X0106868Y0133739D01*
X0117117Y0130540D02*
X0096000Y0130540D01*
X0096000Y0127342D02*
X0116175Y0127342D01*
X0117633Y0124143D02*
X0096000Y0124143D01*
X0096000Y0120945D02*
X0117521Y0120945D01*
X0116175Y0117746D02*
X0096000Y0117746D01*
X0096000Y0114548D02*
X0117229Y0114548D01*
X0124771Y0114548D02*
X0151438Y0114548D01*
X0152874Y0111349D02*
X0167501Y0111349D01*
X0168500Y0113701D02*
X0165291Y0113701D01*
X0164789Y0113801D01*
X0164316Y0113997D01*
X0163890Y0114281D01*
X0163528Y0114643D01*
X0163243Y0115069D01*
X0163047Y0115542D01*
X0162947Y0116045D01*
X0162947Y0118860D01*
X0168500Y0118860D01*
X0168500Y0118860D01*
X0168500Y0118860D01*
X0174053Y0118860D01*
X0174053Y0116045D01*
X0173953Y0115542D01*
X0173757Y0115069D01*
X0173472Y0114643D01*
X0173110Y0114281D01*
X0172684Y0113997D01*
X0172211Y0113801D01*
X0171709Y0113701D01*
X0168500Y0113701D01*
X0168500Y0118860D01*
X0168500Y0118860D01*
X0168500Y0113701D01*
X0168500Y0114548D02*
X0168500Y0114548D01*
X0163623Y0114548D02*
X0159223Y0114548D01*
X0155331Y0114548D02*
X0155331Y0114548D01*
X0155331Y0114291D02*
X0155331Y0118860D01*
X0160687Y0118860D01*
X0155331Y0118860D01*
X0155331Y0118860D01*
X0155331Y0118860D01*
X0155331Y0114291D01*
X0155331Y0117746D02*
X0155331Y0117746D01*
X0149975Y0117746D02*
X0127889Y0117746D01*
X0129000Y0120945D02*
X0138412Y0120945D01*
X0135649Y0124143D02*
X0129000Y0124143D01*
X0129000Y0127342D02*
X0134319Y0127342D01*
X0135500Y0130540D02*
X0129000Y0130540D01*
X0128775Y0133739D02*
X0136646Y0133739D01*
X0139845Y0136937D02*
X0125905Y0136937D01*
X0124449Y0140136D02*
X0143673Y0140136D01*
X0150847Y0140136D02*
X0151153Y0140136D01*
X0158327Y0140136D02*
X0166793Y0140136D01*
X0169992Y0143334D02*
X0125181Y0143334D01*
X0122431Y0146533D02*
X0173190Y0146533D01*
X0174044Y0149732D02*
X0176389Y0149732D01*
X0178477Y0143334D02*
X0184233Y0143334D01*
X0184233Y0140136D02*
X0175279Y0140136D01*
X0172080Y0136937D02*
X0184233Y0136937D01*
X0184233Y0133739D02*
X0172554Y0133739D01*
X0172923Y0130540D02*
X0183833Y0130540D01*
X0183833Y0130100D02*
X0183833Y0128663D01*
X0183933Y0128160D01*
X0184129Y0127687D01*
X0184414Y0127261D01*
X0184776Y0126899D01*
X0185202Y0126615D01*
X0185675Y0126419D01*
X0186177Y0126319D01*
X0190764Y0126319D01*
X0190764Y0130100D01*
X0190764Y0130100D01*
X0183833Y0130100D01*
X0184360Y0127342D02*
X0173653Y0127342D01*
X0173653Y0124143D02*
X0194250Y0124143D01*
X0190764Y0127342D02*
X0190764Y0127342D01*
X0190764Y0130100D02*
X0190764Y0130100D01*
X0194250Y0120945D02*
X0174053Y0120945D01*
X0174053Y0117746D02*
X0194250Y0117746D01*
X0194250Y0114548D02*
X0173377Y0114548D01*
X0168500Y0117746D02*
X0168500Y0117746D01*
X0162947Y0117746D02*
X0160687Y0117746D01*
X0160687Y0120945D02*
X0162947Y0120945D01*
X0163347Y0124143D02*
X0160287Y0124143D01*
X0160287Y0127342D02*
X0163347Y0127342D01*
X0164077Y0130540D02*
X0158804Y0130540D01*
X0179740Y0113153D02*
X0179740Y0107600D01*
X0179740Y0107600D01*
X0179740Y0107600D01*
X0179740Y0097600D01*
X0179740Y0097600D01*
X0179740Y0103153D01*
X0179740Y0107600D01*
X0179740Y0113153D01*
X0179740Y0111349D02*
X0179740Y0111349D01*
X0184783Y0111349D02*
X0189126Y0111349D01*
X0192874Y0111349D02*
X0194250Y0111349D01*
X0186819Y0108151D02*
X0184899Y0108151D01*
X0184899Y0107600D02*
X0179740Y0107600D01*
X0179740Y0107600D01*
X0184899Y0107600D01*
X0184899Y0104952D02*
X0185989Y0104952D01*
X0185847Y0101754D02*
X0184616Y0101754D01*
X0179740Y0101754D02*
X0179740Y0101754D01*
X0179740Y0104952D02*
X0179740Y0104952D01*
X0179740Y0108151D02*
X0179740Y0108151D01*
X0167791Y0101754D02*
X0126846Y0101754D01*
X0123648Y0104952D02*
X0147735Y0104952D01*
X0146819Y0108151D02*
X0096000Y0108151D01*
X0096000Y0111349D02*
X0149126Y0111349D01*
X0167501Y0098555D02*
X0130045Y0098555D01*
X0133243Y0095357D02*
X0167501Y0095357D01*
X0168195Y0092158D02*
X0136000Y0092158D01*
X0136000Y0088960D02*
X0167501Y0088960D01*
X0167501Y0085761D02*
X0150126Y0085761D01*
X0150368Y0085519D02*
X0148919Y0086968D01*
X0147025Y0087753D01*
X0144975Y0087753D01*
X0143081Y0086968D01*
X0141632Y0085519D01*
X0140847Y0083625D01*
X0140847Y0081575D01*
X0141632Y0079681D01*
X0143081Y0078232D01*
X0144975Y0077447D01*
X0147025Y0077447D01*
X0148919Y0078232D01*
X0150368Y0079681D01*
X0151153Y0081575D01*
X0151153Y0083625D01*
X0150368Y0085519D01*
X0151153Y0082563D02*
X0168674Y0082563D01*
X0170847Y0079364D02*
X0150051Y0079364D01*
X0141949Y0079364D02*
X0136000Y0079364D01*
X0136000Y0076166D02*
X0170847Y0076166D01*
X0162144Y0072967D02*
X0136000Y0072967D01*
X0136000Y0069769D02*
X0162129Y0069769D01*
X0163558Y0066570D02*
X0136000Y0066570D01*
X0136000Y0063372D02*
X0163351Y0063372D01*
X0163351Y0060173D02*
X0136000Y0060173D01*
X0136000Y0056975D02*
X0142574Y0056975D01*
X0142383Y0056835D02*
X0141765Y0056217D01*
X0141251Y0055510D01*
X0140854Y0054732D01*
X0140584Y0053900D01*
X0140447Y0053037D01*
X0140447Y0052600D01*
X0140447Y0052163D01*
X0140584Y0051300D01*
X0140854Y0050468D01*
X0141251Y0049690D01*
X0141765Y0048983D01*
X0142383Y0048365D01*
X0143090Y0047851D01*
X0143868Y0047454D01*
X0144700Y0047184D01*
X0145563Y0047047D01*
X0146000Y0047047D01*
X0146437Y0047047D01*
X0147300Y0047184D01*
X0148132Y0047454D01*
X0148910Y0047851D01*
X0149617Y0048365D01*
X0150235Y0048983D01*
X0150749Y0049690D01*
X0151146Y0050468D01*
X0151416Y0051300D01*
X0151553Y0052163D01*
X0151553Y0052600D01*
X0151553Y0053037D01*
X0151416Y0053900D01*
X0151146Y0054732D01*
X0150749Y0055510D01*
X0150235Y0056217D01*
X0149617Y0056835D01*
X0148910Y0057349D01*
X0148132Y0057746D01*
X0147300Y0058016D01*
X0146437Y0058153D01*
X0146000Y0058153D01*
X0145563Y0058153D01*
X0144700Y0058016D01*
X0143868Y0057746D01*
X0143090Y0057349D01*
X0142383Y0056835D01*
X0140564Y0053776D02*
X0136000Y0053776D01*
X0136000Y0050578D02*
X0140819Y0050578D01*
X0140447Y0052600D02*
X0146000Y0052600D01*
X0151553Y0052600D01*
X0146000Y0052600D01*
X0146000Y0052600D01*
X0146000Y0052600D01*
X0146000Y0058153D01*
X0146000Y0052600D01*
X0146000Y0047047D01*
X0146000Y0052600D01*
X0146000Y0052600D01*
X0146000Y0052600D01*
X0140447Y0052600D01*
X0146000Y0053776D02*
X0146000Y0053776D01*
X0146000Y0056975D02*
X0146000Y0056975D01*
X0149426Y0056975D02*
X0163774Y0056975D01*
X0163351Y0053776D02*
X0151436Y0053776D01*
X0151181Y0050578D02*
X0163351Y0050578D01*
X0164665Y0047379D02*
X0147901Y0047379D01*
X0146000Y0047379D02*
X0146000Y0047379D01*
X0144099Y0047379D02*
X0136000Y0047379D01*
X0136000Y0044181D02*
X0165001Y0044181D01*
X0165001Y0040982D02*
X0136000Y0040982D01*
X0136000Y0037784D02*
X0165500Y0037784D01*
X0163347Y0034585D02*
X0136000Y0034585D01*
X0136000Y0031387D02*
X0163347Y0031387D01*
X0163347Y0028188D02*
X0136000Y0028188D01*
X0136000Y0024990D02*
X0158727Y0024990D01*
X0158069Y0021791D02*
X0136000Y0021791D01*
X0136000Y0018593D02*
X0160999Y0018593D01*
X0163501Y0018593D02*
X0297815Y0018593D01*
X0301993Y0021791D02*
X0204053Y0021791D01*
X0204053Y0023860D02*
X0198500Y0023860D01*
X0204053Y0023860D01*
X0204053Y0024990D02*
X0312361Y0024990D01*
X0312361Y0028188D02*
X0203653Y0028188D01*
X0203653Y0031387D02*
X0299312Y0031387D01*
X0298926Y0031490D02*
X0299741Y0031272D01*
X0300578Y0031161D01*
X0301000Y0031161D01*
X0301422Y0031161D01*
X0302259Y0031272D01*
X0303074Y0031490D01*
X0303854Y0031813D01*
X0304585Y0032235D01*
X0305254Y0032749D01*
X0305851Y0033346D01*
X0306365Y0034015D01*
X0306787Y0034746D01*
X0307110Y0035526D01*
X0307328Y0036341D01*
X0307439Y0037178D01*
X0307439Y0037600D01*
X0307439Y0038022D01*
X0307328Y0038859D01*
X0307110Y0039674D01*
X0306787Y0040454D01*
X0306365Y0041185D01*
X0305851Y0041854D01*
X0305254Y0042451D01*
X0304766Y0042826D01*
X0306119Y0044179D01*
X0307039Y0046399D01*
X0307039Y0048801D01*
X0306119Y0051021D01*
X0304540Y0052600D01*
X0306119Y0054179D01*
X0307039Y0056399D01*
X0307039Y0058801D01*
X0306119Y0061021D01*
X0304540Y0062600D01*
X0306119Y0064179D01*
X0307039Y0066399D01*
X0307039Y0068801D01*
X0306119Y0071021D01*
X0304540Y0072600D01*
X0306119Y0074179D01*
X0307039Y0076399D01*
X0307039Y0078801D01*
X0306119Y0081021D01*
X0304540Y0082600D01*
X0306119Y0084179D01*
X0307039Y0086399D01*
X0307039Y0088801D01*
X0306119Y0091021D01*
X0304540Y0092600D01*
X0306119Y0094179D01*
X0307039Y0096399D01*
X0307039Y0098801D01*
X0306119Y0101021D01*
X0304540Y0102600D01*
X0306119Y0104179D01*
X0307039Y0106399D01*
X0307039Y0108801D01*
X0306119Y0111021D01*
X0304540Y0112600D01*
X0306119Y0114179D01*
X0307039Y0116399D01*
X0307039Y0118801D01*
X0306119Y0121021D01*
X0304540Y0122600D01*
X0306119Y0124179D01*
X0307039Y0126399D01*
X0307039Y0128801D01*
X0306119Y0131021D01*
X0304421Y0132719D01*
X0302201Y0133639D01*
X0299799Y0133639D01*
X0297579Y0132719D01*
X0295881Y0131021D01*
X0294961Y0128801D01*
X0294961Y0126399D01*
X0295881Y0124179D01*
X0297460Y0122600D01*
X0295881Y0121021D01*
X0294961Y0118801D01*
X0294961Y0116399D01*
X0295881Y0114179D01*
X0297460Y0112600D01*
X0295881Y0111021D01*
X0294961Y0108801D01*
X0294961Y0107881D01*
X0284000Y0118843D01*
X0284000Y0131601D01*
X0284864Y0131601D01*
X0286153Y0132890D01*
X0286153Y0139830D01*
X0286127Y0139856D01*
X0286257Y0140050D01*
X0286453Y0140523D01*
X0286553Y0141025D01*
X0286553Y0143840D01*
X0281000Y0143840D01*
X0281000Y0143840D01*
X0271000Y0143840D01*
X0271000Y0143840D01*
X0261000Y0143840D01*
X0261000Y0143840D01*
X0255447Y0143840D01*
X0255447Y0141025D01*
X0255547Y0140523D01*
X0255743Y0140050D01*
X0255873Y0139856D01*
X0255847Y0139830D01*
X0255847Y0132890D01*
X0257136Y0131601D01*
X0258000Y0131601D01*
X0258000Y0117003D01*
X0258457Y0115901D01*
X0259301Y0115057D01*
X0295136Y0079222D01*
X0294961Y0078801D01*
X0294961Y0076399D01*
X0295881Y0074179D01*
X0297460Y0072600D01*
X0295881Y0071021D01*
X0295707Y0070600D01*
X0255403Y0070600D01*
X0254301Y0070143D01*
X0249301Y0065143D01*
X0248457Y0064299D01*
X0248000Y0063197D01*
X0248000Y0061099D01*
X0247136Y0061099D01*
X0245847Y0059810D01*
X0245847Y0052870D01*
X0245873Y0052844D01*
X0245743Y0052650D01*
X0245547Y0052177D01*
X0245447Y0051675D01*
X0245447Y0048860D01*
X0251000Y0048860D01*
X0256553Y0048860D01*
X0261000Y0048860D01*
X0266553Y0048860D01*
X0266553Y0051675D01*
X0266453Y0052177D01*
X0266257Y0052650D01*
X0266127Y0052844D01*
X0266153Y0052870D01*
X0266153Y0054600D01*
X0295707Y0054600D01*
X0295881Y0054179D01*
X0297460Y0052600D01*
X0295881Y0051021D01*
X0294961Y0048801D01*
X0294961Y0046399D01*
X0295881Y0044179D01*
X0297234Y0042826D01*
X0296746Y0042451D01*
X0296149Y0041854D01*
X0295635Y0041185D01*
X0295213Y0040454D01*
X0294890Y0039674D01*
X0294672Y0038859D01*
X0294561Y0038022D01*
X0294561Y0037600D01*
X0294561Y0037178D01*
X0294672Y0036341D01*
X0294890Y0035526D01*
X0295213Y0034746D01*
X0295635Y0034015D01*
X0296149Y0033346D01*
X0296746Y0032749D01*
X0297415Y0032235D01*
X0298146Y0031813D01*
X0298926Y0031490D01*
X0301000Y0031387D02*
X0301000Y0031387D01*
X0301000Y0031161D02*
X0301000Y0037600D01*
X0307439Y0037600D01*
X0301000Y0037600D01*
X0301000Y0037600D01*
X0301000Y0037600D01*
X0301000Y0037600D01*
X0294561Y0037600D01*
X0301000Y0037600D01*
X0301000Y0031161D01*
X0302688Y0031387D02*
X0312361Y0031387D01*
X0312361Y0034585D02*
X0306694Y0034585D01*
X0307439Y0037784D02*
X0312361Y0037784D01*
X0312361Y0040982D02*
X0306482Y0040982D01*
X0306120Y0044181D02*
X0312361Y0044181D01*
X0312361Y0047379D02*
X0307039Y0047379D01*
X0306303Y0050578D02*
X0312361Y0050578D01*
X0312361Y0053776D02*
X0305716Y0053776D01*
X0307039Y0056975D02*
X0312361Y0056975D01*
X0312361Y0060173D02*
X0306470Y0060173D01*
X0305312Y0063372D02*
X0312361Y0063372D01*
X0312361Y0066570D02*
X0307039Y0066570D01*
X0306638Y0069769D02*
X0312361Y0069769D01*
X0312361Y0072967D02*
X0304907Y0072967D01*
X0306942Y0076166D02*
X0312361Y0076166D01*
X0312361Y0079364D02*
X0306805Y0079364D01*
X0304577Y0082563D02*
X0312361Y0082563D01*
X0312361Y0085761D02*
X0306774Y0085761D01*
X0306973Y0088960D02*
X0312361Y0088960D01*
X0312361Y0092158D02*
X0304982Y0092158D01*
X0306607Y0095357D02*
X0312361Y0095357D01*
X0312361Y0098555D02*
X0307039Y0098555D01*
X0305386Y0101754D02*
X0312361Y0101754D01*
X0312361Y0104952D02*
X0306439Y0104952D01*
X0307039Y0108151D02*
X0312361Y0108151D01*
X0312361Y0111349D02*
X0305790Y0111349D01*
X0306272Y0114548D02*
X0312361Y0114548D01*
X0312361Y0117746D02*
X0307039Y0117746D01*
X0306151Y0120945D02*
X0312361Y0120945D01*
X0312361Y0124143D02*
X0306083Y0124143D01*
X0307039Y0127342D02*
X0312361Y0127342D01*
X0312361Y0130540D02*
X0306318Y0130540D01*
X0312361Y0133739D02*
X0286153Y0133739D01*
X0286153Y0136937D02*
X0312361Y0136937D01*
X0312361Y0140136D02*
X0286293Y0140136D01*
X0286553Y0143334D02*
X0296726Y0143334D01*
X0294961Y0146533D02*
X0286553Y0146533D01*
X0286553Y0146655D02*
X0286453Y0147158D01*
X0286257Y0147631D01*
X0285972Y0148057D01*
X0285610Y0148419D01*
X0285184Y0148703D01*
X0284711Y0148899D01*
X0284209Y0148999D01*
X0281000Y0148999D01*
X0281000Y0143840D01*
X0281000Y0143840D01*
X0286553Y0143840D01*
X0286553Y0146655D01*
X0281000Y0146533D02*
X0281000Y0146533D01*
X0281000Y0148999D02*
X0277791Y0148999D01*
X0277289Y0148899D01*
X0276816Y0148703D01*
X0276390Y0148419D01*
X0276028Y0148057D01*
X0276000Y0148015D01*
X0275972Y0148057D01*
X0275610Y0148419D01*
X0275184Y0148703D01*
X0274711Y0148899D01*
X0274209Y0148999D01*
X0271000Y0148999D01*
X0271000Y0143840D01*
X0271000Y0143840D01*
X0276553Y0143840D01*
X0281000Y0143840D01*
X0281000Y0148999D01*
X0281000Y0143840D02*
X0281000Y0143840D01*
X0271000Y0143840D02*
X0271000Y0143840D01*
X0266553Y0143840D01*
X0261000Y0143840D01*
X0261000Y0143840D01*
X0255447Y0143840D01*
X0255447Y0146655D01*
X0255547Y0147158D01*
X0255743Y0147631D01*
X0256028Y0148057D01*
X0256390Y0148419D01*
X0256816Y0148703D01*
X0257289Y0148899D01*
X0257791Y0148999D01*
X0261000Y0148999D01*
X0261000Y0143840D01*
X0261000Y0148999D01*
X0264209Y0148999D01*
X0264711Y0148899D01*
X0265184Y0148703D01*
X0265610Y0148419D01*
X0265972Y0148057D01*
X0266000Y0148015D01*
X0266028Y0148057D01*
X0266390Y0148419D01*
X0266816Y0148703D01*
X0267289Y0148899D01*
X0267791Y0148999D01*
X0271000Y0148999D01*
X0271000Y0143840D01*
X0271000Y0146533D02*
X0271000Y0146533D01*
X0261000Y0146533D02*
X0261000Y0146533D01*
X0255447Y0146533D02*
X0254899Y0146533D01*
X0254899Y0147059D02*
X0254799Y0147561D01*
X0254603Y0148034D01*
X0254319Y0148460D01*
X0253957Y0148822D01*
X0253531Y0149107D01*
X0253058Y0149303D01*
X0252555Y0149403D01*
X0249740Y0149403D01*
X0249740Y0143850D01*
X0249740Y0143850D01*
X0249740Y0143850D01*
X0249740Y0138297D01*
X0252555Y0138297D01*
X0253058Y0138397D01*
X0253531Y0138593D01*
X0253957Y0138878D01*
X0254319Y0139240D01*
X0254603Y0139666D01*
X0254799Y0140139D01*
X0254899Y0140641D01*
X0254899Y0143850D01*
X0254899Y0147059D01*
X0254899Y0143850D02*
X0249740Y0143850D01*
X0249740Y0143850D01*
X0254899Y0143850D01*
X0254899Y0143334D02*
X0255447Y0143334D01*
X0255707Y0140136D02*
X0254798Y0140136D01*
X0249740Y0140136D02*
X0249740Y0140136D01*
X0249740Y0143334D02*
X0249740Y0143334D01*
X0249740Y0146533D02*
X0249740Y0146533D01*
X0246745Y0149732D02*
X0294626Y0149732D01*
X0296714Y0156129D02*
X0312361Y0156129D01*
X0312361Y0152930D02*
X0303912Y0152930D01*
X0306653Y0149732D02*
X0312361Y0149732D01*
X0312361Y0146533D02*
X0307039Y0146533D01*
X0305274Y0143334D02*
X0312361Y0143334D01*
X0295682Y0130540D02*
X0284000Y0130540D01*
X0284000Y0127342D02*
X0294961Y0127342D01*
X0295917Y0124143D02*
X0284000Y0124143D01*
X0284000Y0120945D02*
X0295849Y0120945D01*
X0294961Y0117746D02*
X0285096Y0117746D01*
X0288295Y0114548D02*
X0295728Y0114548D01*
X0296210Y0111349D02*
X0291493Y0111349D01*
X0294692Y0108151D02*
X0294961Y0108151D01*
X0279001Y0095357D02*
X0220499Y0095357D01*
X0223500Y0098555D02*
X0223500Y0098555D01*
X0223500Y0101754D02*
X0223500Y0101754D01*
X0223500Y0102836D02*
X0223500Y0102836D01*
X0223500Y0104952D02*
X0223500Y0104952D01*
X0223500Y0108151D02*
X0223500Y0108151D01*
X0221510Y0111349D02*
X0235001Y0111349D01*
X0235586Y0108151D02*
X0231808Y0108151D01*
X0231881Y0104952D02*
X0269405Y0104952D01*
X0266206Y0108151D02*
X0251414Y0108151D01*
X0257508Y0111349D02*
X0263008Y0111349D01*
X0259809Y0114548D02*
X0257219Y0114548D01*
X0258000Y0117746D02*
X0251010Y0117746D01*
X0257340Y0120945D02*
X0258000Y0120945D01*
X0258000Y0124143D02*
X0257386Y0124143D01*
X0258000Y0127342D02*
X0251121Y0127342D01*
X0258000Y0130540D02*
X0235240Y0130540D01*
X0235240Y0133739D02*
X0255847Y0133739D01*
X0255847Y0136937D02*
X0235240Y0136937D01*
X0235240Y0140136D02*
X0237501Y0140136D01*
X0237501Y0143334D02*
X0235240Y0143334D01*
X0235240Y0146533D02*
X0237501Y0146533D01*
X0237755Y0149732D02*
X0235240Y0149732D01*
X0235240Y0152930D02*
X0237097Y0152930D01*
X0237097Y0156129D02*
X0235240Y0156129D01*
X0229240Y0149732D02*
X0199361Y0149732D01*
X0202560Y0146533D02*
X0204706Y0146533D01*
X0217767Y0140136D02*
X0229240Y0140136D01*
X0229240Y0143334D02*
X0224794Y0143334D01*
X0224932Y0146533D02*
X0229240Y0146533D01*
X0229240Y0136937D02*
X0217767Y0136937D01*
X0217767Y0133739D02*
X0218860Y0133739D01*
X0223140Y0133739D02*
X0229240Y0133739D01*
X0229240Y0130540D02*
X0225181Y0130540D01*
X0224155Y0127342D02*
X0229240Y0127342D01*
X0230214Y0124143D02*
X0207750Y0124143D01*
X0207750Y0120945D02*
X0213751Y0120945D01*
X0213751Y0117746D02*
X0207750Y0117746D01*
X0207750Y0114548D02*
X0213751Y0114548D01*
X0215510Y0111349D02*
X0207750Y0111349D01*
X0207750Y0108151D02*
X0210192Y0108151D01*
X0210119Y0104952D02*
X0207750Y0104952D01*
X0207750Y0101754D02*
X0210119Y0101754D01*
X0210119Y0098555D02*
X0209287Y0098555D01*
X0216738Y0092158D02*
X0282199Y0092158D01*
X0285398Y0088960D02*
X0258883Y0088960D01*
X0262081Y0085761D02*
X0288596Y0085761D01*
X0291795Y0082563D02*
X0265280Y0082563D01*
X0269795Y0079364D02*
X0294993Y0079364D01*
X0295058Y0076166D02*
X0269931Y0076166D01*
X0262068Y0076166D02*
X0232584Y0076166D01*
X0233469Y0077343D02*
X0233942Y0077147D01*
X0234445Y0077047D01*
X0237260Y0077047D01*
X0237260Y0082600D01*
X0237260Y0082600D01*
X0232101Y0082600D01*
X0232101Y0079391D01*
X0232201Y0078889D01*
X0232397Y0078416D01*
X0232681Y0077990D01*
X0233043Y0077628D01*
X0233469Y0077343D01*
X0232106Y0079364D02*
X0231881Y0079364D01*
X0231881Y0082563D02*
X0232101Y0082563D01*
X0232101Y0085761D02*
X0231881Y0085761D01*
X0237260Y0082600D02*
X0237260Y0082600D01*
X0237260Y0082563D02*
X0237260Y0082563D01*
X0237260Y0079364D02*
X0237260Y0079364D01*
X0232142Y0072967D02*
X0297093Y0072967D01*
X0296284Y0053776D02*
X0266153Y0053776D01*
X0266553Y0050578D02*
X0295697Y0050578D01*
X0294961Y0047379D02*
X0266553Y0047379D01*
X0266553Y0046045D02*
X0266553Y0048860D01*
X0261000Y0048860D01*
X0261000Y0048860D01*
X0261000Y0048860D01*
X0251000Y0048860D01*
X0251000Y0048860D01*
X0251000Y0048860D01*
X0245447Y0048860D01*
X0245447Y0046045D01*
X0245547Y0045542D01*
X0245743Y0045069D01*
X0246028Y0044643D01*
X0246390Y0044281D01*
X0246816Y0043997D01*
X0247289Y0043801D01*
X0247791Y0043701D01*
X0251000Y0043701D01*
X0254209Y0043701D01*
X0254711Y0043801D01*
X0255184Y0043997D01*
X0255610Y0044281D01*
X0255972Y0044643D01*
X0256000Y0044685D01*
X0256028Y0044643D01*
X0256390Y0044281D01*
X0256816Y0043997D01*
X0257289Y0043801D01*
X0257791Y0043701D01*
X0261000Y0043701D01*
X0264209Y0043701D01*
X0264711Y0043801D01*
X0265184Y0043997D01*
X0265610Y0044281D01*
X0265972Y0044643D01*
X0266257Y0045069D01*
X0266453Y0045542D01*
X0266553Y0046045D01*
X0265460Y0044181D02*
X0295880Y0044181D01*
X0295518Y0040982D02*
X0230160Y0040982D01*
X0229566Y0037784D02*
X0294561Y0037784D01*
X0295306Y0034585D02*
X0203653Y0034585D01*
X0212434Y0037784D02*
X0181047Y0037784D01*
X0183625Y0040982D02*
X0187145Y0040982D01*
X0187129Y0044181D02*
X0186823Y0044181D01*
X0181457Y0047379D02*
X0181084Y0047379D01*
X0180749Y0050578D02*
X0181457Y0050578D01*
X0181457Y0053776D02*
X0180749Y0053776D01*
X0180239Y0056975D02*
X0194882Y0056975D01*
X0198123Y0060173D02*
X0180749Y0060173D01*
X0180749Y0063372D02*
X0210447Y0063372D01*
X0216000Y0063840D02*
X0216000Y0063840D01*
X0216000Y0066570D02*
X0216000Y0066570D01*
X0212127Y0069769D02*
X0253926Y0069769D01*
X0250728Y0066570D02*
X0231553Y0066570D01*
X0231553Y0063372D02*
X0248072Y0063372D01*
X0246210Y0060173D02*
X0231308Y0060173D01*
X0231153Y0056975D02*
X0245847Y0056975D01*
X0245847Y0053776D02*
X0231153Y0053776D01*
X0229000Y0050578D02*
X0245447Y0050578D01*
X0245447Y0047379D02*
X0229000Y0047379D01*
X0229000Y0044181D02*
X0246540Y0044181D01*
X0251000Y0044181D02*
X0251000Y0044181D01*
X0251000Y0043701D02*
X0251000Y0048860D01*
X0251000Y0048860D01*
X0251000Y0043701D01*
X0251000Y0047379D02*
X0251000Y0047379D01*
X0255460Y0044181D02*
X0256540Y0044181D01*
X0261000Y0044181D02*
X0261000Y0044181D01*
X0261000Y0043701D02*
X0261000Y0048860D01*
X0261000Y0048860D01*
X0261000Y0043701D01*
X0261000Y0047379D02*
X0261000Y0047379D01*
X0226000Y0063840D02*
X0226000Y0063840D01*
X0226000Y0066570D02*
X0226000Y0066570D01*
X0224858Y0072967D02*
X0212660Y0072967D01*
X0215925Y0076166D02*
X0216075Y0076166D01*
X0220925Y0076166D02*
X0221075Y0076166D01*
X0194037Y0066570D02*
X0180643Y0066570D01*
X0181153Y0069769D02*
X0182322Y0069769D01*
X0181457Y0072967D02*
X0181153Y0072967D01*
X0181153Y0076166D02*
X0181457Y0076166D01*
X0189581Y0085761D02*
X0191780Y0085761D01*
X0191000Y0088701D02*
X0191000Y0093860D01*
X0191000Y0093860D01*
X0191000Y0088701D01*
X0191000Y0088960D02*
X0191000Y0088960D01*
X0191000Y0092158D02*
X0191000Y0092158D01*
X0186905Y0088960D02*
X0186383Y0088960D01*
X0185447Y0092158D02*
X0183805Y0092158D01*
X0184899Y0095357D02*
X0185447Y0095357D01*
X0184899Y0097600D02*
X0179740Y0097600D01*
X0184899Y0097600D01*
X0184899Y0098555D02*
X0185847Y0098555D01*
X0179740Y0098555D02*
X0179740Y0098555D01*
X0179740Y0097600D02*
X0179740Y0097600D01*
X0141874Y0085761D02*
X0136000Y0085761D01*
X0136000Y0082563D02*
X0140847Y0082563D01*
X0168510Y0062600D02*
X0168510Y0062600D01*
X0168510Y0060173D02*
X0168510Y0060173D01*
X0168510Y0056975D02*
X0168510Y0056975D01*
X0168510Y0053776D02*
X0168510Y0053776D01*
X0168510Y0052600D02*
X0168510Y0052600D01*
X0187102Y0055094D02*
X0187102Y0056256D01*
X0187102Y0055094D01*
X0187102Y0055094D01*
X0187102Y0055094D01*
X0194871Y0044181D02*
X0213000Y0044181D01*
X0213000Y0047379D02*
X0205920Y0047379D01*
X0205943Y0050578D02*
X0213000Y0050578D01*
X0210847Y0053776D02*
X0210194Y0053776D01*
X0206806Y0053776D02*
X0205943Y0053776D01*
X0202457Y0046312D02*
X0202457Y0045150D01*
X0202457Y0046312D01*
X0202457Y0046312D01*
X0194855Y0040982D02*
X0211840Y0040982D01*
X0219000Y0044181D02*
X0223000Y0044181D01*
X0223000Y0047379D02*
X0219000Y0047379D01*
X0219000Y0050578D02*
X0223000Y0050578D01*
X0221840Y0040982D02*
X0220160Y0040982D01*
X0219566Y0037784D02*
X0222434Y0037784D01*
X0198500Y0023860D02*
X0198500Y0023860D01*
X0198500Y0023860D01*
X0188500Y0023860D01*
X0188500Y0023860D01*
X0188500Y0023860D01*
X0182947Y0023860D01*
X0178500Y0023860D01*
X0178500Y0023860D01*
X0188500Y0023860D01*
X0194053Y0023860D01*
X0198500Y0023860D01*
X0198500Y0018701D01*
X0198500Y0023860D01*
X0198500Y0023860D01*
X0198500Y0021791D02*
X0198500Y0021791D01*
X0188500Y0021791D02*
X0188500Y0021791D01*
X0188500Y0023860D02*
X0188500Y0018701D01*
X0188500Y0023860D01*
X0188500Y0023860D01*
X0178500Y0023860D02*
X0178500Y0018701D01*
X0178500Y0023860D01*
X0178500Y0023860D01*
X0178500Y0021791D02*
X0178500Y0021791D01*
X0136000Y0015394D02*
X0296306Y0015394D01*
X0295975Y0012196D02*
X0136000Y0012196D01*
X0136000Y0008997D02*
X0296641Y0008997D01*
X0310007Y0021791D02*
X0312361Y0021791D01*
X0301000Y0034585D02*
X0301000Y0034585D01*
X0259993Y0079364D02*
X0253677Y0079364D01*
X0255181Y0082563D02*
X0256795Y0082563D01*
X0275802Y0098555D02*
X0231881Y0098555D01*
X0231881Y0101754D02*
X0272603Y0101754D01*
X0235879Y0127342D02*
X0235501Y0127342D01*
X0261000Y0143840D02*
X0261000Y0143840D01*
X0259688Y0159327D02*
X0312361Y0159327D01*
X0312361Y0162526D02*
X0304465Y0162526D01*
X0304421Y0162481D02*
X0306119Y0164179D01*
X0307039Y0166399D01*
X0307039Y0168801D01*
X0306119Y0171021D01*
X0304421Y0172719D01*
X0302201Y0173639D01*
X0299799Y0173639D01*
X0297579Y0172719D01*
X0295881Y0171021D01*
X0294961Y0168801D01*
X0294961Y0166399D01*
X0295881Y0164179D01*
X0297579Y0162481D01*
X0299799Y0161561D01*
X0302201Y0161561D01*
X0304421Y0162481D01*
X0306759Y0165724D02*
X0312361Y0165724D01*
X0312361Y0168923D02*
X0306988Y0168923D01*
X0305019Y0172121D02*
X0312361Y0172121D01*
X0312361Y0175320D02*
X0254309Y0175320D01*
X0252484Y0178518D02*
X0312361Y0178518D01*
X0312361Y0181717D02*
X0250168Y0181717D01*
X0252403Y0184915D02*
X0299507Y0184915D01*
X0297007Y0188114D02*
X0253877Y0188114D01*
X0254499Y0191312D02*
X0295975Y0191312D01*
X0295975Y0194511D02*
X0254499Y0194511D01*
X0253254Y0197709D02*
X0297265Y0197709D01*
X0296981Y0172121D02*
X0254309Y0172121D01*
X0253773Y0168923D02*
X0295012Y0168923D01*
X0295241Y0165724D02*
X0246489Y0165724D01*
X0249740Y0168923D02*
X0249740Y0168923D01*
X0249740Y0172121D02*
X0249740Y0172121D01*
X0238771Y0168923D02*
X0236242Y0168923D01*
X0236553Y0165724D02*
X0238011Y0165724D01*
X0260039Y0162526D02*
X0297535Y0162526D01*
X0295347Y0156850D02*
X0295347Y0156850D01*
X0296450Y0156393D02*
X0296450Y0156393D01*
X0246226Y0197709D02*
X0245774Y0197709D01*
X0206226Y0197709D02*
X0205774Y0197709D01*
X0198746Y0197709D02*
X0173254Y0197709D01*
X0174499Y0194511D02*
X0185847Y0194511D01*
X0185847Y0191312D02*
X0174499Y0191312D01*
X0173877Y0188114D02*
X0185847Y0188114D01*
X0185847Y0184915D02*
X0172750Y0184915D01*
X0170609Y0181717D02*
X0185847Y0181717D01*
X0185758Y0168923D02*
X0181565Y0168923D01*
X0179749Y0165724D02*
X0185447Y0165724D01*
X0166427Y0152930D02*
X0165181Y0152930D01*
X0164044Y0149732D02*
X0167955Y0149732D01*
X0158616Y0156129D02*
X0128643Y0156129D01*
X0119569Y0146533D02*
X0119430Y0146533D01*
X0115331Y0162526D02*
X0115331Y0162526D01*
X0165774Y0197709D02*
X0166226Y0197709D01*
X0146000Y0050578D02*
X0146000Y0050578D01*
D26*
X0199750Y0087600D03*
X0206000Y0092600D03*
M02*
