G75*
%MOIN*%
%OFA0B0*%
%FSLAX25Y25*%
%IPPOS*%
%LPD*%
%AMOC8*
5,1,8,0,0,1.08239X$1,22.5*
%
%ADD10C,0.00000*%
D10*
X0001000Y0002600D02*
X0316000Y0002600D01*
X0315961Y0002599D02*
X0315961Y0202600D01*
X0001000Y0202600D01*
X0001000Y0002600D01*
X0004575Y0012600D02*
X0004577Y0012760D01*
X0004583Y0012920D01*
X0004593Y0013080D01*
X0004607Y0013240D01*
X0004625Y0013399D01*
X0004647Y0013558D01*
X0004673Y0013716D01*
X0004702Y0013873D01*
X0004736Y0014030D01*
X0004774Y0014185D01*
X0004815Y0014340D01*
X0004860Y0014494D01*
X0004910Y0014646D01*
X0004962Y0014797D01*
X0005019Y0014947D01*
X0005080Y0015096D01*
X0005144Y0015243D01*
X0005211Y0015388D01*
X0005283Y0015531D01*
X0005357Y0015673D01*
X0005436Y0015813D01*
X0005518Y0015950D01*
X0005603Y0016086D01*
X0005691Y0016219D01*
X0005783Y0016351D01*
X0005878Y0016479D01*
X0005977Y0016606D01*
X0006078Y0016730D01*
X0006183Y0016851D01*
X0006290Y0016970D01*
X0006401Y0017086D01*
X0006514Y0017199D01*
X0006630Y0017310D01*
X0006749Y0017417D01*
X0006870Y0017522D01*
X0006994Y0017623D01*
X0007121Y0017722D01*
X0007249Y0017817D01*
X0007381Y0017909D01*
X0007514Y0017997D01*
X0007650Y0018082D01*
X0007788Y0018164D01*
X0007927Y0018243D01*
X0008069Y0018317D01*
X0008212Y0018389D01*
X0008357Y0018456D01*
X0008504Y0018520D01*
X0008653Y0018581D01*
X0008803Y0018638D01*
X0008954Y0018690D01*
X0009106Y0018740D01*
X0009260Y0018785D01*
X0009415Y0018826D01*
X0009570Y0018864D01*
X0009727Y0018898D01*
X0009884Y0018927D01*
X0010042Y0018953D01*
X0010201Y0018975D01*
X0010360Y0018993D01*
X0010520Y0019007D01*
X0010680Y0019017D01*
X0010840Y0019023D01*
X0011000Y0019025D01*
X0011160Y0019023D01*
X0011320Y0019017D01*
X0011480Y0019007D01*
X0011640Y0018993D01*
X0011799Y0018975D01*
X0011958Y0018953D01*
X0012116Y0018927D01*
X0012273Y0018898D01*
X0012430Y0018864D01*
X0012585Y0018826D01*
X0012740Y0018785D01*
X0012894Y0018740D01*
X0013046Y0018690D01*
X0013197Y0018638D01*
X0013347Y0018581D01*
X0013496Y0018520D01*
X0013643Y0018456D01*
X0013788Y0018389D01*
X0013931Y0018317D01*
X0014073Y0018243D01*
X0014213Y0018164D01*
X0014350Y0018082D01*
X0014486Y0017997D01*
X0014619Y0017909D01*
X0014751Y0017817D01*
X0014879Y0017722D01*
X0015006Y0017623D01*
X0015130Y0017522D01*
X0015251Y0017417D01*
X0015370Y0017310D01*
X0015486Y0017199D01*
X0015599Y0017086D01*
X0015710Y0016970D01*
X0015817Y0016851D01*
X0015922Y0016730D01*
X0016023Y0016606D01*
X0016122Y0016479D01*
X0016217Y0016351D01*
X0016309Y0016219D01*
X0016397Y0016086D01*
X0016482Y0015950D01*
X0016564Y0015812D01*
X0016643Y0015673D01*
X0016717Y0015531D01*
X0016789Y0015388D01*
X0016856Y0015243D01*
X0016920Y0015096D01*
X0016981Y0014947D01*
X0017038Y0014797D01*
X0017090Y0014646D01*
X0017140Y0014494D01*
X0017185Y0014340D01*
X0017226Y0014185D01*
X0017264Y0014030D01*
X0017298Y0013873D01*
X0017327Y0013716D01*
X0017353Y0013558D01*
X0017375Y0013399D01*
X0017393Y0013240D01*
X0017407Y0013080D01*
X0017417Y0012920D01*
X0017423Y0012760D01*
X0017425Y0012600D01*
X0017423Y0012440D01*
X0017417Y0012280D01*
X0017407Y0012120D01*
X0017393Y0011960D01*
X0017375Y0011801D01*
X0017353Y0011642D01*
X0017327Y0011484D01*
X0017298Y0011327D01*
X0017264Y0011170D01*
X0017226Y0011015D01*
X0017185Y0010860D01*
X0017140Y0010706D01*
X0017090Y0010554D01*
X0017038Y0010403D01*
X0016981Y0010253D01*
X0016920Y0010104D01*
X0016856Y0009957D01*
X0016789Y0009812D01*
X0016717Y0009669D01*
X0016643Y0009527D01*
X0016564Y0009387D01*
X0016482Y0009250D01*
X0016397Y0009114D01*
X0016309Y0008981D01*
X0016217Y0008849D01*
X0016122Y0008721D01*
X0016023Y0008594D01*
X0015922Y0008470D01*
X0015817Y0008349D01*
X0015710Y0008230D01*
X0015599Y0008114D01*
X0015486Y0008001D01*
X0015370Y0007890D01*
X0015251Y0007783D01*
X0015130Y0007678D01*
X0015006Y0007577D01*
X0014879Y0007478D01*
X0014751Y0007383D01*
X0014619Y0007291D01*
X0014486Y0007203D01*
X0014350Y0007118D01*
X0014212Y0007036D01*
X0014073Y0006957D01*
X0013931Y0006883D01*
X0013788Y0006811D01*
X0013643Y0006744D01*
X0013496Y0006680D01*
X0013347Y0006619D01*
X0013197Y0006562D01*
X0013046Y0006510D01*
X0012894Y0006460D01*
X0012740Y0006415D01*
X0012585Y0006374D01*
X0012430Y0006336D01*
X0012273Y0006302D01*
X0012116Y0006273D01*
X0011958Y0006247D01*
X0011799Y0006225D01*
X0011640Y0006207D01*
X0011480Y0006193D01*
X0011320Y0006183D01*
X0011160Y0006177D01*
X0011000Y0006175D01*
X0010840Y0006177D01*
X0010680Y0006183D01*
X0010520Y0006193D01*
X0010360Y0006207D01*
X0010201Y0006225D01*
X0010042Y0006247D01*
X0009884Y0006273D01*
X0009727Y0006302D01*
X0009570Y0006336D01*
X0009415Y0006374D01*
X0009260Y0006415D01*
X0009106Y0006460D01*
X0008954Y0006510D01*
X0008803Y0006562D01*
X0008653Y0006619D01*
X0008504Y0006680D01*
X0008357Y0006744D01*
X0008212Y0006811D01*
X0008069Y0006883D01*
X0007927Y0006957D01*
X0007787Y0007036D01*
X0007650Y0007118D01*
X0007514Y0007203D01*
X0007381Y0007291D01*
X0007249Y0007383D01*
X0007121Y0007478D01*
X0006994Y0007577D01*
X0006870Y0007678D01*
X0006749Y0007783D01*
X0006630Y0007890D01*
X0006514Y0008001D01*
X0006401Y0008114D01*
X0006290Y0008230D01*
X0006183Y0008349D01*
X0006078Y0008470D01*
X0005977Y0008594D01*
X0005878Y0008721D01*
X0005783Y0008849D01*
X0005691Y0008981D01*
X0005603Y0009114D01*
X0005518Y0009250D01*
X0005436Y0009388D01*
X0005357Y0009527D01*
X0005283Y0009669D01*
X0005211Y0009812D01*
X0005144Y0009957D01*
X0005080Y0010104D01*
X0005019Y0010253D01*
X0004962Y0010403D01*
X0004910Y0010554D01*
X0004860Y0010706D01*
X0004815Y0010860D01*
X0004774Y0011015D01*
X0004736Y0011170D01*
X0004702Y0011327D01*
X0004673Y0011484D01*
X0004647Y0011642D01*
X0004625Y0011801D01*
X0004607Y0011960D01*
X0004593Y0012120D01*
X0004583Y0012280D01*
X0004577Y0012440D01*
X0004575Y0012600D01*
X0004575Y0192600D02*
X0004577Y0192760D01*
X0004583Y0192920D01*
X0004593Y0193080D01*
X0004607Y0193240D01*
X0004625Y0193399D01*
X0004647Y0193558D01*
X0004673Y0193716D01*
X0004702Y0193873D01*
X0004736Y0194030D01*
X0004774Y0194185D01*
X0004815Y0194340D01*
X0004860Y0194494D01*
X0004910Y0194646D01*
X0004962Y0194797D01*
X0005019Y0194947D01*
X0005080Y0195096D01*
X0005144Y0195243D01*
X0005211Y0195388D01*
X0005283Y0195531D01*
X0005357Y0195673D01*
X0005436Y0195813D01*
X0005518Y0195950D01*
X0005603Y0196086D01*
X0005691Y0196219D01*
X0005783Y0196351D01*
X0005878Y0196479D01*
X0005977Y0196606D01*
X0006078Y0196730D01*
X0006183Y0196851D01*
X0006290Y0196970D01*
X0006401Y0197086D01*
X0006514Y0197199D01*
X0006630Y0197310D01*
X0006749Y0197417D01*
X0006870Y0197522D01*
X0006994Y0197623D01*
X0007121Y0197722D01*
X0007249Y0197817D01*
X0007381Y0197909D01*
X0007514Y0197997D01*
X0007650Y0198082D01*
X0007788Y0198164D01*
X0007927Y0198243D01*
X0008069Y0198317D01*
X0008212Y0198389D01*
X0008357Y0198456D01*
X0008504Y0198520D01*
X0008653Y0198581D01*
X0008803Y0198638D01*
X0008954Y0198690D01*
X0009106Y0198740D01*
X0009260Y0198785D01*
X0009415Y0198826D01*
X0009570Y0198864D01*
X0009727Y0198898D01*
X0009884Y0198927D01*
X0010042Y0198953D01*
X0010201Y0198975D01*
X0010360Y0198993D01*
X0010520Y0199007D01*
X0010680Y0199017D01*
X0010840Y0199023D01*
X0011000Y0199025D01*
X0011160Y0199023D01*
X0011320Y0199017D01*
X0011480Y0199007D01*
X0011640Y0198993D01*
X0011799Y0198975D01*
X0011958Y0198953D01*
X0012116Y0198927D01*
X0012273Y0198898D01*
X0012430Y0198864D01*
X0012585Y0198826D01*
X0012740Y0198785D01*
X0012894Y0198740D01*
X0013046Y0198690D01*
X0013197Y0198638D01*
X0013347Y0198581D01*
X0013496Y0198520D01*
X0013643Y0198456D01*
X0013788Y0198389D01*
X0013931Y0198317D01*
X0014073Y0198243D01*
X0014213Y0198164D01*
X0014350Y0198082D01*
X0014486Y0197997D01*
X0014619Y0197909D01*
X0014751Y0197817D01*
X0014879Y0197722D01*
X0015006Y0197623D01*
X0015130Y0197522D01*
X0015251Y0197417D01*
X0015370Y0197310D01*
X0015486Y0197199D01*
X0015599Y0197086D01*
X0015710Y0196970D01*
X0015817Y0196851D01*
X0015922Y0196730D01*
X0016023Y0196606D01*
X0016122Y0196479D01*
X0016217Y0196351D01*
X0016309Y0196219D01*
X0016397Y0196086D01*
X0016482Y0195950D01*
X0016564Y0195812D01*
X0016643Y0195673D01*
X0016717Y0195531D01*
X0016789Y0195388D01*
X0016856Y0195243D01*
X0016920Y0195096D01*
X0016981Y0194947D01*
X0017038Y0194797D01*
X0017090Y0194646D01*
X0017140Y0194494D01*
X0017185Y0194340D01*
X0017226Y0194185D01*
X0017264Y0194030D01*
X0017298Y0193873D01*
X0017327Y0193716D01*
X0017353Y0193558D01*
X0017375Y0193399D01*
X0017393Y0193240D01*
X0017407Y0193080D01*
X0017417Y0192920D01*
X0017423Y0192760D01*
X0017425Y0192600D01*
X0017423Y0192440D01*
X0017417Y0192280D01*
X0017407Y0192120D01*
X0017393Y0191960D01*
X0017375Y0191801D01*
X0017353Y0191642D01*
X0017327Y0191484D01*
X0017298Y0191327D01*
X0017264Y0191170D01*
X0017226Y0191015D01*
X0017185Y0190860D01*
X0017140Y0190706D01*
X0017090Y0190554D01*
X0017038Y0190403D01*
X0016981Y0190253D01*
X0016920Y0190104D01*
X0016856Y0189957D01*
X0016789Y0189812D01*
X0016717Y0189669D01*
X0016643Y0189527D01*
X0016564Y0189387D01*
X0016482Y0189250D01*
X0016397Y0189114D01*
X0016309Y0188981D01*
X0016217Y0188849D01*
X0016122Y0188721D01*
X0016023Y0188594D01*
X0015922Y0188470D01*
X0015817Y0188349D01*
X0015710Y0188230D01*
X0015599Y0188114D01*
X0015486Y0188001D01*
X0015370Y0187890D01*
X0015251Y0187783D01*
X0015130Y0187678D01*
X0015006Y0187577D01*
X0014879Y0187478D01*
X0014751Y0187383D01*
X0014619Y0187291D01*
X0014486Y0187203D01*
X0014350Y0187118D01*
X0014212Y0187036D01*
X0014073Y0186957D01*
X0013931Y0186883D01*
X0013788Y0186811D01*
X0013643Y0186744D01*
X0013496Y0186680D01*
X0013347Y0186619D01*
X0013197Y0186562D01*
X0013046Y0186510D01*
X0012894Y0186460D01*
X0012740Y0186415D01*
X0012585Y0186374D01*
X0012430Y0186336D01*
X0012273Y0186302D01*
X0012116Y0186273D01*
X0011958Y0186247D01*
X0011799Y0186225D01*
X0011640Y0186207D01*
X0011480Y0186193D01*
X0011320Y0186183D01*
X0011160Y0186177D01*
X0011000Y0186175D01*
X0010840Y0186177D01*
X0010680Y0186183D01*
X0010520Y0186193D01*
X0010360Y0186207D01*
X0010201Y0186225D01*
X0010042Y0186247D01*
X0009884Y0186273D01*
X0009727Y0186302D01*
X0009570Y0186336D01*
X0009415Y0186374D01*
X0009260Y0186415D01*
X0009106Y0186460D01*
X0008954Y0186510D01*
X0008803Y0186562D01*
X0008653Y0186619D01*
X0008504Y0186680D01*
X0008357Y0186744D01*
X0008212Y0186811D01*
X0008069Y0186883D01*
X0007927Y0186957D01*
X0007787Y0187036D01*
X0007650Y0187118D01*
X0007514Y0187203D01*
X0007381Y0187291D01*
X0007249Y0187383D01*
X0007121Y0187478D01*
X0006994Y0187577D01*
X0006870Y0187678D01*
X0006749Y0187783D01*
X0006630Y0187890D01*
X0006514Y0188001D01*
X0006401Y0188114D01*
X0006290Y0188230D01*
X0006183Y0188349D01*
X0006078Y0188470D01*
X0005977Y0188594D01*
X0005878Y0188721D01*
X0005783Y0188849D01*
X0005691Y0188981D01*
X0005603Y0189114D01*
X0005518Y0189250D01*
X0005436Y0189388D01*
X0005357Y0189527D01*
X0005283Y0189669D01*
X0005211Y0189812D01*
X0005144Y0189957D01*
X0005080Y0190104D01*
X0005019Y0190253D01*
X0004962Y0190403D01*
X0004910Y0190554D01*
X0004860Y0190706D01*
X0004815Y0190860D01*
X0004774Y0191015D01*
X0004736Y0191170D01*
X0004702Y0191327D01*
X0004673Y0191484D01*
X0004647Y0191642D01*
X0004625Y0191801D01*
X0004607Y0191960D01*
X0004593Y0192120D01*
X0004583Y0192280D01*
X0004577Y0192440D01*
X0004575Y0192600D01*
X0299575Y0192600D02*
X0299577Y0192760D01*
X0299583Y0192920D01*
X0299593Y0193080D01*
X0299607Y0193240D01*
X0299625Y0193399D01*
X0299647Y0193558D01*
X0299673Y0193716D01*
X0299702Y0193873D01*
X0299736Y0194030D01*
X0299774Y0194185D01*
X0299815Y0194340D01*
X0299860Y0194494D01*
X0299910Y0194646D01*
X0299962Y0194797D01*
X0300019Y0194947D01*
X0300080Y0195096D01*
X0300144Y0195243D01*
X0300211Y0195388D01*
X0300283Y0195531D01*
X0300357Y0195673D01*
X0300436Y0195813D01*
X0300518Y0195950D01*
X0300603Y0196086D01*
X0300691Y0196219D01*
X0300783Y0196351D01*
X0300878Y0196479D01*
X0300977Y0196606D01*
X0301078Y0196730D01*
X0301183Y0196851D01*
X0301290Y0196970D01*
X0301401Y0197086D01*
X0301514Y0197199D01*
X0301630Y0197310D01*
X0301749Y0197417D01*
X0301870Y0197522D01*
X0301994Y0197623D01*
X0302121Y0197722D01*
X0302249Y0197817D01*
X0302381Y0197909D01*
X0302514Y0197997D01*
X0302650Y0198082D01*
X0302788Y0198164D01*
X0302927Y0198243D01*
X0303069Y0198317D01*
X0303212Y0198389D01*
X0303357Y0198456D01*
X0303504Y0198520D01*
X0303653Y0198581D01*
X0303803Y0198638D01*
X0303954Y0198690D01*
X0304106Y0198740D01*
X0304260Y0198785D01*
X0304415Y0198826D01*
X0304570Y0198864D01*
X0304727Y0198898D01*
X0304884Y0198927D01*
X0305042Y0198953D01*
X0305201Y0198975D01*
X0305360Y0198993D01*
X0305520Y0199007D01*
X0305680Y0199017D01*
X0305840Y0199023D01*
X0306000Y0199025D01*
X0306160Y0199023D01*
X0306320Y0199017D01*
X0306480Y0199007D01*
X0306640Y0198993D01*
X0306799Y0198975D01*
X0306958Y0198953D01*
X0307116Y0198927D01*
X0307273Y0198898D01*
X0307430Y0198864D01*
X0307585Y0198826D01*
X0307740Y0198785D01*
X0307894Y0198740D01*
X0308046Y0198690D01*
X0308197Y0198638D01*
X0308347Y0198581D01*
X0308496Y0198520D01*
X0308643Y0198456D01*
X0308788Y0198389D01*
X0308931Y0198317D01*
X0309073Y0198243D01*
X0309213Y0198164D01*
X0309350Y0198082D01*
X0309486Y0197997D01*
X0309619Y0197909D01*
X0309751Y0197817D01*
X0309879Y0197722D01*
X0310006Y0197623D01*
X0310130Y0197522D01*
X0310251Y0197417D01*
X0310370Y0197310D01*
X0310486Y0197199D01*
X0310599Y0197086D01*
X0310710Y0196970D01*
X0310817Y0196851D01*
X0310922Y0196730D01*
X0311023Y0196606D01*
X0311122Y0196479D01*
X0311217Y0196351D01*
X0311309Y0196219D01*
X0311397Y0196086D01*
X0311482Y0195950D01*
X0311564Y0195812D01*
X0311643Y0195673D01*
X0311717Y0195531D01*
X0311789Y0195388D01*
X0311856Y0195243D01*
X0311920Y0195096D01*
X0311981Y0194947D01*
X0312038Y0194797D01*
X0312090Y0194646D01*
X0312140Y0194494D01*
X0312185Y0194340D01*
X0312226Y0194185D01*
X0312264Y0194030D01*
X0312298Y0193873D01*
X0312327Y0193716D01*
X0312353Y0193558D01*
X0312375Y0193399D01*
X0312393Y0193240D01*
X0312407Y0193080D01*
X0312417Y0192920D01*
X0312423Y0192760D01*
X0312425Y0192600D01*
X0312423Y0192440D01*
X0312417Y0192280D01*
X0312407Y0192120D01*
X0312393Y0191960D01*
X0312375Y0191801D01*
X0312353Y0191642D01*
X0312327Y0191484D01*
X0312298Y0191327D01*
X0312264Y0191170D01*
X0312226Y0191015D01*
X0312185Y0190860D01*
X0312140Y0190706D01*
X0312090Y0190554D01*
X0312038Y0190403D01*
X0311981Y0190253D01*
X0311920Y0190104D01*
X0311856Y0189957D01*
X0311789Y0189812D01*
X0311717Y0189669D01*
X0311643Y0189527D01*
X0311564Y0189387D01*
X0311482Y0189250D01*
X0311397Y0189114D01*
X0311309Y0188981D01*
X0311217Y0188849D01*
X0311122Y0188721D01*
X0311023Y0188594D01*
X0310922Y0188470D01*
X0310817Y0188349D01*
X0310710Y0188230D01*
X0310599Y0188114D01*
X0310486Y0188001D01*
X0310370Y0187890D01*
X0310251Y0187783D01*
X0310130Y0187678D01*
X0310006Y0187577D01*
X0309879Y0187478D01*
X0309751Y0187383D01*
X0309619Y0187291D01*
X0309486Y0187203D01*
X0309350Y0187118D01*
X0309212Y0187036D01*
X0309073Y0186957D01*
X0308931Y0186883D01*
X0308788Y0186811D01*
X0308643Y0186744D01*
X0308496Y0186680D01*
X0308347Y0186619D01*
X0308197Y0186562D01*
X0308046Y0186510D01*
X0307894Y0186460D01*
X0307740Y0186415D01*
X0307585Y0186374D01*
X0307430Y0186336D01*
X0307273Y0186302D01*
X0307116Y0186273D01*
X0306958Y0186247D01*
X0306799Y0186225D01*
X0306640Y0186207D01*
X0306480Y0186193D01*
X0306320Y0186183D01*
X0306160Y0186177D01*
X0306000Y0186175D01*
X0305840Y0186177D01*
X0305680Y0186183D01*
X0305520Y0186193D01*
X0305360Y0186207D01*
X0305201Y0186225D01*
X0305042Y0186247D01*
X0304884Y0186273D01*
X0304727Y0186302D01*
X0304570Y0186336D01*
X0304415Y0186374D01*
X0304260Y0186415D01*
X0304106Y0186460D01*
X0303954Y0186510D01*
X0303803Y0186562D01*
X0303653Y0186619D01*
X0303504Y0186680D01*
X0303357Y0186744D01*
X0303212Y0186811D01*
X0303069Y0186883D01*
X0302927Y0186957D01*
X0302787Y0187036D01*
X0302650Y0187118D01*
X0302514Y0187203D01*
X0302381Y0187291D01*
X0302249Y0187383D01*
X0302121Y0187478D01*
X0301994Y0187577D01*
X0301870Y0187678D01*
X0301749Y0187783D01*
X0301630Y0187890D01*
X0301514Y0188001D01*
X0301401Y0188114D01*
X0301290Y0188230D01*
X0301183Y0188349D01*
X0301078Y0188470D01*
X0300977Y0188594D01*
X0300878Y0188721D01*
X0300783Y0188849D01*
X0300691Y0188981D01*
X0300603Y0189114D01*
X0300518Y0189250D01*
X0300436Y0189388D01*
X0300357Y0189527D01*
X0300283Y0189669D01*
X0300211Y0189812D01*
X0300144Y0189957D01*
X0300080Y0190104D01*
X0300019Y0190253D01*
X0299962Y0190403D01*
X0299910Y0190554D01*
X0299860Y0190706D01*
X0299815Y0190860D01*
X0299774Y0191015D01*
X0299736Y0191170D01*
X0299702Y0191327D01*
X0299673Y0191484D01*
X0299647Y0191642D01*
X0299625Y0191801D01*
X0299607Y0191960D01*
X0299593Y0192120D01*
X0299583Y0192280D01*
X0299577Y0192440D01*
X0299575Y0192600D01*
X0299575Y0012600D02*
X0299577Y0012760D01*
X0299583Y0012920D01*
X0299593Y0013080D01*
X0299607Y0013240D01*
X0299625Y0013399D01*
X0299647Y0013558D01*
X0299673Y0013716D01*
X0299702Y0013873D01*
X0299736Y0014030D01*
X0299774Y0014185D01*
X0299815Y0014340D01*
X0299860Y0014494D01*
X0299910Y0014646D01*
X0299962Y0014797D01*
X0300019Y0014947D01*
X0300080Y0015096D01*
X0300144Y0015243D01*
X0300211Y0015388D01*
X0300283Y0015531D01*
X0300357Y0015673D01*
X0300436Y0015813D01*
X0300518Y0015950D01*
X0300603Y0016086D01*
X0300691Y0016219D01*
X0300783Y0016351D01*
X0300878Y0016479D01*
X0300977Y0016606D01*
X0301078Y0016730D01*
X0301183Y0016851D01*
X0301290Y0016970D01*
X0301401Y0017086D01*
X0301514Y0017199D01*
X0301630Y0017310D01*
X0301749Y0017417D01*
X0301870Y0017522D01*
X0301994Y0017623D01*
X0302121Y0017722D01*
X0302249Y0017817D01*
X0302381Y0017909D01*
X0302514Y0017997D01*
X0302650Y0018082D01*
X0302788Y0018164D01*
X0302927Y0018243D01*
X0303069Y0018317D01*
X0303212Y0018389D01*
X0303357Y0018456D01*
X0303504Y0018520D01*
X0303653Y0018581D01*
X0303803Y0018638D01*
X0303954Y0018690D01*
X0304106Y0018740D01*
X0304260Y0018785D01*
X0304415Y0018826D01*
X0304570Y0018864D01*
X0304727Y0018898D01*
X0304884Y0018927D01*
X0305042Y0018953D01*
X0305201Y0018975D01*
X0305360Y0018993D01*
X0305520Y0019007D01*
X0305680Y0019017D01*
X0305840Y0019023D01*
X0306000Y0019025D01*
X0306160Y0019023D01*
X0306320Y0019017D01*
X0306480Y0019007D01*
X0306640Y0018993D01*
X0306799Y0018975D01*
X0306958Y0018953D01*
X0307116Y0018927D01*
X0307273Y0018898D01*
X0307430Y0018864D01*
X0307585Y0018826D01*
X0307740Y0018785D01*
X0307894Y0018740D01*
X0308046Y0018690D01*
X0308197Y0018638D01*
X0308347Y0018581D01*
X0308496Y0018520D01*
X0308643Y0018456D01*
X0308788Y0018389D01*
X0308931Y0018317D01*
X0309073Y0018243D01*
X0309213Y0018164D01*
X0309350Y0018082D01*
X0309486Y0017997D01*
X0309619Y0017909D01*
X0309751Y0017817D01*
X0309879Y0017722D01*
X0310006Y0017623D01*
X0310130Y0017522D01*
X0310251Y0017417D01*
X0310370Y0017310D01*
X0310486Y0017199D01*
X0310599Y0017086D01*
X0310710Y0016970D01*
X0310817Y0016851D01*
X0310922Y0016730D01*
X0311023Y0016606D01*
X0311122Y0016479D01*
X0311217Y0016351D01*
X0311309Y0016219D01*
X0311397Y0016086D01*
X0311482Y0015950D01*
X0311564Y0015812D01*
X0311643Y0015673D01*
X0311717Y0015531D01*
X0311789Y0015388D01*
X0311856Y0015243D01*
X0311920Y0015096D01*
X0311981Y0014947D01*
X0312038Y0014797D01*
X0312090Y0014646D01*
X0312140Y0014494D01*
X0312185Y0014340D01*
X0312226Y0014185D01*
X0312264Y0014030D01*
X0312298Y0013873D01*
X0312327Y0013716D01*
X0312353Y0013558D01*
X0312375Y0013399D01*
X0312393Y0013240D01*
X0312407Y0013080D01*
X0312417Y0012920D01*
X0312423Y0012760D01*
X0312425Y0012600D01*
X0312423Y0012440D01*
X0312417Y0012280D01*
X0312407Y0012120D01*
X0312393Y0011960D01*
X0312375Y0011801D01*
X0312353Y0011642D01*
X0312327Y0011484D01*
X0312298Y0011327D01*
X0312264Y0011170D01*
X0312226Y0011015D01*
X0312185Y0010860D01*
X0312140Y0010706D01*
X0312090Y0010554D01*
X0312038Y0010403D01*
X0311981Y0010253D01*
X0311920Y0010104D01*
X0311856Y0009957D01*
X0311789Y0009812D01*
X0311717Y0009669D01*
X0311643Y0009527D01*
X0311564Y0009387D01*
X0311482Y0009250D01*
X0311397Y0009114D01*
X0311309Y0008981D01*
X0311217Y0008849D01*
X0311122Y0008721D01*
X0311023Y0008594D01*
X0310922Y0008470D01*
X0310817Y0008349D01*
X0310710Y0008230D01*
X0310599Y0008114D01*
X0310486Y0008001D01*
X0310370Y0007890D01*
X0310251Y0007783D01*
X0310130Y0007678D01*
X0310006Y0007577D01*
X0309879Y0007478D01*
X0309751Y0007383D01*
X0309619Y0007291D01*
X0309486Y0007203D01*
X0309350Y0007118D01*
X0309212Y0007036D01*
X0309073Y0006957D01*
X0308931Y0006883D01*
X0308788Y0006811D01*
X0308643Y0006744D01*
X0308496Y0006680D01*
X0308347Y0006619D01*
X0308197Y0006562D01*
X0308046Y0006510D01*
X0307894Y0006460D01*
X0307740Y0006415D01*
X0307585Y0006374D01*
X0307430Y0006336D01*
X0307273Y0006302D01*
X0307116Y0006273D01*
X0306958Y0006247D01*
X0306799Y0006225D01*
X0306640Y0006207D01*
X0306480Y0006193D01*
X0306320Y0006183D01*
X0306160Y0006177D01*
X0306000Y0006175D01*
X0305840Y0006177D01*
X0305680Y0006183D01*
X0305520Y0006193D01*
X0305360Y0006207D01*
X0305201Y0006225D01*
X0305042Y0006247D01*
X0304884Y0006273D01*
X0304727Y0006302D01*
X0304570Y0006336D01*
X0304415Y0006374D01*
X0304260Y0006415D01*
X0304106Y0006460D01*
X0303954Y0006510D01*
X0303803Y0006562D01*
X0303653Y0006619D01*
X0303504Y0006680D01*
X0303357Y0006744D01*
X0303212Y0006811D01*
X0303069Y0006883D01*
X0302927Y0006957D01*
X0302787Y0007036D01*
X0302650Y0007118D01*
X0302514Y0007203D01*
X0302381Y0007291D01*
X0302249Y0007383D01*
X0302121Y0007478D01*
X0301994Y0007577D01*
X0301870Y0007678D01*
X0301749Y0007783D01*
X0301630Y0007890D01*
X0301514Y0008001D01*
X0301401Y0008114D01*
X0301290Y0008230D01*
X0301183Y0008349D01*
X0301078Y0008470D01*
X0300977Y0008594D01*
X0300878Y0008721D01*
X0300783Y0008849D01*
X0300691Y0008981D01*
X0300603Y0009114D01*
X0300518Y0009250D01*
X0300436Y0009388D01*
X0300357Y0009527D01*
X0300283Y0009669D01*
X0300211Y0009812D01*
X0300144Y0009957D01*
X0300080Y0010104D01*
X0300019Y0010253D01*
X0299962Y0010403D01*
X0299910Y0010554D01*
X0299860Y0010706D01*
X0299815Y0010860D01*
X0299774Y0011015D01*
X0299736Y0011170D01*
X0299702Y0011327D01*
X0299673Y0011484D01*
X0299647Y0011642D01*
X0299625Y0011801D01*
X0299607Y0011960D01*
X0299593Y0012120D01*
X0299583Y0012280D01*
X0299577Y0012440D01*
X0299575Y0012600D01*
M02*
