G75*
%MOIN*%
%OFA0B0*%
%FSLAX25Y25*%
%IPPOS*%
%LPD*%
%AMOC8*
5,1,8,0,0,1.08239X$1,22.5*
%
%ADD10C,0.00000*%
D10*
X0043087Y0005500D02*
X0043087Y0145500D01*
X0153087Y0145500D01*
X0153087Y0005500D01*
X0043087Y0005500D01*
X0077851Y0038768D02*
X0077853Y0038869D01*
X0077859Y0038970D01*
X0077869Y0039071D01*
X0077883Y0039171D01*
X0077901Y0039270D01*
X0077923Y0039369D01*
X0077948Y0039467D01*
X0077978Y0039564D01*
X0078011Y0039659D01*
X0078048Y0039753D01*
X0078089Y0039846D01*
X0078133Y0039937D01*
X0078181Y0040026D01*
X0078233Y0040113D01*
X0078288Y0040198D01*
X0078346Y0040280D01*
X0078407Y0040361D01*
X0078472Y0040439D01*
X0078539Y0040514D01*
X0078609Y0040586D01*
X0078683Y0040656D01*
X0078759Y0040723D01*
X0078837Y0040787D01*
X0078918Y0040847D01*
X0079001Y0040904D01*
X0079087Y0040958D01*
X0079175Y0041009D01*
X0079264Y0041056D01*
X0079355Y0041100D01*
X0079448Y0041139D01*
X0079543Y0041176D01*
X0079638Y0041208D01*
X0079735Y0041237D01*
X0079834Y0041261D01*
X0079932Y0041282D01*
X0080032Y0041299D01*
X0080132Y0041312D01*
X0080233Y0041321D01*
X0080334Y0041326D01*
X0080435Y0041327D01*
X0080536Y0041324D01*
X0080637Y0041317D01*
X0080738Y0041306D01*
X0080838Y0041291D01*
X0080937Y0041272D01*
X0081036Y0041249D01*
X0081133Y0041223D01*
X0081230Y0041192D01*
X0081325Y0041158D01*
X0081418Y0041120D01*
X0081511Y0041078D01*
X0081601Y0041033D01*
X0081690Y0040984D01*
X0081776Y0040932D01*
X0081860Y0040876D01*
X0081943Y0040817D01*
X0082022Y0040755D01*
X0082100Y0040690D01*
X0082174Y0040622D01*
X0082246Y0040550D01*
X0082315Y0040477D01*
X0082381Y0040400D01*
X0082444Y0040321D01*
X0082504Y0040239D01*
X0082560Y0040155D01*
X0082613Y0040069D01*
X0082663Y0039981D01*
X0082709Y0039891D01*
X0082752Y0039800D01*
X0082791Y0039706D01*
X0082826Y0039611D01*
X0082857Y0039515D01*
X0082885Y0039418D01*
X0082909Y0039320D01*
X0082929Y0039221D01*
X0082945Y0039121D01*
X0082957Y0039020D01*
X0082965Y0038920D01*
X0082969Y0038819D01*
X0082969Y0038717D01*
X0082965Y0038616D01*
X0082957Y0038516D01*
X0082945Y0038415D01*
X0082929Y0038315D01*
X0082909Y0038216D01*
X0082885Y0038118D01*
X0082857Y0038021D01*
X0082826Y0037925D01*
X0082791Y0037830D01*
X0082752Y0037736D01*
X0082709Y0037645D01*
X0082663Y0037555D01*
X0082613Y0037467D01*
X0082560Y0037381D01*
X0082504Y0037297D01*
X0082444Y0037215D01*
X0082381Y0037136D01*
X0082315Y0037059D01*
X0082246Y0036986D01*
X0082174Y0036914D01*
X0082100Y0036846D01*
X0082022Y0036781D01*
X0081943Y0036719D01*
X0081860Y0036660D01*
X0081776Y0036604D01*
X0081689Y0036552D01*
X0081601Y0036503D01*
X0081511Y0036458D01*
X0081418Y0036416D01*
X0081325Y0036378D01*
X0081230Y0036344D01*
X0081133Y0036313D01*
X0081036Y0036287D01*
X0080937Y0036264D01*
X0080838Y0036245D01*
X0080738Y0036230D01*
X0080637Y0036219D01*
X0080536Y0036212D01*
X0080435Y0036209D01*
X0080334Y0036210D01*
X0080233Y0036215D01*
X0080132Y0036224D01*
X0080032Y0036237D01*
X0079932Y0036254D01*
X0079834Y0036275D01*
X0079735Y0036299D01*
X0079638Y0036328D01*
X0079543Y0036360D01*
X0079448Y0036397D01*
X0079355Y0036436D01*
X0079264Y0036480D01*
X0079175Y0036527D01*
X0079087Y0036578D01*
X0079001Y0036632D01*
X0078918Y0036689D01*
X0078837Y0036749D01*
X0078759Y0036813D01*
X0078683Y0036880D01*
X0078609Y0036950D01*
X0078539Y0037022D01*
X0078472Y0037097D01*
X0078407Y0037175D01*
X0078346Y0037256D01*
X0078288Y0037338D01*
X0078233Y0037423D01*
X0078181Y0037510D01*
X0078133Y0037599D01*
X0078089Y0037690D01*
X0078048Y0037783D01*
X0078011Y0037877D01*
X0077978Y0037972D01*
X0077948Y0038069D01*
X0077923Y0038167D01*
X0077901Y0038266D01*
X0077883Y0038365D01*
X0077869Y0038465D01*
X0077859Y0038566D01*
X0077853Y0038667D01*
X0077851Y0038768D01*
X0077851Y0110028D02*
X0077853Y0110129D01*
X0077859Y0110230D01*
X0077869Y0110331D01*
X0077883Y0110431D01*
X0077901Y0110530D01*
X0077923Y0110629D01*
X0077948Y0110727D01*
X0077978Y0110824D01*
X0078011Y0110919D01*
X0078048Y0111013D01*
X0078089Y0111106D01*
X0078133Y0111197D01*
X0078181Y0111286D01*
X0078233Y0111373D01*
X0078288Y0111458D01*
X0078346Y0111540D01*
X0078407Y0111621D01*
X0078472Y0111699D01*
X0078539Y0111774D01*
X0078609Y0111846D01*
X0078683Y0111916D01*
X0078759Y0111983D01*
X0078837Y0112047D01*
X0078918Y0112107D01*
X0079001Y0112164D01*
X0079087Y0112218D01*
X0079175Y0112269D01*
X0079264Y0112316D01*
X0079355Y0112360D01*
X0079448Y0112399D01*
X0079543Y0112436D01*
X0079638Y0112468D01*
X0079735Y0112497D01*
X0079834Y0112521D01*
X0079932Y0112542D01*
X0080032Y0112559D01*
X0080132Y0112572D01*
X0080233Y0112581D01*
X0080334Y0112586D01*
X0080435Y0112587D01*
X0080536Y0112584D01*
X0080637Y0112577D01*
X0080738Y0112566D01*
X0080838Y0112551D01*
X0080937Y0112532D01*
X0081036Y0112509D01*
X0081133Y0112483D01*
X0081230Y0112452D01*
X0081325Y0112418D01*
X0081418Y0112380D01*
X0081511Y0112338D01*
X0081601Y0112293D01*
X0081690Y0112244D01*
X0081776Y0112192D01*
X0081860Y0112136D01*
X0081943Y0112077D01*
X0082022Y0112015D01*
X0082100Y0111950D01*
X0082174Y0111882D01*
X0082246Y0111810D01*
X0082315Y0111737D01*
X0082381Y0111660D01*
X0082444Y0111581D01*
X0082504Y0111499D01*
X0082560Y0111415D01*
X0082613Y0111329D01*
X0082663Y0111241D01*
X0082709Y0111151D01*
X0082752Y0111060D01*
X0082791Y0110966D01*
X0082826Y0110871D01*
X0082857Y0110775D01*
X0082885Y0110678D01*
X0082909Y0110580D01*
X0082929Y0110481D01*
X0082945Y0110381D01*
X0082957Y0110280D01*
X0082965Y0110180D01*
X0082969Y0110079D01*
X0082969Y0109977D01*
X0082965Y0109876D01*
X0082957Y0109776D01*
X0082945Y0109675D01*
X0082929Y0109575D01*
X0082909Y0109476D01*
X0082885Y0109378D01*
X0082857Y0109281D01*
X0082826Y0109185D01*
X0082791Y0109090D01*
X0082752Y0108996D01*
X0082709Y0108905D01*
X0082663Y0108815D01*
X0082613Y0108727D01*
X0082560Y0108641D01*
X0082504Y0108557D01*
X0082444Y0108475D01*
X0082381Y0108396D01*
X0082315Y0108319D01*
X0082246Y0108246D01*
X0082174Y0108174D01*
X0082100Y0108106D01*
X0082022Y0108041D01*
X0081943Y0107979D01*
X0081860Y0107920D01*
X0081776Y0107864D01*
X0081689Y0107812D01*
X0081601Y0107763D01*
X0081511Y0107718D01*
X0081418Y0107676D01*
X0081325Y0107638D01*
X0081230Y0107604D01*
X0081133Y0107573D01*
X0081036Y0107547D01*
X0080937Y0107524D01*
X0080838Y0107505D01*
X0080738Y0107490D01*
X0080637Y0107479D01*
X0080536Y0107472D01*
X0080435Y0107469D01*
X0080334Y0107470D01*
X0080233Y0107475D01*
X0080132Y0107484D01*
X0080032Y0107497D01*
X0079932Y0107514D01*
X0079834Y0107535D01*
X0079735Y0107559D01*
X0079638Y0107588D01*
X0079543Y0107620D01*
X0079448Y0107657D01*
X0079355Y0107696D01*
X0079264Y0107740D01*
X0079175Y0107787D01*
X0079087Y0107838D01*
X0079001Y0107892D01*
X0078918Y0107949D01*
X0078837Y0108009D01*
X0078759Y0108073D01*
X0078683Y0108140D01*
X0078609Y0108210D01*
X0078539Y0108282D01*
X0078472Y0108357D01*
X0078407Y0108435D01*
X0078346Y0108516D01*
X0078288Y0108598D01*
X0078233Y0108683D01*
X0078181Y0108770D01*
X0078133Y0108859D01*
X0078089Y0108950D01*
X0078048Y0109043D01*
X0078011Y0109137D01*
X0077978Y0109232D01*
X0077948Y0109329D01*
X0077923Y0109427D01*
X0077901Y0109526D01*
X0077883Y0109625D01*
X0077869Y0109725D01*
X0077859Y0109826D01*
X0077853Y0109927D01*
X0077851Y0110028D01*
M02*
