G75*
%MOIN*%
%OFA0B0*%
%FSLAX25Y25*%
%IPPOS*%
%LPD*%
%AMOC8*
5,1,8,0,0,1.08239X$1,22.5*
%
%ADD10R,0.05906X0.02756*%
%ADD11R,0.13386X0.05118*%
%ADD12C,0.04356*%
%ADD13C,0.01200*%
%ADD14C,0.03962*%
%ADD15C,0.01600*%
D10*
X0071552Y0046839D03*
X0071552Y0050776D03*
X0071552Y0054713D03*
X0071552Y0058650D03*
X0071552Y0062587D03*
X0071552Y0066524D03*
X0071552Y0070461D03*
X0071552Y0074398D03*
X0071552Y0078335D03*
X0071552Y0082272D03*
X0071552Y0086209D03*
X0071552Y0090146D03*
X0071552Y0094083D03*
X0071552Y0098020D03*
X0071552Y0101957D03*
X0089268Y0103925D03*
X0089268Y0099988D03*
X0089268Y0096051D03*
X0089268Y0092114D03*
X0089268Y0088177D03*
X0089268Y0084240D03*
X0089268Y0080303D03*
X0089268Y0076366D03*
X0089268Y0072429D03*
X0089268Y0068492D03*
X0089268Y0064555D03*
X0089268Y0060618D03*
X0089268Y0056681D03*
X0089268Y0052744D03*
X0089268Y0048807D03*
X0089268Y0044870D03*
D11*
X0080410Y0033453D03*
X0080410Y0115343D03*
D12*
X0076837Y0135500D03*
X0084337Y0135500D03*
X0060587Y0135500D03*
X0053087Y0135500D03*
X0128087Y0126750D03*
X0128087Y0119250D03*
X0128087Y0111750D03*
X0128087Y0104250D03*
X0128087Y0096750D03*
X0128087Y0089250D03*
X0128087Y0081750D03*
X0128087Y0074250D03*
X0128087Y0066750D03*
X0128087Y0059250D03*
X0128087Y0051750D03*
X0128087Y0044250D03*
X0128087Y0036750D03*
X0128087Y0029250D03*
X0128087Y0021750D03*
X0128087Y0014250D03*
X0143087Y0018000D03*
X0143087Y0025500D03*
X0143087Y0033000D03*
X0143087Y0040500D03*
X0143087Y0048000D03*
X0143087Y0055500D03*
X0143087Y0063000D03*
X0143087Y0070500D03*
X0143087Y0078000D03*
X0143087Y0085500D03*
X0143087Y0093000D03*
X0143087Y0100500D03*
X0143087Y0108000D03*
X0143087Y0115500D03*
X0143087Y0123000D03*
X0143087Y0130500D03*
X0084337Y0015500D03*
X0076837Y0015500D03*
X0060587Y0015500D03*
X0053087Y0015500D03*
D13*
X0061709Y0046839D02*
X0071552Y0046839D01*
X0071552Y0050776D02*
X0056335Y0050776D01*
X0061709Y0054713D02*
X0071552Y0054713D01*
X0071552Y0058650D02*
X0056335Y0058650D01*
X0061709Y0062587D02*
X0071552Y0062587D01*
X0071552Y0066524D02*
X0056335Y0066524D01*
X0061709Y0070461D02*
X0071552Y0070461D01*
X0071552Y0074398D02*
X0056335Y0074398D01*
X0061709Y0078335D02*
X0071552Y0078335D01*
X0071552Y0082272D02*
X0056335Y0082272D01*
X0061709Y0086209D02*
X0071552Y0086209D01*
X0071552Y0090146D02*
X0056335Y0090146D01*
X0061709Y0094083D02*
X0071552Y0094083D01*
X0071552Y0098020D02*
X0056837Y0098000D01*
X0061709Y0101957D02*
X0071552Y0101957D01*
X0089268Y0103925D02*
X0096512Y0103925D01*
X0123087Y0130500D01*
X0143087Y0130500D01*
X0143087Y0123000D02*
X0123087Y0123000D01*
X0100075Y0099988D01*
X0089268Y0099988D01*
X0089268Y0096051D02*
X0103638Y0096051D01*
X0123087Y0115500D01*
X0143087Y0115500D01*
X0143087Y0108000D02*
X0123087Y0108000D01*
X0107201Y0092114D01*
X0089268Y0092114D01*
X0089268Y0088177D02*
X0110764Y0088177D01*
X0123087Y0100500D01*
X0143087Y0100500D01*
X0143087Y0093000D02*
X0123087Y0093000D01*
X0114327Y0084240D01*
X0089268Y0084240D01*
X0089268Y0080303D02*
X0117890Y0080303D01*
X0123087Y0085500D01*
X0143087Y0085500D01*
X0143087Y0078000D02*
X0123087Y0078000D01*
X0121453Y0076366D01*
X0089268Y0076366D01*
X0089268Y0072429D02*
X0121158Y0072429D01*
X0123087Y0070500D01*
X0143087Y0070500D01*
X0143087Y0063000D02*
X0123087Y0063000D01*
X0117595Y0068492D01*
X0089268Y0068492D01*
X0089268Y0064555D02*
X0114032Y0064555D01*
X0123087Y0055500D01*
X0143087Y0055500D01*
X0143087Y0048000D02*
X0123087Y0048000D01*
X0110469Y0060618D01*
X0089268Y0060618D01*
X0089268Y0056681D02*
X0106906Y0056681D01*
X0123087Y0040500D01*
X0143087Y0040500D01*
X0143087Y0033000D02*
X0123087Y0033000D01*
X0103343Y0052744D01*
X0089268Y0052744D01*
X0089268Y0048807D02*
X0099780Y0048807D01*
X0123087Y0025500D01*
X0143087Y0025500D01*
X0143087Y0018000D02*
X0123087Y0018000D01*
X0096217Y0044870D01*
X0089268Y0044870D01*
D14*
X0061709Y0046839D03*
X0056335Y0050776D03*
X0061709Y0054713D03*
X0056335Y0058650D03*
X0061709Y0062587D03*
X0056335Y0066524D03*
X0061709Y0070461D03*
X0056335Y0074398D03*
X0061709Y0078335D03*
X0056335Y0082272D03*
X0061709Y0086209D03*
X0056335Y0090146D03*
X0061709Y0094083D03*
X0056837Y0098000D03*
X0061709Y0101957D03*
D15*
X0045887Y0142700D02*
X0045887Y0008300D01*
X0065587Y0008300D01*
X0065587Y0044839D01*
X0064491Y0044839D01*
X0063624Y0043972D01*
X0062382Y0043457D01*
X0061037Y0043457D01*
X0059794Y0043972D01*
X0058843Y0044923D01*
X0058328Y0046166D01*
X0058328Y0047511D01*
X0058664Y0048323D01*
X0058250Y0047909D01*
X0057008Y0047394D01*
X0055663Y0047394D01*
X0054420Y0047909D01*
X0053469Y0048860D01*
X0052954Y0050103D01*
X0052954Y0051448D01*
X0053469Y0052691D01*
X0054420Y0053642D01*
X0055663Y0054157D01*
X0057008Y0054157D01*
X0058250Y0053642D01*
X0058664Y0053228D01*
X0058328Y0054040D01*
X0058328Y0055385D01*
X0058664Y0056197D01*
X0058250Y0055783D01*
X0057008Y0055269D01*
X0055663Y0055269D01*
X0054420Y0055783D01*
X0053469Y0056734D01*
X0052954Y0057977D01*
X0052954Y0059322D01*
X0053469Y0060565D01*
X0054420Y0061516D01*
X0055663Y0062031D01*
X0057008Y0062031D01*
X0058250Y0061516D01*
X0058664Y0061102D01*
X0058328Y0061914D01*
X0058328Y0063259D01*
X0058664Y0064071D01*
X0058250Y0063657D01*
X0057008Y0063143D01*
X0055663Y0063143D01*
X0054420Y0063657D01*
X0053469Y0064608D01*
X0052954Y0065851D01*
X0052954Y0067196D01*
X0053469Y0068439D01*
X0054420Y0069390D01*
X0055663Y0069905D01*
X0057008Y0069905D01*
X0058250Y0069390D01*
X0058664Y0068976D01*
X0058328Y0069788D01*
X0058328Y0071133D01*
X0058664Y0071945D01*
X0058250Y0071531D01*
X0057008Y0071017D01*
X0055663Y0071017D01*
X0054420Y0071531D01*
X0053469Y0072482D01*
X0052954Y0073725D01*
X0052954Y0075070D01*
X0053469Y0076313D01*
X0054420Y0077264D01*
X0055663Y0077779D01*
X0057008Y0077779D01*
X0058250Y0077264D01*
X0058664Y0076850D01*
X0058328Y0077662D01*
X0058328Y0079007D01*
X0058664Y0079819D01*
X0058250Y0079405D01*
X0057008Y0078891D01*
X0055663Y0078891D01*
X0054420Y0079405D01*
X0053469Y0080356D01*
X0052954Y0081599D01*
X0052954Y0082944D01*
X0053469Y0084187D01*
X0054420Y0085138D01*
X0055663Y0085653D01*
X0057008Y0085653D01*
X0058250Y0085138D01*
X0058664Y0084724D01*
X0058328Y0085536D01*
X0058328Y0086881D01*
X0058664Y0087693D01*
X0058250Y0087279D01*
X0057008Y0086765D01*
X0055663Y0086765D01*
X0054420Y0087279D01*
X0053469Y0088230D01*
X0052954Y0089473D01*
X0052954Y0090818D01*
X0053469Y0092061D01*
X0054420Y0093012D01*
X0055663Y0093527D01*
X0057008Y0093527D01*
X0058250Y0093012D01*
X0058664Y0092598D01*
X0058328Y0093410D01*
X0058328Y0094755D01*
X0058429Y0095000D01*
X0057510Y0094619D01*
X0056165Y0094619D01*
X0054922Y0095134D01*
X0053971Y0096085D01*
X0053456Y0097327D01*
X0053456Y0098673D01*
X0053971Y0099915D01*
X0054922Y0100866D01*
X0056165Y0101381D01*
X0057510Y0101381D01*
X0058449Y0100992D01*
X0058328Y0101284D01*
X0058328Y0102629D01*
X0058843Y0103872D01*
X0059794Y0104823D01*
X0061037Y0105338D01*
X0062382Y0105338D01*
X0063624Y0104823D01*
X0064491Y0103957D01*
X0065587Y0103957D01*
X0065587Y0142700D01*
X0045887Y0142700D01*
X0045887Y0141373D02*
X0065587Y0141373D01*
X0065587Y0139775D02*
X0045887Y0139775D01*
X0045887Y0138176D02*
X0050138Y0138176D01*
X0049997Y0138036D02*
X0049562Y0137384D01*
X0049262Y0136660D01*
X0049109Y0135892D01*
X0049109Y0135500D01*
X0053087Y0135500D01*
X0053087Y0135500D01*
X0049109Y0135500D01*
X0049109Y0135108D01*
X0049262Y0134340D01*
X0049562Y0133616D01*
X0049997Y0132964D01*
X0050551Y0132410D01*
X0051203Y0131975D01*
X0051927Y0131675D01*
X0052695Y0131522D01*
X0053087Y0131522D01*
X0053087Y0135500D01*
X0053087Y0139478D01*
X0052695Y0139478D01*
X0051927Y0139325D01*
X0051203Y0139025D01*
X0050551Y0138590D01*
X0049997Y0138036D01*
X0049246Y0136578D02*
X0045887Y0136578D01*
X0045887Y0134979D02*
X0049135Y0134979D01*
X0049719Y0133381D02*
X0045887Y0133381D01*
X0045887Y0131782D02*
X0051667Y0131782D01*
X0053087Y0131782D02*
X0053087Y0131782D01*
X0053087Y0131522D02*
X0053479Y0131522D01*
X0054247Y0131675D01*
X0054971Y0131975D01*
X0055623Y0132410D01*
X0056177Y0132964D01*
X0056612Y0133616D01*
X0056837Y0134158D01*
X0057062Y0133616D01*
X0057497Y0132964D01*
X0058051Y0132410D01*
X0058703Y0131975D01*
X0059427Y0131675D01*
X0060195Y0131522D01*
X0060587Y0131522D01*
X0060587Y0135500D01*
X0060587Y0135500D01*
X0053087Y0135500D01*
X0053087Y0135500D01*
X0053087Y0135500D01*
X0053087Y0139478D01*
X0053479Y0139478D01*
X0054247Y0139325D01*
X0054971Y0139025D01*
X0055623Y0138590D01*
X0056177Y0138036D01*
X0056612Y0137384D01*
X0056837Y0136842D01*
X0057062Y0137384D01*
X0057497Y0138036D01*
X0058051Y0138590D01*
X0058703Y0139025D01*
X0059427Y0139325D01*
X0060195Y0139478D01*
X0060587Y0139478D01*
X0060587Y0135500D01*
X0056609Y0135500D01*
X0053087Y0135500D01*
X0053087Y0131522D01*
X0054507Y0131782D02*
X0059167Y0131782D01*
X0060587Y0131782D02*
X0060587Y0131782D01*
X0060587Y0131522D02*
X0060979Y0131522D01*
X0061747Y0131675D01*
X0062471Y0131975D01*
X0063123Y0132410D01*
X0063677Y0132964D01*
X0064112Y0133616D01*
X0064412Y0134340D01*
X0064565Y0135108D01*
X0064565Y0135500D01*
X0064565Y0135892D01*
X0064412Y0136660D01*
X0064112Y0137384D01*
X0063677Y0138036D01*
X0063123Y0138590D01*
X0062471Y0139025D01*
X0061747Y0139325D01*
X0060979Y0139478D01*
X0060587Y0139478D01*
X0060587Y0135500D01*
X0060587Y0135500D01*
X0060587Y0135500D01*
X0060587Y0131522D01*
X0062007Y0131782D02*
X0065587Y0131782D01*
X0065587Y0130184D02*
X0045887Y0130184D01*
X0045887Y0128585D02*
X0065587Y0128585D01*
X0065587Y0126987D02*
X0045887Y0126987D01*
X0045887Y0125388D02*
X0065587Y0125388D01*
X0065587Y0123790D02*
X0045887Y0123790D01*
X0045887Y0122191D02*
X0065587Y0122191D01*
X0065587Y0120593D02*
X0045887Y0120593D01*
X0045887Y0118994D02*
X0065587Y0118994D01*
X0065587Y0117396D02*
X0045887Y0117396D01*
X0045887Y0115797D02*
X0065587Y0115797D01*
X0065587Y0114199D02*
X0045887Y0114199D01*
X0045887Y0112600D02*
X0065587Y0112600D01*
X0065587Y0111002D02*
X0045887Y0111002D01*
X0045887Y0109403D02*
X0065587Y0109403D01*
X0065587Y0107805D02*
X0045887Y0107805D01*
X0045887Y0106206D02*
X0065587Y0106206D01*
X0065587Y0104608D02*
X0063840Y0104608D01*
X0059579Y0104608D02*
X0045887Y0104608D01*
X0045887Y0103009D02*
X0058485Y0103009D01*
X0058328Y0101411D02*
X0045887Y0101411D01*
X0045887Y0099812D02*
X0053928Y0099812D01*
X0053456Y0098214D02*
X0045887Y0098214D01*
X0045887Y0096615D02*
X0053751Y0096615D01*
X0055204Y0095017D02*
X0045887Y0095017D01*
X0045887Y0093418D02*
X0055400Y0093418D01*
X0053369Y0091820D02*
X0045887Y0091820D01*
X0045887Y0090221D02*
X0052954Y0090221D01*
X0053306Y0088623D02*
X0045887Y0088623D01*
X0045887Y0087024D02*
X0055036Y0087024D01*
X0055114Y0085426D02*
X0045887Y0085426D01*
X0045887Y0083827D02*
X0053320Y0083827D01*
X0052954Y0082229D02*
X0045887Y0082229D01*
X0045887Y0080630D02*
X0053355Y0080630D01*
X0055322Y0079032D02*
X0045887Y0079032D01*
X0045887Y0077433D02*
X0054828Y0077433D01*
X0053271Y0075834D02*
X0045887Y0075834D01*
X0045887Y0074236D02*
X0052954Y0074236D01*
X0053405Y0072637D02*
X0045887Y0072637D01*
X0045887Y0071039D02*
X0055608Y0071039D01*
X0057062Y0071039D02*
X0058328Y0071039D01*
X0058472Y0069440D02*
X0058128Y0069440D01*
X0054542Y0069440D02*
X0045887Y0069440D01*
X0045887Y0067842D02*
X0053222Y0067842D01*
X0052954Y0066243D02*
X0045887Y0066243D01*
X0045887Y0064645D02*
X0053454Y0064645D01*
X0054352Y0061448D02*
X0045887Y0061448D01*
X0045887Y0063046D02*
X0058328Y0063046D01*
X0058318Y0061448D02*
X0058521Y0061448D01*
X0053172Y0059849D02*
X0045887Y0059849D01*
X0045887Y0058251D02*
X0052954Y0058251D01*
X0053551Y0056652D02*
X0045887Y0056652D01*
X0045887Y0055054D02*
X0058328Y0055054D01*
X0058437Y0053455D02*
X0058570Y0053455D01*
X0054233Y0053455D02*
X0045887Y0053455D01*
X0045887Y0051857D02*
X0053123Y0051857D01*
X0052954Y0050258D02*
X0045887Y0050258D01*
X0045887Y0048660D02*
X0053669Y0048660D01*
X0058328Y0047061D02*
X0045887Y0047061D01*
X0045887Y0045463D02*
X0058619Y0045463D01*
X0060055Y0043864D02*
X0045887Y0043864D01*
X0045887Y0042266D02*
X0065587Y0042266D01*
X0065587Y0043864D02*
X0063364Y0043864D01*
X0065587Y0040667D02*
X0045887Y0040667D01*
X0045887Y0039069D02*
X0065587Y0039069D01*
X0065587Y0037470D02*
X0045887Y0037470D01*
X0045887Y0035872D02*
X0065587Y0035872D01*
X0065587Y0034273D02*
X0045887Y0034273D01*
X0045887Y0032675D02*
X0065587Y0032675D01*
X0065587Y0031076D02*
X0045887Y0031076D01*
X0045887Y0029478D02*
X0065587Y0029478D01*
X0065587Y0027879D02*
X0045887Y0027879D01*
X0045887Y0026281D02*
X0065587Y0026281D01*
X0065587Y0024682D02*
X0045887Y0024682D01*
X0045887Y0023084D02*
X0065587Y0023084D01*
X0065587Y0021485D02*
X0045887Y0021485D01*
X0045887Y0019887D02*
X0065587Y0019887D01*
X0065587Y0018288D02*
X0063425Y0018288D01*
X0063677Y0018036D02*
X0063123Y0018590D01*
X0062471Y0019025D01*
X0061747Y0019325D01*
X0060979Y0019478D01*
X0060587Y0019478D01*
X0060195Y0019478D01*
X0059427Y0019325D01*
X0058703Y0019025D01*
X0058051Y0018590D01*
X0057497Y0018036D01*
X0057062Y0017384D01*
X0056837Y0016842D01*
X0056612Y0017384D01*
X0056177Y0018036D01*
X0055623Y0018590D01*
X0054971Y0019025D01*
X0054247Y0019325D01*
X0053479Y0019478D01*
X0053087Y0019478D01*
X0052695Y0019478D01*
X0051927Y0019325D01*
X0051203Y0019025D01*
X0050551Y0018590D01*
X0049997Y0018036D01*
X0049562Y0017384D01*
X0049262Y0016660D01*
X0049109Y0015892D01*
X0049109Y0015500D01*
X0053087Y0015500D01*
X0053087Y0015500D01*
X0049109Y0015500D01*
X0049109Y0015108D01*
X0049262Y0014340D01*
X0049562Y0013616D01*
X0049997Y0012964D01*
X0050551Y0012410D01*
X0051203Y0011975D01*
X0051927Y0011675D01*
X0052695Y0011522D01*
X0053087Y0011522D01*
X0053087Y0015500D01*
X0053087Y0019478D01*
X0053087Y0015500D01*
X0053087Y0015500D01*
X0053087Y0015500D01*
X0053087Y0011522D01*
X0053479Y0011522D01*
X0054247Y0011675D01*
X0054971Y0011975D01*
X0055623Y0012410D01*
X0056177Y0012964D01*
X0056612Y0013616D01*
X0056837Y0014158D01*
X0057062Y0013616D01*
X0057497Y0012964D01*
X0058051Y0012410D01*
X0058703Y0011975D01*
X0059427Y0011675D01*
X0060195Y0011522D01*
X0060587Y0011522D01*
X0060587Y0015500D01*
X0060587Y0015500D01*
X0057065Y0015500D01*
X0053087Y0015500D01*
X0053087Y0015500D01*
X0060587Y0015500D01*
X0060587Y0019478D01*
X0060587Y0015500D01*
X0060587Y0015500D01*
X0060587Y0015500D01*
X0060587Y0011522D01*
X0060979Y0011522D01*
X0061747Y0011675D01*
X0062471Y0011975D01*
X0063123Y0012410D01*
X0063677Y0012964D01*
X0064112Y0013616D01*
X0064412Y0014340D01*
X0064565Y0015108D01*
X0064565Y0015500D01*
X0064565Y0015892D01*
X0064412Y0016660D01*
X0064112Y0017384D01*
X0063677Y0018036D01*
X0064400Y0016690D02*
X0065587Y0016690D01*
X0064565Y0015500D02*
X0060587Y0015500D01*
X0060587Y0015500D01*
X0064565Y0015500D01*
X0064562Y0015091D02*
X0065587Y0015091D01*
X0065587Y0013493D02*
X0064030Y0013493D01*
X0065587Y0011894D02*
X0062276Y0011894D01*
X0060587Y0011894D02*
X0060587Y0011894D01*
X0060587Y0013493D02*
X0060587Y0013493D01*
X0060587Y0015091D02*
X0060587Y0015091D01*
X0060587Y0016690D02*
X0060587Y0016690D01*
X0060587Y0018288D02*
X0060587Y0018288D01*
X0057750Y0018288D02*
X0055925Y0018288D01*
X0053087Y0018288D02*
X0053087Y0018288D01*
X0053087Y0016690D02*
X0053087Y0016690D01*
X0053087Y0015091D02*
X0053087Y0015091D01*
X0053087Y0013493D02*
X0053087Y0013493D01*
X0053087Y0011894D02*
X0053087Y0011894D01*
X0051398Y0011894D02*
X0045887Y0011894D01*
X0045887Y0010296D02*
X0065587Y0010296D01*
X0065587Y0008697D02*
X0045887Y0008697D01*
X0045887Y0013493D02*
X0049644Y0013493D01*
X0049113Y0015091D02*
X0045887Y0015091D01*
X0045887Y0016690D02*
X0049274Y0016690D01*
X0050250Y0018288D02*
X0045887Y0018288D01*
X0054776Y0011894D02*
X0058898Y0011894D01*
X0057144Y0013493D02*
X0056530Y0013493D01*
X0071837Y0013493D02*
X0073394Y0013493D01*
X0073312Y0013616D02*
X0073747Y0012964D01*
X0074301Y0012410D01*
X0074953Y0011975D01*
X0075677Y0011675D01*
X0076445Y0011522D01*
X0076837Y0011522D01*
X0076837Y0015500D01*
X0076837Y0015500D01*
X0072859Y0015500D01*
X0072859Y0015892D01*
X0073012Y0016660D01*
X0073312Y0017384D01*
X0073747Y0018036D01*
X0074301Y0018590D01*
X0074953Y0019025D01*
X0075677Y0019325D01*
X0076445Y0019478D01*
X0076837Y0019478D01*
X0076837Y0015500D01*
X0072859Y0015500D01*
X0072859Y0015108D01*
X0073012Y0014340D01*
X0073312Y0013616D01*
X0072863Y0015091D02*
X0071837Y0015091D01*
X0071837Y0016690D02*
X0073024Y0016690D01*
X0074000Y0018288D02*
X0071837Y0018288D01*
X0071837Y0019887D02*
X0089337Y0019887D01*
X0089337Y0021485D02*
X0071837Y0021485D01*
X0071837Y0023084D02*
X0089337Y0023084D01*
X0089337Y0024682D02*
X0071837Y0024682D01*
X0071837Y0026281D02*
X0089337Y0026281D01*
X0089337Y0027879D02*
X0071837Y0027879D01*
X0071837Y0029478D02*
X0072587Y0029478D01*
X0072612Y0029453D02*
X0073022Y0029216D01*
X0073480Y0029094D01*
X0079930Y0029094D01*
X0079930Y0032973D01*
X0071917Y0032973D01*
X0071917Y0030657D01*
X0072040Y0030199D01*
X0072277Y0029788D01*
X0072612Y0029453D01*
X0071917Y0031076D02*
X0071837Y0031076D01*
X0071837Y0032675D02*
X0071917Y0032675D01*
X0071917Y0033932D02*
X0078080Y0033932D01*
X0079344Y0033409D01*
X0079930Y0033409D01*
X0079930Y0032973D01*
X0080889Y0032973D01*
X0080889Y0029094D01*
X0087340Y0029094D01*
X0087798Y0029216D01*
X0088208Y0029453D01*
X0088543Y0029788D01*
X0088780Y0030199D01*
X0088903Y0030657D01*
X0088903Y0032973D01*
X0080890Y0032973D01*
X0080890Y0033409D01*
X0081476Y0033409D01*
X0082740Y0033932D01*
X0088903Y0033932D01*
X0088903Y0036249D01*
X0088780Y0036707D01*
X0088543Y0037117D01*
X0088208Y0037452D01*
X0087798Y0037689D01*
X0087340Y0037812D01*
X0085769Y0037812D01*
X0085769Y0039834D01*
X0085493Y0040500D01*
X0089337Y0040500D01*
X0089337Y0008300D01*
X0071837Y0008300D01*
X0071837Y0040500D01*
X0075327Y0040500D01*
X0075051Y0039834D01*
X0075051Y0037812D01*
X0073480Y0037812D01*
X0073022Y0037689D01*
X0072612Y0037452D01*
X0072277Y0037117D01*
X0072040Y0036707D01*
X0071917Y0036249D01*
X0071917Y0033932D01*
X0071917Y0034273D02*
X0071837Y0034273D01*
X0071837Y0035872D02*
X0071917Y0035872D01*
X0071837Y0037470D02*
X0072643Y0037470D01*
X0071837Y0039069D02*
X0075051Y0039069D01*
X0079930Y0032675D02*
X0080889Y0032675D01*
X0080889Y0031076D02*
X0079930Y0031076D01*
X0079930Y0029478D02*
X0080889Y0029478D01*
X0088232Y0029478D02*
X0089337Y0029478D01*
X0089337Y0031076D02*
X0088903Y0031076D01*
X0088903Y0032675D02*
X0089337Y0032675D01*
X0089337Y0034273D02*
X0088903Y0034273D01*
X0088903Y0035872D02*
X0089337Y0035872D01*
X0089337Y0037470D02*
X0088177Y0037470D01*
X0089337Y0039069D02*
X0085769Y0039069D01*
X0084729Y0019478D02*
X0084337Y0019478D01*
X0083945Y0019478D01*
X0083177Y0019325D01*
X0082453Y0019025D01*
X0081801Y0018590D01*
X0081247Y0018036D01*
X0080812Y0017384D01*
X0080587Y0016842D01*
X0080362Y0017384D01*
X0079927Y0018036D01*
X0079373Y0018590D01*
X0078721Y0019025D01*
X0077997Y0019325D01*
X0077229Y0019478D01*
X0076837Y0019478D01*
X0076837Y0015500D01*
X0076837Y0015500D01*
X0076837Y0015500D01*
X0076837Y0011522D01*
X0077229Y0011522D01*
X0077997Y0011675D01*
X0078721Y0011975D01*
X0079373Y0012410D01*
X0079927Y0012964D01*
X0080362Y0013616D01*
X0080587Y0014158D01*
X0080812Y0013616D01*
X0081247Y0012964D01*
X0081801Y0012410D01*
X0082453Y0011975D01*
X0083177Y0011675D01*
X0083945Y0011522D01*
X0084337Y0011522D01*
X0084337Y0015500D01*
X0084337Y0015500D01*
X0080815Y0015500D01*
X0076837Y0015500D01*
X0076837Y0015500D01*
X0084337Y0015500D01*
X0084337Y0019478D01*
X0084337Y0015500D01*
X0084337Y0015500D01*
X0084337Y0015500D01*
X0084337Y0011522D01*
X0084729Y0011522D01*
X0085497Y0011675D01*
X0086221Y0011975D01*
X0086873Y0012410D01*
X0087427Y0012964D01*
X0087862Y0013616D01*
X0088162Y0014340D01*
X0088315Y0015108D01*
X0088315Y0015500D01*
X0088315Y0015892D01*
X0088162Y0016660D01*
X0087862Y0017384D01*
X0087427Y0018036D01*
X0086873Y0018590D01*
X0086221Y0019025D01*
X0085497Y0019325D01*
X0084729Y0019478D01*
X0084337Y0018288D02*
X0084337Y0018288D01*
X0084337Y0016690D02*
X0084337Y0016690D01*
X0084337Y0015500D02*
X0088315Y0015500D01*
X0084337Y0015500D01*
X0084337Y0015500D01*
X0084337Y0015091D02*
X0084337Y0015091D01*
X0084337Y0013493D02*
X0084337Y0013493D01*
X0084337Y0011894D02*
X0084337Y0011894D01*
X0082648Y0011894D02*
X0078526Y0011894D01*
X0076837Y0011894D02*
X0076837Y0011894D01*
X0076837Y0013493D02*
X0076837Y0013493D01*
X0076837Y0015091D02*
X0076837Y0015091D01*
X0076837Y0016690D02*
X0076837Y0016690D01*
X0076837Y0018288D02*
X0076837Y0018288D01*
X0079675Y0018288D02*
X0081500Y0018288D01*
X0080894Y0013493D02*
X0080280Y0013493D01*
X0075148Y0011894D02*
X0071837Y0011894D01*
X0071837Y0010296D02*
X0089337Y0010296D01*
X0089337Y0011894D02*
X0086026Y0011894D01*
X0087780Y0013493D02*
X0089337Y0013493D01*
X0089337Y0015091D02*
X0088312Y0015091D01*
X0088150Y0016690D02*
X0089337Y0016690D01*
X0089337Y0018288D02*
X0087175Y0018288D01*
X0089337Y0008697D02*
X0071837Y0008697D01*
X0058423Y0077433D02*
X0057842Y0077433D01*
X0057348Y0079032D02*
X0058338Y0079032D01*
X0058374Y0085426D02*
X0057556Y0085426D01*
X0057634Y0087024D02*
X0058387Y0087024D01*
X0058328Y0093418D02*
X0057270Y0093418D01*
X0071837Y0110500D02*
X0071837Y0142700D01*
X0089337Y0142700D01*
X0089337Y0110500D01*
X0085769Y0110500D01*
X0085769Y0110983D01*
X0087340Y0110983D01*
X0087798Y0111106D01*
X0088208Y0111343D01*
X0088543Y0111678D01*
X0088780Y0112089D01*
X0088903Y0112546D01*
X0088903Y0114863D01*
X0082740Y0114863D01*
X0081476Y0115387D01*
X0080890Y0115387D01*
X0080890Y0115822D01*
X0088903Y0115822D01*
X0088903Y0118139D01*
X0088780Y0118596D01*
X0088543Y0119007D01*
X0088208Y0119342D01*
X0087798Y0119579D01*
X0087340Y0119702D01*
X0080889Y0119702D01*
X0080889Y0115822D01*
X0079930Y0115822D01*
X0079930Y0115387D01*
X0079344Y0115387D01*
X0078080Y0114863D01*
X0071917Y0114863D01*
X0071917Y0112546D01*
X0072040Y0112089D01*
X0072277Y0111678D01*
X0072612Y0111343D01*
X0073022Y0111106D01*
X0073480Y0110983D01*
X0075051Y0110983D01*
X0075051Y0110500D01*
X0071837Y0110500D01*
X0071837Y0111002D02*
X0073412Y0111002D01*
X0071917Y0112600D02*
X0071837Y0112600D01*
X0071837Y0114199D02*
X0071917Y0114199D01*
X0071837Y0115797D02*
X0079930Y0115797D01*
X0079930Y0115822D02*
X0071917Y0115822D01*
X0071917Y0118139D01*
X0072040Y0118596D01*
X0072277Y0119007D01*
X0072612Y0119342D01*
X0073022Y0119579D01*
X0073480Y0119702D01*
X0079930Y0119702D01*
X0079930Y0115822D01*
X0080890Y0115797D02*
X0089337Y0115797D01*
X0089337Y0114199D02*
X0088903Y0114199D01*
X0088903Y0112600D02*
X0089337Y0112600D01*
X0089337Y0111002D02*
X0087408Y0111002D01*
X0088903Y0117396D02*
X0089337Y0117396D01*
X0089337Y0118994D02*
X0088550Y0118994D01*
X0089337Y0120593D02*
X0071837Y0120593D01*
X0071837Y0122191D02*
X0089337Y0122191D01*
X0089337Y0123790D02*
X0071837Y0123790D01*
X0071837Y0125388D02*
X0089337Y0125388D01*
X0089337Y0126987D02*
X0071837Y0126987D01*
X0071837Y0128585D02*
X0089337Y0128585D01*
X0089337Y0130184D02*
X0071837Y0130184D01*
X0071837Y0131782D02*
X0075417Y0131782D01*
X0075677Y0131675D02*
X0076445Y0131522D01*
X0076837Y0131522D01*
X0076837Y0135500D01*
X0076837Y0135500D01*
X0072859Y0135500D01*
X0072859Y0135892D01*
X0073012Y0136660D01*
X0073312Y0137384D01*
X0073747Y0138036D01*
X0074301Y0138590D01*
X0074953Y0139025D01*
X0075677Y0139325D01*
X0076445Y0139478D01*
X0076837Y0139478D01*
X0076837Y0135500D01*
X0072859Y0135500D01*
X0072859Y0135108D01*
X0073012Y0134340D01*
X0073312Y0133616D01*
X0073747Y0132964D01*
X0074301Y0132410D01*
X0074953Y0131975D01*
X0075677Y0131675D01*
X0076837Y0131782D02*
X0076837Y0131782D01*
X0076837Y0131522D02*
X0077229Y0131522D01*
X0077997Y0131675D01*
X0078721Y0131975D01*
X0079373Y0132410D01*
X0079927Y0132964D01*
X0080362Y0133616D01*
X0080587Y0134158D01*
X0080812Y0133616D01*
X0081247Y0132964D01*
X0081801Y0132410D01*
X0082453Y0131975D01*
X0083177Y0131675D01*
X0083945Y0131522D01*
X0084337Y0131522D01*
X0084337Y0135500D01*
X0084337Y0135500D01*
X0080815Y0135500D01*
X0076837Y0135500D01*
X0076837Y0135500D01*
X0076837Y0135500D01*
X0076837Y0139478D01*
X0077229Y0139478D01*
X0077997Y0139325D01*
X0078721Y0139025D01*
X0079373Y0138590D01*
X0079927Y0138036D01*
X0080362Y0137384D01*
X0080587Y0136842D01*
X0080812Y0137384D01*
X0081247Y0138036D01*
X0081801Y0138590D01*
X0082453Y0139025D01*
X0083177Y0139325D01*
X0083945Y0139478D01*
X0084337Y0139478D01*
X0084337Y0135500D01*
X0076837Y0135500D01*
X0076837Y0131522D01*
X0078257Y0131782D02*
X0082917Y0131782D01*
X0084337Y0131782D02*
X0084337Y0131782D01*
X0084337Y0131522D02*
X0084729Y0131522D01*
X0085497Y0131675D01*
X0086221Y0131975D01*
X0086873Y0132410D01*
X0087427Y0132964D01*
X0087862Y0133616D01*
X0088162Y0134340D01*
X0088315Y0135108D01*
X0088315Y0135500D01*
X0088315Y0135892D01*
X0088162Y0136660D01*
X0087862Y0137384D01*
X0087427Y0138036D01*
X0086873Y0138590D01*
X0086221Y0139025D01*
X0085497Y0139325D01*
X0084729Y0139478D01*
X0084337Y0139478D01*
X0084337Y0135500D01*
X0084337Y0135500D01*
X0084337Y0135500D01*
X0084337Y0131522D01*
X0085757Y0131782D02*
X0089337Y0131782D01*
X0089337Y0133381D02*
X0087705Y0133381D01*
X0088289Y0134979D02*
X0089337Y0134979D01*
X0088315Y0135500D02*
X0084337Y0135500D01*
X0088315Y0135500D01*
X0088179Y0136578D02*
X0089337Y0136578D01*
X0089337Y0138176D02*
X0087286Y0138176D01*
X0089337Y0139775D02*
X0071837Y0139775D01*
X0071837Y0141373D02*
X0089337Y0141373D01*
X0084337Y0138176D02*
X0084337Y0138176D01*
X0084337Y0136578D02*
X0084337Y0136578D01*
X0084337Y0135500D02*
X0084337Y0135500D01*
X0084337Y0134979D02*
X0084337Y0134979D01*
X0084337Y0133381D02*
X0084337Y0133381D01*
X0080969Y0133381D02*
X0080205Y0133381D01*
X0076837Y0133381D02*
X0076837Y0133381D01*
X0076837Y0134979D02*
X0076837Y0134979D01*
X0076837Y0135500D02*
X0076837Y0135500D01*
X0076837Y0136578D02*
X0076837Y0136578D01*
X0076837Y0138176D02*
X0076837Y0138176D01*
X0073888Y0138176D02*
X0071837Y0138176D01*
X0071837Y0136578D02*
X0072996Y0136578D01*
X0072885Y0134979D02*
X0071837Y0134979D01*
X0071837Y0133381D02*
X0073469Y0133381D01*
X0079786Y0138176D02*
X0081388Y0138176D01*
X0065587Y0138176D02*
X0063536Y0138176D01*
X0064429Y0136578D02*
X0065587Y0136578D01*
X0064565Y0135500D02*
X0060587Y0135500D01*
X0060587Y0135500D01*
X0064565Y0135500D01*
X0064539Y0134979D02*
X0065587Y0134979D01*
X0065587Y0133381D02*
X0063955Y0133381D01*
X0060587Y0133381D02*
X0060587Y0133381D01*
X0060587Y0134979D02*
X0060587Y0134979D01*
X0060587Y0136578D02*
X0060587Y0136578D01*
X0060587Y0138176D02*
X0060587Y0138176D01*
X0057638Y0138176D02*
X0056036Y0138176D01*
X0053087Y0138176D02*
X0053087Y0138176D01*
X0053087Y0136578D02*
X0053087Y0136578D01*
X0053087Y0135500D02*
X0053087Y0135500D01*
X0053087Y0134979D02*
X0053087Y0134979D01*
X0053087Y0133381D02*
X0053087Y0133381D01*
X0056455Y0133381D02*
X0057219Y0133381D01*
X0071837Y0118994D02*
X0072269Y0118994D01*
X0071917Y0117396D02*
X0071837Y0117396D01*
X0079930Y0117396D02*
X0080889Y0117396D01*
X0080889Y0118994D02*
X0079930Y0118994D01*
M02*
